%TF.GenerationSoftware,KiCad,Pcbnew,10.0.3*%
%TF.CreationDate,2026-09-08T12:34:11+03:00*%
%TF.ProjectId,Breadboard Power Supply,42726561-6462-46f6-9172-6420506f7765,rev?*%
%TF.SameCoordinates,Original*%
%TF.FileFunction,Plated,1,2,PTH,Mixed*%
%TF.FilePolarity,Positive*%
%FSLAX46Y46*%
G04 Gerber Fmt 4.6, Leading zero omitted, Abs format (unit mm)*
G04 Created by KiCad (PCBNEW 10.0.3) date 2026-09-08 12:34:11*
%MOMM*%
%LPD*%
G01*
G04 APERTURE LIST*
%TA.AperFunction,ViaDrill*%
%ADD10C,0.500000*%
%TD*%
%TA.AperFunction,ComponentDrill*%
%ADD11C,0.700000*%
%TD*%
%TA.AperFunction,ComponentDrill*%
%ADD12C,0.800000*%
%TD*%
%TA.AperFunction,ComponentDrill*%
%ADD13C,0.889000*%
%TD*%
%TA.AperFunction,ComponentDrill*%
%ADD14C,0.900000*%
%TD*%
%TA.AperFunction,ComponentDrill*%
%ADD15C,1.000000*%
%TD*%
G04 aperture for slot hole*
%TA.AperFunction,ComponentDrill*%
%ADD16C,1.000000*%
%TD*%
%TA.AperFunction,ComponentDrill*%
%ADD17C,1.100000*%
%TD*%
%TA.AperFunction,ComponentDrill*%
%ADD18C,1.520000*%
%TD*%
G04 APERTURE END LIST*
D10*
X36689000Y-91186000D03*
D11*
%TO.C,R2*%
X38354000Y-71374000D03*
%TO.C,R1*%
X38862000Y-91186000D03*
%TO.C,R3*%
X38996400Y-87071200D03*
%TO.C,R2*%
X45974000Y-71374000D03*
%TO.C,R1*%
X46482000Y-91186000D03*
%TO.C,R3*%
X46616400Y-87071200D03*
D12*
%TO.C,C3*%
X26075000Y-94869000D03*
%TO.C,C2*%
X26182000Y-61976000D03*
%TO.C,C3*%
X28575000Y-94869000D03*
%TO.C,C2*%
X28682000Y-61976000D03*
%TO.C,C1*%
X32018600Y-62052200D03*
X34518600Y-62052200D03*
D13*
%TO.C,SW1*%
X39145200Y-66141600D03*
X41645200Y-66141600D03*
X44145200Y-66141600D03*
D14*
%TO.C,D1*%
X44356400Y-77470000D03*
X44356400Y-80010000D03*
D15*
%TO.C,J4*%
X28295600Y-101539000D03*
%TO.C,J3*%
X28676600Y-53192800D03*
%TO.C,J4*%
X30835600Y-101539000D03*
%TO.C,J3*%
X31216600Y-53192800D03*
%TO.C,J6*%
D16*
X31978600Y-79409800D02*
X31978600Y-77409800D01*
D15*
%TO.C,J4*%
X33375600Y-101539000D03*
%TO.C,J3*%
X33756600Y-53192800D03*
%TO.C,J6*%
D16*
X35978600Y-83109800D02*
X33978600Y-83109800D01*
X37978600Y-79409800D02*
X37978600Y-77409800D01*
D15*
%TO.C,J1*%
X51562000Y-53340000D03*
X51562000Y-55880000D03*
%TO.C,J2*%
X51562000Y-99136200D03*
X51562000Y-101676200D03*
D17*
%TO.C,U2*%
X26847800Y-89484200D03*
%TO.C,U1*%
X27432000Y-67564000D03*
%TO.C,U2*%
X29387800Y-89484200D03*
%TO.C,U1*%
X29972000Y-67564000D03*
%TO.C,U2*%
X31927800Y-89484200D03*
%TO.C,U1*%
X32512000Y-67564000D03*
D18*
%TO.C,J5*%
X39776400Y-55422800D03*
%TO.C,J7*%
X39776400Y-99309000D03*
%TO.C,J5*%
X44856400Y-55422800D03*
%TO.C,J7*%
X44856400Y-99309000D03*
M02*
