%TF.GenerationSoftware,KiCad,Pcbnew,10.0.3*%
%TF.CreationDate,2026-09-08T12:34:11+03:00*%
%TF.ProjectId,Breadboard Power Supply,42726561-6462-46f6-9172-6420506f7765,rev?*%
%TF.SameCoordinates,Original*%
%TF.FileFunction,Drillmap*%
%TF.FilePolarity,Positive*%
%FSLAX45Y45*%
G04 Gerber Fmt 4.5, Leading zero omitted, Abs format (unit mm)*
G04 Created by KiCad (PCBNEW 10.0.3) date 2026-09-08 12:34:11*
%MOMM*%
%LPD*%
G01*
G04 APERTURE LIST*
%ADD10C,0.050000*%
%ADD11C,0.200000*%
G04 APERTURE END LIST*
D10*
X2311400Y-5181600D02*
X2311400Y-10337800D01*
X2311400Y-5181600D02*
G75*
G02*
X2387600Y-5105400I76200J0D01*
G01*
X2387600Y-10414000D02*
G75*
G02*
X2311400Y-10337800I0J76200D01*
G01*
X2387600Y-10414000D02*
X5283200Y-10411460D01*
X4826000Y-5867400D02*
G75*
G02*
X4902200Y-5791200I76200J0D01*
G01*
X4828540Y-9626600D02*
X4826000Y-5867400D01*
X4902200Y-5791200D02*
X5283200Y-5791200D01*
X4902200Y-9700260D02*
G75*
G02*
X4828540Y-9626600I0J73660D01*
G01*
X5283200Y-5105400D02*
X2387600Y-5105400D01*
X5283200Y-5105400D02*
G75*
G02*
X5359400Y-5181600I0J-76200D01*
G01*
X5283200Y-9700260D02*
X4902200Y-9700260D01*
X5283200Y-9700260D02*
G75*
G02*
X5361940Y-9779000I0J-78740D01*
G01*
X5356860Y-10337800D02*
G75*
G02*
X5283200Y-10411460I-73660J0D01*
G01*
X5356860Y-10337800D02*
X5361940Y-9779000D01*
X5359400Y-5715000D02*
G75*
G02*
X5283200Y-5791200I-76200J0D01*
G01*
X5359400Y-5715000D02*
X5359400Y-5181600D01*
D11*
X2569677Y-10727984D02*
X2569677Y-10527984D01*
X2569677Y-10527984D02*
X2617296Y-10527984D01*
X2617296Y-10527984D02*
X2645867Y-10537508D01*
X2645867Y-10537508D02*
X2664915Y-10556555D01*
X2664915Y-10556555D02*
X2674439Y-10575603D01*
X2674439Y-10575603D02*
X2683963Y-10613698D01*
X2683963Y-10613698D02*
X2683963Y-10642270D01*
X2683963Y-10642270D02*
X2674439Y-10680365D01*
X2674439Y-10680365D02*
X2664915Y-10699412D01*
X2664915Y-10699412D02*
X2645867Y-10718460D01*
X2645867Y-10718460D02*
X2617296Y-10727984D01*
X2617296Y-10727984D02*
X2569677Y-10727984D01*
X2769677Y-10727984D02*
X2769677Y-10594650D01*
X2769677Y-10632746D02*
X2779201Y-10613698D01*
X2779201Y-10613698D02*
X2788724Y-10604174D01*
X2788724Y-10604174D02*
X2807772Y-10594650D01*
X2807772Y-10594650D02*
X2826820Y-10594650D01*
X2893486Y-10727984D02*
X2893486Y-10594650D01*
X2893486Y-10527984D02*
X2883962Y-10537508D01*
X2883962Y-10537508D02*
X2893486Y-10547031D01*
X2893486Y-10547031D02*
X2903010Y-10537508D01*
X2903010Y-10537508D02*
X2893486Y-10527984D01*
X2893486Y-10527984D02*
X2893486Y-10547031D01*
X3017296Y-10727984D02*
X2998248Y-10718460D01*
X2998248Y-10718460D02*
X2988724Y-10699412D01*
X2988724Y-10699412D02*
X2988724Y-10527984D01*
X3122058Y-10727984D02*
X3103010Y-10718460D01*
X3103010Y-10718460D02*
X3093486Y-10699412D01*
X3093486Y-10699412D02*
X3093486Y-10527984D01*
X3350629Y-10727984D02*
X3350629Y-10527984D01*
X3350629Y-10527984D02*
X3417296Y-10670841D01*
X3417296Y-10670841D02*
X3483962Y-10527984D01*
X3483962Y-10527984D02*
X3483962Y-10727984D01*
X3664915Y-10727984D02*
X3664915Y-10623222D01*
X3664915Y-10623222D02*
X3655391Y-10604174D01*
X3655391Y-10604174D02*
X3636343Y-10594650D01*
X3636343Y-10594650D02*
X3598248Y-10594650D01*
X3598248Y-10594650D02*
X3579201Y-10604174D01*
X3664915Y-10718460D02*
X3645867Y-10727984D01*
X3645867Y-10727984D02*
X3598248Y-10727984D01*
X3598248Y-10727984D02*
X3579201Y-10718460D01*
X3579201Y-10718460D02*
X3569677Y-10699412D01*
X3569677Y-10699412D02*
X3569677Y-10680365D01*
X3569677Y-10680365D02*
X3579201Y-10661317D01*
X3579201Y-10661317D02*
X3598248Y-10651793D01*
X3598248Y-10651793D02*
X3645867Y-10651793D01*
X3645867Y-10651793D02*
X3664915Y-10642270D01*
X3760153Y-10594650D02*
X3760153Y-10794650D01*
X3760153Y-10604174D02*
X3779201Y-10594650D01*
X3779201Y-10594650D02*
X3817296Y-10594650D01*
X3817296Y-10594650D02*
X3836343Y-10604174D01*
X3836343Y-10604174D02*
X3845867Y-10613698D01*
X3845867Y-10613698D02*
X3855391Y-10632746D01*
X3855391Y-10632746D02*
X3855391Y-10689889D01*
X3855391Y-10689889D02*
X3845867Y-10708936D01*
X3845867Y-10708936D02*
X3836343Y-10718460D01*
X3836343Y-10718460D02*
X3817296Y-10727984D01*
X3817296Y-10727984D02*
X3779201Y-10727984D01*
X3779201Y-10727984D02*
X3760153Y-10718460D01*
X3941105Y-10708936D02*
X3950629Y-10718460D01*
X3950629Y-10718460D02*
X3941105Y-10727984D01*
X3941105Y-10727984D02*
X3931582Y-10718460D01*
X3931582Y-10718460D02*
X3941105Y-10708936D01*
X3941105Y-10708936D02*
X3941105Y-10727984D01*
X3941105Y-10604174D02*
X3950629Y-10613698D01*
X3950629Y-10613698D02*
X3941105Y-10623222D01*
X3941105Y-10623222D02*
X3931582Y-10613698D01*
X3931582Y-10613698D02*
X3941105Y-10604174D01*
X3941105Y-10604174D02*
X3941105Y-10623222D01*
M02*
