%TF.GenerationSoftware,KiCad,Pcbnew,10.0.3*%
%TF.CreationDate,2026-09-08T12:33:45+03:00*%
%TF.ProjectId,Breadboard Power Supply,42726561-6462-46f6-9172-6420506f7765,rev?*%
%TF.SameCoordinates,Original*%
%TF.FileFunction,Soldermask,Bot*%
%TF.FilePolarity,Negative*%
%FSLAX46Y46*%
G04 Gerber Fmt 4.6, Leading zero omitted, Abs format (unit mm)*
G04 Created by KiCad (PCBNEW 10.0.3) date 2026-09-08 12:33:45*
%MOMM*%
%LPD*%
G01*
G04 APERTURE LIST*
G04 Aperture macros list*
%AMRoundRect*
0 Rectangle with rounded corners*
0 $1 Rounding radius*
0 $2 $3 $4 $5 $6 $7 $8 $9 X,Y pos of 4 corners*
0 Add a 4 corners polygon primitive as box body*
4,1,4,$2,$3,$4,$5,$6,$7,$8,$9,$2,$3,0*
0 Add four circle primitives for the rounded corners*
1,1,$1+$1,$2,$3*
1,1,$1+$1,$4,$5*
1,1,$1+$1,$6,$7*
1,1,$1+$1,$8,$9*
0 Add four rect primitives between the rounded corners*
20,1,$1+$1,$2,$3,$4,$5,0*
20,1,$1+$1,$4,$5,$6,$7,0*
20,1,$1+$1,$6,$7,$8,$9,0*
20,1,$1+$1,$8,$9,$2,$3,0*%
G04 Aperture macros list end*
%ADD10C,1.600000*%
%ADD11R,1.905000X2.000000*%
%ADD12O,1.905000X2.000000*%
%ADD13R,1.700000X1.700000*%
%ADD14C,1.700000*%
%ADD15C,1.400000*%
%ADD16R,1.800000X1.800000*%
%ADD17C,1.800000*%
%ADD18R,3.000000X3.000000*%
%ADD19C,3.000000*%
%ADD20C,1.397000*%
%ADD21R,3.500000X3.500000*%
%ADD22RoundRect,0.750000X-0.750000X-1.000000X0.750000X-1.000000X0.750000X1.000000X-0.750000X1.000000X0*%
%ADD23RoundRect,0.875000X-0.875000X-0.875000X0.875000X-0.875000X0.875000X0.875000X-0.875000X0.875000X0*%
G04 APERTURE END LIST*
D10*
%TO.C,C1*%
X34518600Y-62052200D03*
X32018600Y-62052200D03*
%TD*%
%TO.C,C3*%
X26075000Y-94869000D03*
X28575000Y-94869000D03*
%TD*%
D11*
%TO.C,U2*%
X26847800Y-89484200D03*
D12*
X29387800Y-89484200D03*
X31927800Y-89484200D03*
%TD*%
D11*
%TO.C,U1*%
X32512000Y-67564000D03*
D12*
X29972000Y-67564000D03*
X27432000Y-67564000D03*
%TD*%
D13*
%TO.C,J4*%
X28295600Y-101539000D03*
D14*
X30835600Y-101539000D03*
X33375600Y-101539000D03*
%TD*%
D13*
%TO.C,J1*%
X51562000Y-53340000D03*
D14*
X51562000Y-55880000D03*
%TD*%
D15*
%TO.C,R2*%
X38354000Y-71374000D03*
X45974000Y-71374000D03*
%TD*%
D13*
%TO.C,J2*%
X51562000Y-99136200D03*
D14*
X51562000Y-101676200D03*
%TD*%
D16*
%TO.C,D1*%
X44356400Y-80010000D03*
D17*
X44356400Y-77470000D03*
%TD*%
D18*
%TO.C,J7*%
X39776400Y-99309000D03*
D19*
X44856400Y-99309000D03*
%TD*%
D20*
%TO.C,SW1*%
X39145200Y-66141600D03*
X41645200Y-66141600D03*
X44145200Y-66141600D03*
%TD*%
D13*
%TO.C,J3*%
X28676600Y-53192800D03*
D14*
X31216600Y-53192800D03*
X33756600Y-53192800D03*
%TD*%
D15*
%TO.C,R1*%
X46482000Y-91186000D03*
X38862000Y-91186000D03*
%TD*%
D21*
%TO.C,J6*%
X37978600Y-78409800D03*
D22*
X31978600Y-78409800D03*
D23*
X34978600Y-83109800D03*
%TD*%
D10*
%TO.C,C2*%
X28682000Y-61976000D03*
X26182000Y-61976000D03*
%TD*%
D15*
%TO.C,R3*%
X38996400Y-87071200D03*
X46616400Y-87071200D03*
%TD*%
D18*
%TO.C,J5*%
X39776400Y-55422800D03*
D19*
X44856400Y-55422800D03*
%TD*%
M02*
