%TF.GenerationSoftware,KiCad,Pcbnew,10.0.3*%
%TF.CreationDate,2026-09-08T12:33:45+03:00*%
%TF.ProjectId,Breadboard Power Supply,42726561-6462-46f6-9172-6420506f7765,rev?*%
%TF.SameCoordinates,Original*%
%TF.FileFunction,Copper,L1,Top*%
%TF.FilePolarity,Positive*%
%FSLAX46Y46*%
G04 Gerber Fmt 4.6, Leading zero omitted, Abs format (unit mm)*
G04 Created by KiCad (PCBNEW 10.0.3) date 2026-09-08 12:33:45*
%MOMM*%
%LPD*%
G01*
G04 APERTURE LIST*
G04 Aperture macros list*
%AMRoundRect*
0 Rectangle with rounded corners*
0 $1 Rounding radius*
0 $2 $3 $4 $5 $6 $7 $8 $9 X,Y pos of 4 corners*
0 Add a 4 corners polygon primitive as box body*
4,1,4,$2,$3,$4,$5,$6,$7,$8,$9,$2,$3,0*
0 Add four circle primitives for the rounded corners*
1,1,$1+$1,$2,$3*
1,1,$1+$1,$4,$5*
1,1,$1+$1,$6,$7*
1,1,$1+$1,$8,$9*
0 Add four rect primitives between the rounded corners*
20,1,$1+$1,$2,$3,$4,$5,0*
20,1,$1+$1,$4,$5,$6,$7,0*
20,1,$1+$1,$6,$7,$8,$9,0*
20,1,$1+$1,$8,$9,$2,$3,0*%
G04 Aperture macros list end*
%TA.AperFunction,ComponentPad*%
%ADD10C,1.600000*%
%TD*%
%TA.AperFunction,ComponentPad*%
%ADD11R,1.905000X2.000000*%
%TD*%
%TA.AperFunction,ComponentPad*%
%ADD12O,1.905000X2.000000*%
%TD*%
%TA.AperFunction,ComponentPad*%
%ADD13R,1.700000X1.700000*%
%TD*%
%TA.AperFunction,ComponentPad*%
%ADD14C,1.700000*%
%TD*%
%TA.AperFunction,ComponentPad*%
%ADD15C,1.400000*%
%TD*%
%TA.AperFunction,ComponentPad*%
%ADD16R,1.800000X1.800000*%
%TD*%
%TA.AperFunction,ComponentPad*%
%ADD17C,1.800000*%
%TD*%
%TA.AperFunction,ComponentPad*%
%ADD18R,3.000000X3.000000*%
%TD*%
%TA.AperFunction,ComponentPad*%
%ADD19C,3.000000*%
%TD*%
%TA.AperFunction,ComponentPad*%
%ADD20C,1.397000*%
%TD*%
%TA.AperFunction,ComponentPad*%
%ADD21R,3.500000X3.500000*%
%TD*%
%TA.AperFunction,ComponentPad*%
%ADD22RoundRect,0.750000X-0.750000X-1.000000X0.750000X-1.000000X0.750000X1.000000X-0.750000X1.000000X0*%
%TD*%
%TA.AperFunction,ComponentPad*%
%ADD23RoundRect,0.875000X-0.875000X-0.875000X0.875000X-0.875000X0.875000X0.875000X-0.875000X0.875000X0*%
%TD*%
%TA.AperFunction,ViaPad*%
%ADD24C,0.900000*%
%TD*%
%TA.AperFunction,Conductor*%
%ADD25C,0.350000*%
%TD*%
%TA.AperFunction,Conductor*%
%ADD26C,0.200000*%
%TD*%
G04 APERTURE END LIST*
D10*
%TO.P,C1,1*%
%TO.N,/12V*%
X34518600Y-62052200D03*
%TO.P,C1,2*%
%TO.N,GND*%
X32018600Y-62052200D03*
%TD*%
%TO.P,C3,1*%
%TO.N,/3.3V*%
X26075000Y-94869000D03*
%TO.P,C3,2*%
%TO.N,GND*%
X28575000Y-94869000D03*
%TD*%
D11*
%TO.P,U2,1,ADJ_1*%
%TO.N,Net-(U2-ADJ)*%
X26847800Y-89484200D03*
D12*
%TO.P,U2,2,VO_2*%
%TO.N,/3.3V*%
X29387800Y-89484200D03*
%TO.P,U2,3,VI_3*%
%TO.N,/12V*%
X31927800Y-89484200D03*
%TD*%
D11*
%TO.P,U1,1,VI_1*%
%TO.N,/12V*%
X32512000Y-67564000D03*
D12*
%TO.P,U1,2,GND_2*%
%TO.N,GND*%
X29972000Y-67564000D03*
%TO.P,U1,3,VO_3*%
%TO.N,/5V*%
X27432000Y-67564000D03*
%TD*%
D13*
%TO.P,J4,1,Pin_1_1*%
%TO.N,/3.3V*%
X28295600Y-101539000D03*
D14*
%TO.P,J4,2,Pin_2_2*%
%TO.N,/PWR_out*%
X30835600Y-101539000D03*
%TO.P,J4,3,Pin_3_3*%
%TO.N,/5V*%
X33375600Y-101539000D03*
%TD*%
D13*
%TO.P,J1,1,Pin_1_1*%
%TO.N,GND*%
X51562000Y-53340000D03*
D14*
%TO.P,J1,2,Pin_2_2*%
%TO.N,/PWR_out*%
X51562000Y-55880000D03*
%TD*%
D15*
%TO.P,R2,1*%
%TO.N,Net-(D1-A)*%
X38354000Y-71374000D03*
%TO.P,R2,2*%
%TO.N,/12V*%
X45974000Y-71374000D03*
%TD*%
D13*
%TO.P,J2,1,Pin_1_1*%
%TO.N,GND*%
X51562000Y-99136200D03*
D14*
%TO.P,J2,2,Pin_2_2*%
%TO.N,/PWR_out*%
X51562000Y-101676200D03*
%TD*%
D16*
%TO.P,D1,1,K_1*%
%TO.N,GND*%
X44356400Y-80010000D03*
D17*
%TO.P,D1,2,A_2*%
%TO.N,Net-(D1-A)*%
X44356400Y-77470000D03*
%TD*%
D18*
%TO.P,J7,1,Pin_1_1*%
%TO.N,GND*%
X39776400Y-99309000D03*
D19*
%TO.P,J7,2,Pin_2_2*%
%TO.N,/PWR_out*%
X44856400Y-99309000D03*
%TD*%
D20*
%TO.P,SW1,1,1_1*%
%TO.N,/PWR_in*%
X39145200Y-66141600D03*
%TO.P,SW1,2,2_2*%
%TO.N,/12V*%
X41645200Y-66141600D03*
%TO.P,SW1,3,3_3*%
%TO.N,unconnected-(SW1-Pad3)*%
X44145200Y-66141600D03*
%TD*%
D13*
%TO.P,J3,1,Pin_1_1*%
%TO.N,/3.3V*%
X28676600Y-53192800D03*
D14*
%TO.P,J3,2,Pin_2_2*%
%TO.N,/PWR_out*%
X31216600Y-53192800D03*
%TO.P,J3,3,Pin_3_3*%
%TO.N,/5V*%
X33756600Y-53192800D03*
%TD*%
D15*
%TO.P,R1,1*%
%TO.N,Net-(U2-ADJ)*%
X46482000Y-91186000D03*
%TO.P,R1,2*%
%TO.N,/3.3V*%
X38862000Y-91186000D03*
%TD*%
D21*
%TO.P,J6,1*%
%TO.N,/PWR_in*%
X37978600Y-78409800D03*
D22*
%TO.P,J6,2*%
%TO.N,GND*%
X31978600Y-78409800D03*
D23*
%TO.P,J6,3*%
X34978600Y-83109800D03*
%TD*%
D10*
%TO.P,C2,1*%
%TO.N,/5V*%
X28682000Y-61976000D03*
%TO.P,C2,2*%
%TO.N,GND*%
X26182000Y-61976000D03*
%TD*%
D15*
%TO.P,R3,1*%
%TO.N,GND*%
X38996400Y-87071200D03*
%TO.P,R3,2*%
%TO.N,Net-(U2-ADJ)*%
X46616400Y-87071200D03*
%TD*%
D18*
%TO.P,J5,1,Pin_1_1*%
%TO.N,GND*%
X39776400Y-55422800D03*
D19*
%TO.P,J5,2,Pin_2_2*%
%TO.N,/PWR_out*%
X44856400Y-55422800D03*
%TD*%
D24*
%TO.N,/3.3V*%
X36689000Y-91186000D03*
%TD*%
%TO.N,/12V*%
D25*
X45974000Y-69342000D02*
X45974000Y-71374000D01*
X34518600Y-62052200D02*
X34518600Y-62204600D01*
X41645200Y-66141600D02*
X44845600Y-69342000D01*
X32512000Y-64211200D02*
X32512000Y-67818000D01*
X34518600Y-62052200D02*
X37555800Y-62052200D01*
X34518600Y-62204600D02*
X32512000Y-64211200D01*
X44845600Y-69342000D02*
X45974000Y-69342000D01*
X37555800Y-62052200D02*
X41645200Y-66141600D01*
%TO.N,/3.3V*%
X24384000Y-84432900D02*
X29387800Y-89436700D01*
X24384000Y-57485400D02*
X24384000Y-84432900D01*
X26075000Y-99318400D02*
X28295600Y-101539000D01*
X29387800Y-91556200D02*
X29387800Y-89484200D01*
X28676600Y-53192800D02*
X24384000Y-57485400D01*
X26075000Y-94869000D02*
X26075000Y-99318400D01*
X29387800Y-89436700D02*
X29387800Y-89484200D01*
X26075000Y-94869000D02*
X29387800Y-91556200D01*
X38862000Y-91186000D02*
X36689000Y-91186000D01*
%TO.N,Net-(U2-ADJ)*%
D26*
X46616400Y-91051600D02*
X46482000Y-91186000D01*
X46616400Y-87071200D02*
X46616400Y-91051600D01*
%TO.N,/5V*%
D25*
X27432000Y-67818000D02*
X27432000Y-82992821D01*
X28174000Y-61976000D02*
X28174000Y-62250000D01*
X33756600Y-53192800D02*
X28682000Y-58267400D01*
X28682000Y-62210000D02*
X27432000Y-63460000D01*
X35814000Y-87122000D02*
X35814000Y-99100600D01*
X28682000Y-58267400D02*
X28682000Y-61976000D01*
X27432000Y-63460000D02*
X27432000Y-67818000D01*
X27432000Y-82992821D02*
X31561179Y-87122000D01*
X28682000Y-61976000D02*
X28682000Y-62210000D01*
X31561179Y-87122000D02*
X35814000Y-87122000D01*
X35814000Y-99100600D02*
X33375600Y-101539000D01*
%TO.N,/PWR_out*%
X44856400Y-99720400D02*
X44856400Y-99309000D01*
D26*
X45313600Y-55880000D02*
X44856400Y-55422800D01*
X47659832Y-58226232D02*
X47659832Y-58425877D01*
D25*
X41351400Y-102814000D02*
X44856400Y-99309000D01*
D26*
X44856400Y-53492400D02*
X44856400Y-55422800D01*
D25*
X51562000Y-101676200D02*
X46812200Y-101676200D01*
X46812200Y-101676200D02*
X44856400Y-99720400D01*
D26*
X43356800Y-51992800D02*
X44856400Y-53492400D01*
X32416600Y-51992800D02*
X43356800Y-51992800D01*
X47659832Y-58425877D02*
X47685228Y-96012388D01*
X44856400Y-55422800D02*
X47659832Y-58226232D01*
D25*
X30835600Y-101539000D02*
X32110600Y-102814000D01*
X32110600Y-102814000D02*
X41351400Y-102814000D01*
D26*
X51562000Y-55880000D02*
X45313600Y-55880000D01*
X47685228Y-96012388D02*
X47685228Y-96480172D01*
X31216600Y-53192800D02*
X32416600Y-51992800D01*
X47685228Y-96480172D02*
X44856400Y-99309000D01*
%TO.N,Net-(D1-A)*%
X44356400Y-77376400D02*
X44356400Y-77470000D01*
X38354000Y-71374000D02*
X44356400Y-77376400D01*
%TO.N,/PWR_in*%
D25*
X37338000Y-75438000D02*
X37978600Y-76078600D01*
X36830000Y-75438000D02*
X37338000Y-75438000D01*
X36068000Y-69218800D02*
X36068000Y-74676000D01*
X37978600Y-76078600D02*
X37978600Y-78409800D01*
X39145200Y-66141600D02*
X36068000Y-69218800D01*
X36068000Y-74676000D02*
X36830000Y-75438000D01*
%TD*%
M02*
