%TF.GenerationSoftware,KiCad,Pcbnew,10.0.3*%
%TF.CreationDate,2026-09-08T12:33:45+03:00*%
%TF.ProjectId,Breadboard Power Supply,42726561-6462-46f6-9172-6420506f7765,rev?*%
%TF.SameCoordinates,Original*%
%TF.FileFunction,Legend,Bot*%
%TF.FilePolarity,Positive*%
%FSLAX46Y46*%
G04 Gerber Fmt 4.6, Leading zero omitted, Abs format (unit mm)*
G04 Created by KiCad (PCBNEW 10.0.3) date 2026-09-08 12:33:45*
%MOMM*%
%LPD*%
G01*
G04 APERTURE LIST*
%ADD10C,0.100000*%
%ADD11C,0.010000*%
G04 APERTURE END LIST*
D10*
X29602177Y-74029823D02*
G75*
G02*
X25261823Y-74029823I-2170177J0D01*
G01*
X25261823Y-74029823D02*
G75*
G02*
X29602177Y-74029823I2170177J0D01*
G01*
X35166985Y-63900571D02*
X34366985Y-63900571D01*
X34366985Y-63900571D02*
X34366985Y-64091047D01*
X34366985Y-64091047D02*
X34405080Y-64205333D01*
X34405080Y-64205333D02*
X34481270Y-64281523D01*
X34481270Y-64281523D02*
X34557461Y-64319618D01*
X34557461Y-64319618D02*
X34709842Y-64357714D01*
X34709842Y-64357714D02*
X34824128Y-64357714D01*
X34824128Y-64357714D02*
X34976509Y-64319618D01*
X34976509Y-64319618D02*
X35052699Y-64281523D01*
X35052699Y-64281523D02*
X35128890Y-64205333D01*
X35128890Y-64205333D02*
X35166985Y-64091047D01*
X35166985Y-64091047D02*
X35166985Y-63900571D01*
X35128890Y-65005333D02*
X35166985Y-64929142D01*
X35166985Y-64929142D02*
X35166985Y-64776761D01*
X35166985Y-64776761D02*
X35128890Y-64700571D01*
X35128890Y-64700571D02*
X35052699Y-64662475D01*
X35052699Y-64662475D02*
X34747937Y-64662475D01*
X34747937Y-64662475D02*
X34671747Y-64700571D01*
X34671747Y-64700571D02*
X34633651Y-64776761D01*
X34633651Y-64776761D02*
X34633651Y-64929142D01*
X34633651Y-64929142D02*
X34671747Y-65005333D01*
X34671747Y-65005333D02*
X34747937Y-65043428D01*
X34747937Y-65043428D02*
X34824128Y-65043428D01*
X34824128Y-65043428D02*
X34900318Y-64662475D01*
X35166985Y-65386285D02*
X34633651Y-65386285D01*
X34709842Y-65386285D02*
X34671747Y-65424380D01*
X34671747Y-65424380D02*
X34633651Y-65500570D01*
X34633651Y-65500570D02*
X34633651Y-65614856D01*
X34633651Y-65614856D02*
X34671747Y-65691047D01*
X34671747Y-65691047D02*
X34747937Y-65729142D01*
X34747937Y-65729142D02*
X35166985Y-65729142D01*
X34747937Y-65729142D02*
X34671747Y-65767237D01*
X34671747Y-65767237D02*
X34633651Y-65843428D01*
X34633651Y-65843428D02*
X34633651Y-65957713D01*
X34633651Y-65957713D02*
X34671747Y-66033904D01*
X34671747Y-66033904D02*
X34747937Y-66071999D01*
X34747937Y-66071999D02*
X35166985Y-66071999D01*
X35166985Y-66567237D02*
X35128890Y-66491047D01*
X35128890Y-66491047D02*
X35090794Y-66452952D01*
X35090794Y-66452952D02*
X35014604Y-66414856D01*
X35014604Y-66414856D02*
X34786032Y-66414856D01*
X34786032Y-66414856D02*
X34709842Y-66452952D01*
X34709842Y-66452952D02*
X34671747Y-66491047D01*
X34671747Y-66491047D02*
X34633651Y-66567237D01*
X34633651Y-66567237D02*
X34633651Y-66681523D01*
X34633651Y-66681523D02*
X34671747Y-66757714D01*
X34671747Y-66757714D02*
X34709842Y-66795809D01*
X34709842Y-66795809D02*
X34786032Y-66833904D01*
X34786032Y-66833904D02*
X35014604Y-66833904D01*
X35014604Y-66833904D02*
X35090794Y-66795809D01*
X35090794Y-66795809D02*
X35128890Y-66757714D01*
X35128890Y-66757714D02*
X35166985Y-66681523D01*
X35166985Y-66681523D02*
X35166985Y-66567237D01*
X35166985Y-67786286D02*
X34366985Y-67786286D01*
X34366985Y-67786286D02*
X34366985Y-68091048D01*
X34366985Y-68091048D02*
X34405080Y-68167238D01*
X34405080Y-68167238D02*
X34443175Y-68205333D01*
X34443175Y-68205333D02*
X34519366Y-68243429D01*
X34519366Y-68243429D02*
X34633651Y-68243429D01*
X34633651Y-68243429D02*
X34709842Y-68205333D01*
X34709842Y-68205333D02*
X34747937Y-68167238D01*
X34747937Y-68167238D02*
X34786032Y-68091048D01*
X34786032Y-68091048D02*
X34786032Y-67786286D01*
X35166985Y-68586286D02*
X34633651Y-68586286D01*
X34786032Y-68586286D02*
X34709842Y-68624381D01*
X34709842Y-68624381D02*
X34671747Y-68662476D01*
X34671747Y-68662476D02*
X34633651Y-68738667D01*
X34633651Y-68738667D02*
X34633651Y-68814857D01*
X35166985Y-69195809D02*
X35128890Y-69119619D01*
X35128890Y-69119619D02*
X35090794Y-69081524D01*
X35090794Y-69081524D02*
X35014604Y-69043428D01*
X35014604Y-69043428D02*
X34786032Y-69043428D01*
X34786032Y-69043428D02*
X34709842Y-69081524D01*
X34709842Y-69081524D02*
X34671747Y-69119619D01*
X34671747Y-69119619D02*
X34633651Y-69195809D01*
X34633651Y-69195809D02*
X34633651Y-69310095D01*
X34633651Y-69310095D02*
X34671747Y-69386286D01*
X34671747Y-69386286D02*
X34709842Y-69424381D01*
X34709842Y-69424381D02*
X34786032Y-69462476D01*
X34786032Y-69462476D02*
X35014604Y-69462476D01*
X35014604Y-69462476D02*
X35090794Y-69424381D01*
X35090794Y-69424381D02*
X35128890Y-69386286D01*
X35128890Y-69386286D02*
X35166985Y-69310095D01*
X35166985Y-69310095D02*
X35166985Y-69195809D01*
X34633651Y-69805334D02*
X35319366Y-69805334D01*
X35319366Y-69805334D02*
X35395556Y-69767238D01*
X35395556Y-69767238D02*
X35433651Y-69691048D01*
X35433651Y-69691048D02*
X35433651Y-69652953D01*
X34366985Y-69805334D02*
X34405080Y-69767238D01*
X34405080Y-69767238D02*
X34443175Y-69805334D01*
X34443175Y-69805334D02*
X34405080Y-69843429D01*
X34405080Y-69843429D02*
X34366985Y-69805334D01*
X34366985Y-69805334D02*
X34443175Y-69805334D01*
X35128890Y-70491048D02*
X35166985Y-70414857D01*
X35166985Y-70414857D02*
X35166985Y-70262476D01*
X35166985Y-70262476D02*
X35128890Y-70186286D01*
X35128890Y-70186286D02*
X35052699Y-70148190D01*
X35052699Y-70148190D02*
X34747937Y-70148190D01*
X34747937Y-70148190D02*
X34671747Y-70186286D01*
X34671747Y-70186286D02*
X34633651Y-70262476D01*
X34633651Y-70262476D02*
X34633651Y-70414857D01*
X34633651Y-70414857D02*
X34671747Y-70491048D01*
X34671747Y-70491048D02*
X34747937Y-70529143D01*
X34747937Y-70529143D02*
X34824128Y-70529143D01*
X34824128Y-70529143D02*
X34900318Y-70148190D01*
X35128890Y-71214857D02*
X35166985Y-71138666D01*
X35166985Y-71138666D02*
X35166985Y-70986285D01*
X35166985Y-70986285D02*
X35128890Y-70910095D01*
X35128890Y-70910095D02*
X35090794Y-70872000D01*
X35090794Y-70872000D02*
X35014604Y-70833904D01*
X35014604Y-70833904D02*
X34786032Y-70833904D01*
X34786032Y-70833904D02*
X34709842Y-70872000D01*
X34709842Y-70872000D02*
X34671747Y-70910095D01*
X34671747Y-70910095D02*
X34633651Y-70986285D01*
X34633651Y-70986285D02*
X34633651Y-71138666D01*
X34633651Y-71138666D02*
X34671747Y-71214857D01*
X34633651Y-71443428D02*
X34633651Y-71748190D01*
X34366985Y-71557714D02*
X35052699Y-71557714D01*
X35052699Y-71557714D02*
X35128890Y-71595809D01*
X35128890Y-71595809D02*
X35166985Y-71671999D01*
X35166985Y-71671999D02*
X35166985Y-71748190D01*
X36454940Y-67291047D02*
X35654940Y-67291047D01*
X35959702Y-67291047D02*
X35921606Y-67367237D01*
X35921606Y-67367237D02*
X35921606Y-67519618D01*
X35921606Y-67519618D02*
X35959702Y-67595809D01*
X35959702Y-67595809D02*
X35997797Y-67633904D01*
X35997797Y-67633904D02*
X36073987Y-67671999D01*
X36073987Y-67671999D02*
X36302559Y-67671999D01*
X36302559Y-67671999D02*
X36378749Y-67633904D01*
X36378749Y-67633904D02*
X36416845Y-67595809D01*
X36416845Y-67595809D02*
X36454940Y-67519618D01*
X36454940Y-67519618D02*
X36454940Y-67367237D01*
X36454940Y-67367237D02*
X36416845Y-67291047D01*
X35921606Y-67938666D02*
X36454940Y-68129142D01*
X35921606Y-68319619D02*
X36454940Y-68129142D01*
X36454940Y-68129142D02*
X36645416Y-68052952D01*
X36645416Y-68052952D02*
X36683511Y-68014857D01*
X36683511Y-68014857D02*
X36721606Y-67938666D01*
X37742895Y-66300571D02*
X36942895Y-66300571D01*
X36942895Y-66300571D02*
X37514323Y-66567237D01*
X37514323Y-66567237D02*
X36942895Y-66833904D01*
X36942895Y-66833904D02*
X37742895Y-66833904D01*
X37742895Y-67214857D02*
X37209561Y-67214857D01*
X36942895Y-67214857D02*
X36980990Y-67176761D01*
X36980990Y-67176761D02*
X37019085Y-67214857D01*
X37019085Y-67214857D02*
X36980990Y-67252952D01*
X36980990Y-67252952D02*
X36942895Y-67214857D01*
X36942895Y-67214857D02*
X37019085Y-67214857D01*
X37209561Y-67481523D02*
X37209561Y-67786285D01*
X36942895Y-67595809D02*
X37628609Y-67595809D01*
X37628609Y-67595809D02*
X37704800Y-67633904D01*
X37704800Y-67633904D02*
X37742895Y-67710094D01*
X37742895Y-67710094D02*
X37742895Y-67786285D01*
X37742895Y-68052952D02*
X36942895Y-68052952D01*
X37742895Y-68395809D02*
X37323847Y-68395809D01*
X37323847Y-68395809D02*
X37247657Y-68357714D01*
X37247657Y-68357714D02*
X37209561Y-68281523D01*
X37209561Y-68281523D02*
X37209561Y-68167237D01*
X37209561Y-68167237D02*
X37247657Y-68091047D01*
X37247657Y-68091047D02*
X37285752Y-68052952D01*
X37209561Y-69119619D02*
X37742895Y-69119619D01*
X37209561Y-68776762D02*
X37628609Y-68776762D01*
X37628609Y-68776762D02*
X37704800Y-68814857D01*
X37704800Y-68814857D02*
X37742895Y-68891047D01*
X37742895Y-68891047D02*
X37742895Y-69005333D01*
X37742895Y-69005333D02*
X37704800Y-69081524D01*
X37704800Y-69081524D02*
X37666704Y-69119619D01*
X37209561Y-69500572D02*
X37742895Y-69500572D01*
X37285752Y-69500572D02*
X37247657Y-69538667D01*
X37247657Y-69538667D02*
X37209561Y-69614857D01*
X37209561Y-69614857D02*
X37209561Y-69729143D01*
X37209561Y-69729143D02*
X37247657Y-69805334D01*
X37247657Y-69805334D02*
X37323847Y-69843429D01*
X37323847Y-69843429D02*
X37742895Y-69843429D01*
X27184142Y-72460469D02*
X27850809Y-72698564D01*
X27850809Y-72698564D02*
X27184142Y-72936659D01*
X26850809Y-73508088D02*
X26850809Y-73603326D01*
X26850809Y-73603326D02*
X26898428Y-73698564D01*
X26898428Y-73698564D02*
X26946047Y-73746183D01*
X26946047Y-73746183D02*
X27041285Y-73793802D01*
X27041285Y-73793802D02*
X27231761Y-73841421D01*
X27231761Y-73841421D02*
X27469856Y-73841421D01*
X27469856Y-73841421D02*
X27660332Y-73793802D01*
X27660332Y-73793802D02*
X27755570Y-73746183D01*
X27755570Y-73746183D02*
X27803190Y-73698564D01*
X27803190Y-73698564D02*
X27850809Y-73603326D01*
X27850809Y-73603326D02*
X27850809Y-73508088D01*
X27850809Y-73508088D02*
X27803190Y-73412850D01*
X27803190Y-73412850D02*
X27755570Y-73365231D01*
X27755570Y-73365231D02*
X27660332Y-73317612D01*
X27660332Y-73317612D02*
X27469856Y-73269993D01*
X27469856Y-73269993D02*
X27231761Y-73269993D01*
X27231761Y-73269993D02*
X27041285Y-73317612D01*
X27041285Y-73317612D02*
X26946047Y-73365231D01*
X26946047Y-73365231D02*
X26898428Y-73412850D01*
X26898428Y-73412850D02*
X26850809Y-73508088D01*
X27755570Y-74269993D02*
X27803190Y-74317612D01*
X27803190Y-74317612D02*
X27850809Y-74269993D01*
X27850809Y-74269993D02*
X27803190Y-74222374D01*
X27803190Y-74222374D02*
X27755570Y-74269993D01*
X27755570Y-74269993D02*
X27850809Y-74269993D01*
X26946047Y-74698564D02*
X26898428Y-74746183D01*
X26898428Y-74746183D02*
X26850809Y-74841421D01*
X26850809Y-74841421D02*
X26850809Y-75079516D01*
X26850809Y-75079516D02*
X26898428Y-75174754D01*
X26898428Y-75174754D02*
X26946047Y-75222373D01*
X26946047Y-75222373D02*
X27041285Y-75269992D01*
X27041285Y-75269992D02*
X27136523Y-75269992D01*
X27136523Y-75269992D02*
X27279380Y-75222373D01*
X27279380Y-75222373D02*
X27850809Y-74650945D01*
X27850809Y-74650945D02*
X27850809Y-75269992D01*
X25338721Y-77081523D02*
X25386340Y-77224380D01*
X25386340Y-77224380D02*
X25433959Y-77271999D01*
X25433959Y-77271999D02*
X25529197Y-77319618D01*
X25529197Y-77319618D02*
X25672054Y-77319618D01*
X25672054Y-77319618D02*
X25767292Y-77271999D01*
X25767292Y-77271999D02*
X25814912Y-77224380D01*
X25814912Y-77224380D02*
X25862531Y-77129142D01*
X25862531Y-77129142D02*
X25862531Y-76748190D01*
X25862531Y-76748190D02*
X24862531Y-76748190D01*
X24862531Y-76748190D02*
X24862531Y-77081523D01*
X24862531Y-77081523D02*
X24910150Y-77176761D01*
X24910150Y-77176761D02*
X24957769Y-77224380D01*
X24957769Y-77224380D02*
X25053007Y-77271999D01*
X25053007Y-77271999D02*
X25148245Y-77271999D01*
X25148245Y-77271999D02*
X25243483Y-77224380D01*
X25243483Y-77224380D02*
X25291102Y-77176761D01*
X25291102Y-77176761D02*
X25338721Y-77081523D01*
X25338721Y-77081523D02*
X25338721Y-76748190D01*
X25862531Y-77748190D02*
X25195864Y-77748190D01*
X25386340Y-77748190D02*
X25291102Y-77795809D01*
X25291102Y-77795809D02*
X25243483Y-77843428D01*
X25243483Y-77843428D02*
X25195864Y-77938666D01*
X25195864Y-77938666D02*
X25195864Y-78033904D01*
X25814912Y-78748190D02*
X25862531Y-78652952D01*
X25862531Y-78652952D02*
X25862531Y-78462476D01*
X25862531Y-78462476D02*
X25814912Y-78367238D01*
X25814912Y-78367238D02*
X25719673Y-78319619D01*
X25719673Y-78319619D02*
X25338721Y-78319619D01*
X25338721Y-78319619D02*
X25243483Y-78367238D01*
X25243483Y-78367238D02*
X25195864Y-78462476D01*
X25195864Y-78462476D02*
X25195864Y-78652952D01*
X25195864Y-78652952D02*
X25243483Y-78748190D01*
X25243483Y-78748190D02*
X25338721Y-78795809D01*
X25338721Y-78795809D02*
X25433959Y-78795809D01*
X25433959Y-78795809D02*
X25529197Y-78319619D01*
X25862531Y-79652952D02*
X25338721Y-79652952D01*
X25338721Y-79652952D02*
X25243483Y-79605333D01*
X25243483Y-79605333D02*
X25195864Y-79510095D01*
X25195864Y-79510095D02*
X25195864Y-79319619D01*
X25195864Y-79319619D02*
X25243483Y-79224381D01*
X25814912Y-79652952D02*
X25862531Y-79557714D01*
X25862531Y-79557714D02*
X25862531Y-79319619D01*
X25862531Y-79319619D02*
X25814912Y-79224381D01*
X25814912Y-79224381D02*
X25719673Y-79176762D01*
X25719673Y-79176762D02*
X25624435Y-79176762D01*
X25624435Y-79176762D02*
X25529197Y-79224381D01*
X25529197Y-79224381D02*
X25481578Y-79319619D01*
X25481578Y-79319619D02*
X25481578Y-79557714D01*
X25481578Y-79557714D02*
X25433959Y-79652952D01*
X25862531Y-80557714D02*
X24862531Y-80557714D01*
X25814912Y-80557714D02*
X25862531Y-80462476D01*
X25862531Y-80462476D02*
X25862531Y-80272000D01*
X25862531Y-80272000D02*
X25814912Y-80176762D01*
X25814912Y-80176762D02*
X25767292Y-80129143D01*
X25767292Y-80129143D02*
X25672054Y-80081524D01*
X25672054Y-80081524D02*
X25386340Y-80081524D01*
X25386340Y-80081524D02*
X25291102Y-80129143D01*
X25291102Y-80129143D02*
X25243483Y-80176762D01*
X25243483Y-80176762D02*
X25195864Y-80272000D01*
X25195864Y-80272000D02*
X25195864Y-80462476D01*
X25195864Y-80462476D02*
X25243483Y-80557714D01*
X25862531Y-81033905D02*
X24862531Y-81033905D01*
X25243483Y-81033905D02*
X25195864Y-81129143D01*
X25195864Y-81129143D02*
X25195864Y-81319619D01*
X25195864Y-81319619D02*
X25243483Y-81414857D01*
X25243483Y-81414857D02*
X25291102Y-81462476D01*
X25291102Y-81462476D02*
X25386340Y-81510095D01*
X25386340Y-81510095D02*
X25672054Y-81510095D01*
X25672054Y-81510095D02*
X25767292Y-81462476D01*
X25767292Y-81462476D02*
X25814912Y-81414857D01*
X25814912Y-81414857D02*
X25862531Y-81319619D01*
X25862531Y-81319619D02*
X25862531Y-81129143D01*
X25862531Y-81129143D02*
X25814912Y-81033905D01*
X25862531Y-82081524D02*
X25814912Y-81986286D01*
X25814912Y-81986286D02*
X25767292Y-81938667D01*
X25767292Y-81938667D02*
X25672054Y-81891048D01*
X25672054Y-81891048D02*
X25386340Y-81891048D01*
X25386340Y-81891048D02*
X25291102Y-81938667D01*
X25291102Y-81938667D02*
X25243483Y-81986286D01*
X25243483Y-81986286D02*
X25195864Y-82081524D01*
X25195864Y-82081524D02*
X25195864Y-82224381D01*
X25195864Y-82224381D02*
X25243483Y-82319619D01*
X25243483Y-82319619D02*
X25291102Y-82367238D01*
X25291102Y-82367238D02*
X25386340Y-82414857D01*
X25386340Y-82414857D02*
X25672054Y-82414857D01*
X25672054Y-82414857D02*
X25767292Y-82367238D01*
X25767292Y-82367238D02*
X25814912Y-82319619D01*
X25814912Y-82319619D02*
X25862531Y-82224381D01*
X25862531Y-82224381D02*
X25862531Y-82081524D01*
X25862531Y-83272000D02*
X25338721Y-83272000D01*
X25338721Y-83272000D02*
X25243483Y-83224381D01*
X25243483Y-83224381D02*
X25195864Y-83129143D01*
X25195864Y-83129143D02*
X25195864Y-82938667D01*
X25195864Y-82938667D02*
X25243483Y-82843429D01*
X25814912Y-83272000D02*
X25862531Y-83176762D01*
X25862531Y-83176762D02*
X25862531Y-82938667D01*
X25862531Y-82938667D02*
X25814912Y-82843429D01*
X25814912Y-82843429D02*
X25719673Y-82795810D01*
X25719673Y-82795810D02*
X25624435Y-82795810D01*
X25624435Y-82795810D02*
X25529197Y-82843429D01*
X25529197Y-82843429D02*
X25481578Y-82938667D01*
X25481578Y-82938667D02*
X25481578Y-83176762D01*
X25481578Y-83176762D02*
X25433959Y-83272000D01*
X25862531Y-83748191D02*
X25195864Y-83748191D01*
X25386340Y-83748191D02*
X25291102Y-83795810D01*
X25291102Y-83795810D02*
X25243483Y-83843429D01*
X25243483Y-83843429D02*
X25195864Y-83938667D01*
X25195864Y-83938667D02*
X25195864Y-84033905D01*
X25862531Y-84795810D02*
X24862531Y-84795810D01*
X25814912Y-84795810D02*
X25862531Y-84700572D01*
X25862531Y-84700572D02*
X25862531Y-84510096D01*
X25862531Y-84510096D02*
X25814912Y-84414858D01*
X25814912Y-84414858D02*
X25767292Y-84367239D01*
X25767292Y-84367239D02*
X25672054Y-84319620D01*
X25672054Y-84319620D02*
X25386340Y-84319620D01*
X25386340Y-84319620D02*
X25291102Y-84367239D01*
X25291102Y-84367239D02*
X25243483Y-84414858D01*
X25243483Y-84414858D02*
X25195864Y-84510096D01*
X25195864Y-84510096D02*
X25195864Y-84700572D01*
X25195864Y-84700572D02*
X25243483Y-84795810D01*
X27472475Y-78795809D02*
X26472475Y-78795809D01*
X26472475Y-78795809D02*
X26472475Y-79176761D01*
X26472475Y-79176761D02*
X26520094Y-79271999D01*
X26520094Y-79271999D02*
X26567713Y-79319618D01*
X26567713Y-79319618D02*
X26662951Y-79367237D01*
X26662951Y-79367237D02*
X26805808Y-79367237D01*
X26805808Y-79367237D02*
X26901046Y-79319618D01*
X26901046Y-79319618D02*
X26948665Y-79271999D01*
X26948665Y-79271999D02*
X26996284Y-79176761D01*
X26996284Y-79176761D02*
X26996284Y-78795809D01*
X27472475Y-79938666D02*
X27424856Y-79843428D01*
X27424856Y-79843428D02*
X27377236Y-79795809D01*
X27377236Y-79795809D02*
X27281998Y-79748190D01*
X27281998Y-79748190D02*
X26996284Y-79748190D01*
X26996284Y-79748190D02*
X26901046Y-79795809D01*
X26901046Y-79795809D02*
X26853427Y-79843428D01*
X26853427Y-79843428D02*
X26805808Y-79938666D01*
X26805808Y-79938666D02*
X26805808Y-80081523D01*
X26805808Y-80081523D02*
X26853427Y-80176761D01*
X26853427Y-80176761D02*
X26901046Y-80224380D01*
X26901046Y-80224380D02*
X26996284Y-80271999D01*
X26996284Y-80271999D02*
X27281998Y-80271999D01*
X27281998Y-80271999D02*
X27377236Y-80224380D01*
X27377236Y-80224380D02*
X27424856Y-80176761D01*
X27424856Y-80176761D02*
X27472475Y-80081523D01*
X27472475Y-80081523D02*
X27472475Y-79938666D01*
X26805808Y-80605333D02*
X27472475Y-80795809D01*
X27472475Y-80795809D02*
X26996284Y-80986285D01*
X26996284Y-80986285D02*
X27472475Y-81176761D01*
X27472475Y-81176761D02*
X26805808Y-81367237D01*
X27424856Y-82129142D02*
X27472475Y-82033904D01*
X27472475Y-82033904D02*
X27472475Y-81843428D01*
X27472475Y-81843428D02*
X27424856Y-81748190D01*
X27424856Y-81748190D02*
X27329617Y-81700571D01*
X27329617Y-81700571D02*
X26948665Y-81700571D01*
X26948665Y-81700571D02*
X26853427Y-81748190D01*
X26853427Y-81748190D02*
X26805808Y-81843428D01*
X26805808Y-81843428D02*
X26805808Y-82033904D01*
X26805808Y-82033904D02*
X26853427Y-82129142D01*
X26853427Y-82129142D02*
X26948665Y-82176761D01*
X26948665Y-82176761D02*
X27043903Y-82176761D01*
X27043903Y-82176761D02*
X27139141Y-81700571D01*
X27472475Y-82605333D02*
X26805808Y-82605333D01*
X26996284Y-82605333D02*
X26901046Y-82652952D01*
X26901046Y-82652952D02*
X26853427Y-82700571D01*
X26853427Y-82700571D02*
X26805808Y-82795809D01*
X26805808Y-82795809D02*
X26805808Y-82891047D01*
X29034800Y-78486285D02*
X29082419Y-78629142D01*
X29082419Y-78629142D02*
X29082419Y-78867237D01*
X29082419Y-78867237D02*
X29034800Y-78962475D01*
X29034800Y-78962475D02*
X28987180Y-79010094D01*
X28987180Y-79010094D02*
X28891942Y-79057713D01*
X28891942Y-79057713D02*
X28796704Y-79057713D01*
X28796704Y-79057713D02*
X28701466Y-79010094D01*
X28701466Y-79010094D02*
X28653847Y-78962475D01*
X28653847Y-78962475D02*
X28606228Y-78867237D01*
X28606228Y-78867237D02*
X28558609Y-78676761D01*
X28558609Y-78676761D02*
X28510990Y-78581523D01*
X28510990Y-78581523D02*
X28463371Y-78533904D01*
X28463371Y-78533904D02*
X28368133Y-78486285D01*
X28368133Y-78486285D02*
X28272895Y-78486285D01*
X28272895Y-78486285D02*
X28177657Y-78533904D01*
X28177657Y-78533904D02*
X28130038Y-78581523D01*
X28130038Y-78581523D02*
X28082419Y-78676761D01*
X28082419Y-78676761D02*
X28082419Y-78914856D01*
X28082419Y-78914856D02*
X28130038Y-79057713D01*
X28415752Y-79914856D02*
X29082419Y-79914856D01*
X28415752Y-79486285D02*
X28939561Y-79486285D01*
X28939561Y-79486285D02*
X29034800Y-79533904D01*
X29034800Y-79533904D02*
X29082419Y-79629142D01*
X29082419Y-79629142D02*
X29082419Y-79771999D01*
X29082419Y-79771999D02*
X29034800Y-79867237D01*
X29034800Y-79867237D02*
X28987180Y-79914856D01*
X28415752Y-80391047D02*
X29415752Y-80391047D01*
X28463371Y-80391047D02*
X28415752Y-80486285D01*
X28415752Y-80486285D02*
X28415752Y-80676761D01*
X28415752Y-80676761D02*
X28463371Y-80771999D01*
X28463371Y-80771999D02*
X28510990Y-80819618D01*
X28510990Y-80819618D02*
X28606228Y-80867237D01*
X28606228Y-80867237D02*
X28891942Y-80867237D01*
X28891942Y-80867237D02*
X28987180Y-80819618D01*
X28987180Y-80819618D02*
X29034800Y-80771999D01*
X29034800Y-80771999D02*
X29082419Y-80676761D01*
X29082419Y-80676761D02*
X29082419Y-80486285D01*
X29082419Y-80486285D02*
X29034800Y-80391047D01*
X28415752Y-81295809D02*
X29415752Y-81295809D01*
X28463371Y-81295809D02*
X28415752Y-81391047D01*
X28415752Y-81391047D02*
X28415752Y-81581523D01*
X28415752Y-81581523D02*
X28463371Y-81676761D01*
X28463371Y-81676761D02*
X28510990Y-81724380D01*
X28510990Y-81724380D02*
X28606228Y-81771999D01*
X28606228Y-81771999D02*
X28891942Y-81771999D01*
X28891942Y-81771999D02*
X28987180Y-81724380D01*
X28987180Y-81724380D02*
X29034800Y-81676761D01*
X29034800Y-81676761D02*
X29082419Y-81581523D01*
X29082419Y-81581523D02*
X29082419Y-81391047D01*
X29082419Y-81391047D02*
X29034800Y-81295809D01*
X29082419Y-82343428D02*
X29034800Y-82248190D01*
X29034800Y-82248190D02*
X28939561Y-82200571D01*
X28939561Y-82200571D02*
X28082419Y-82200571D01*
X28415752Y-82629143D02*
X29082419Y-82867238D01*
X28415752Y-83105333D02*
X29082419Y-82867238D01*
X29082419Y-82867238D02*
X29320514Y-82772000D01*
X29320514Y-82772000D02*
X29368133Y-82724381D01*
X29368133Y-82724381D02*
X29415752Y-82629143D01*
D11*
%TO.C,REF\u002A\u002A*%
X45201877Y-93596614D02*
X45216647Y-93620327D01*
X45238227Y-93646978D01*
X45559773Y-93646978D01*
X45653830Y-93646893D01*
X45727932Y-93646529D01*
X45784704Y-93645724D01*
X45826768Y-93644313D01*
X45856748Y-93642133D01*
X45877267Y-93639021D01*
X45890949Y-93634814D01*
X45900416Y-93629348D01*
X45905082Y-93625472D01*
X45925575Y-93594034D01*
X45924739Y-93558233D01*
X45907264Y-93526873D01*
X45885684Y-93500222D01*
X45238227Y-93500222D01*
X45216647Y-93526873D01*
X45200949Y-93552594D01*
X45195067Y-93573600D01*
X45201877Y-93596614D01*
G36*
X45907264Y-93526873D02*
G01*
X45924739Y-93558233D01*
X45925575Y-93594034D01*
X45905082Y-93625472D01*
X45900416Y-93629348D01*
X45890949Y-93634814D01*
X45877267Y-93639021D01*
X45856748Y-93642133D01*
X45826768Y-93644313D01*
X45784704Y-93645724D01*
X45727932Y-93646529D01*
X45653830Y-93646893D01*
X45559773Y-93646978D01*
X45238227Y-93646978D01*
X45216647Y-93620327D01*
X45201877Y-93596614D01*
X45195067Y-93573600D01*
X45200949Y-93552594D01*
X45216647Y-93526873D01*
X45238227Y-93500222D01*
X45885684Y-93500222D01*
X45907264Y-93526873D01*
G37*
X45217645Y-86484178D02*
X45225218Y-86490758D01*
X45234987Y-86495921D01*
X45249571Y-86499836D01*
X45271585Y-86502676D01*
X45303648Y-86504613D01*
X45348375Y-86505817D01*
X45408385Y-86506461D01*
X45486294Y-86506716D01*
X45561956Y-86506755D01*
X45655802Y-86506686D01*
X45729689Y-86506362D01*
X45786232Y-86505614D01*
X45828049Y-86504268D01*
X45857757Y-86502154D01*
X45877973Y-86499100D01*
X45891314Y-86494934D01*
X45900398Y-86489484D01*
X45906267Y-86484178D01*
X45925947Y-86451174D01*
X45924181Y-86416009D01*
X45902717Y-86384545D01*
X45894337Y-86377316D01*
X45884614Y-86371666D01*
X45870861Y-86367401D01*
X45850389Y-86364327D01*
X45820512Y-86362248D01*
X45778541Y-86360970D01*
X45721789Y-86360299D01*
X45647567Y-86360041D01*
X45563537Y-86360000D01*
X45250485Y-86360000D01*
X45222776Y-86387709D01*
X45199463Y-86421863D01*
X45198623Y-86454994D01*
X45217645Y-86484178D01*
G36*
X45647567Y-86360041D02*
G01*
X45721789Y-86360299D01*
X45778541Y-86360970D01*
X45820512Y-86362248D01*
X45850389Y-86364327D01*
X45870861Y-86367401D01*
X45884614Y-86371666D01*
X45894337Y-86377316D01*
X45902717Y-86384545D01*
X45924181Y-86416009D01*
X45925947Y-86451174D01*
X45906267Y-86484178D01*
X45900398Y-86489484D01*
X45891314Y-86494934D01*
X45877973Y-86499100D01*
X45857757Y-86502154D01*
X45828049Y-86504268D01*
X45786232Y-86505614D01*
X45729689Y-86506362D01*
X45655802Y-86506686D01*
X45561956Y-86506755D01*
X45486294Y-86506716D01*
X45408385Y-86506461D01*
X45348375Y-86505817D01*
X45303648Y-86504613D01*
X45271585Y-86502676D01*
X45249571Y-86499836D01*
X45234987Y-86495921D01*
X45225218Y-86490758D01*
X45217645Y-86484178D01*
X45198623Y-86454994D01*
X45199463Y-86421863D01*
X45222776Y-86387709D01*
X45250485Y-86360000D01*
X45563537Y-86360000D01*
X45647567Y-86360041D01*
G37*
X39952571Y-87134957D02*
X39976809Y-87231232D01*
X40019641Y-87317816D01*
X40079419Y-87392627D01*
X40154494Y-87453582D01*
X40243220Y-87498601D01*
X40339530Y-87524864D01*
X40436795Y-87530714D01*
X40530654Y-87515860D01*
X40618511Y-87482160D01*
X40697770Y-87431472D01*
X40765836Y-87365655D01*
X40820112Y-87286566D01*
X40858002Y-87196066D01*
X40870426Y-87144800D01*
X40877947Y-87100302D01*
X40880919Y-87066001D01*
X40879094Y-87033040D01*
X40872225Y-86992566D01*
X40865250Y-86959469D01*
X40833741Y-86866053D01*
X40782617Y-86782381D01*
X40713429Y-86710335D01*
X40627728Y-86651800D01*
X40600489Y-86637852D01*
X40564122Y-86621414D01*
X40533582Y-86611106D01*
X40501450Y-86605540D01*
X40460307Y-86603331D01*
X40414222Y-86603052D01*
X40329865Y-86607139D01*
X40260586Y-86620554D01*
X40199961Y-86645744D01*
X40141567Y-86685154D01*
X40097302Y-86723702D01*
X40031484Y-86795594D01*
X39986053Y-86870687D01*
X39958850Y-86953438D01*
X39948576Y-87031072D01*
X39952571Y-87134957D01*
G36*
X40460307Y-86603331D02*
G01*
X40501450Y-86605540D01*
X40533582Y-86611106D01*
X40564122Y-86621414D01*
X40600489Y-86637852D01*
X40627728Y-86651800D01*
X40713429Y-86710335D01*
X40782617Y-86782381D01*
X40833741Y-86866053D01*
X40865250Y-86959469D01*
X40872225Y-86992566D01*
X40879094Y-87033040D01*
X40880919Y-87066001D01*
X40877947Y-87100302D01*
X40870426Y-87144800D01*
X40858002Y-87196066D01*
X40820112Y-87286566D01*
X40765836Y-87365655D01*
X40697770Y-87431472D01*
X40618511Y-87482160D01*
X40530654Y-87515860D01*
X40436795Y-87530714D01*
X40339530Y-87524864D01*
X40243220Y-87498601D01*
X40154494Y-87453582D01*
X40079419Y-87392627D01*
X40019641Y-87317816D01*
X39976809Y-87231232D01*
X39952571Y-87134957D01*
X39948576Y-87031072D01*
X39958850Y-86953438D01*
X39986053Y-86870687D01*
X40031484Y-86795594D01*
X40097302Y-86723702D01*
X40141567Y-86685154D01*
X40199961Y-86645744D01*
X40260586Y-86620554D01*
X40329865Y-86607139D01*
X40414222Y-86603052D01*
X40460307Y-86603331D01*
G37*
X45195163Y-94371065D02*
X45195542Y-94449772D01*
X45196333Y-94510863D01*
X45197670Y-94556817D01*
X45199683Y-94590114D01*
X45202506Y-94613236D01*
X45206269Y-94628662D01*
X45211105Y-94638871D01*
X45214822Y-94643813D01*
X45247358Y-94669457D01*
X45281138Y-94672559D01*
X45311826Y-94656711D01*
X45324089Y-94646348D01*
X45332450Y-94635196D01*
X45337657Y-94619035D01*
X45340457Y-94593642D01*
X45341596Y-94554798D01*
X45341821Y-94498280D01*
X45341822Y-94487180D01*
X45341822Y-94341244D01*
X45612756Y-94341244D01*
X45698154Y-94341148D01*
X45763864Y-94340711D01*
X45812774Y-94339712D01*
X45847773Y-94337928D01*
X45871749Y-94335137D01*
X45887593Y-94331117D01*
X45898191Y-94325645D01*
X45906267Y-94318666D01*
X45926112Y-94285734D01*
X45924548Y-94251354D01*
X45901906Y-94220176D01*
X45899100Y-94217886D01*
X45888492Y-94210429D01*
X45876081Y-94204747D01*
X45858850Y-94200601D01*
X45833784Y-94197750D01*
X45797867Y-94195954D01*
X45748083Y-94194972D01*
X45681417Y-94194564D01*
X45605589Y-94194489D01*
X45341822Y-94194489D01*
X45341822Y-94055127D01*
X45341418Y-93995322D01*
X45339840Y-93953918D01*
X45336547Y-93926748D01*
X45330992Y-93909646D01*
X45322631Y-93898443D01*
X45321178Y-93897083D01*
X45287939Y-93880725D01*
X45250362Y-93882172D01*
X45217645Y-93900978D01*
X45211298Y-93908250D01*
X45206266Y-93917627D01*
X45202396Y-93931609D01*
X45199537Y-93952696D01*
X45197535Y-93983389D01*
X45196239Y-94026189D01*
X45195498Y-94083595D01*
X45195158Y-94158110D01*
X45195068Y-94252233D01*
X45195067Y-94272260D01*
X45195163Y-94371065D01*
G36*
X45321178Y-93897083D02*
G01*
X45322631Y-93898443D01*
X45330992Y-93909646D01*
X45336547Y-93926748D01*
X45339840Y-93953918D01*
X45341418Y-93995322D01*
X45341822Y-94055127D01*
X45341822Y-94194489D01*
X45605589Y-94194489D01*
X45681417Y-94194564D01*
X45748083Y-94194972D01*
X45797867Y-94195954D01*
X45833784Y-94197750D01*
X45858850Y-94200601D01*
X45876081Y-94204747D01*
X45888492Y-94210429D01*
X45899100Y-94217886D01*
X45901906Y-94220176D01*
X45924548Y-94251354D01*
X45926112Y-94285734D01*
X45906267Y-94318666D01*
X45898191Y-94325645D01*
X45887593Y-94331117D01*
X45871749Y-94335137D01*
X45847773Y-94337928D01*
X45812774Y-94339712D01*
X45763864Y-94340711D01*
X45698154Y-94341148D01*
X45612756Y-94341244D01*
X45341822Y-94341244D01*
X45341822Y-94487180D01*
X45341821Y-94498280D01*
X45341596Y-94554798D01*
X45340457Y-94593642D01*
X45337657Y-94619035D01*
X45332450Y-94635196D01*
X45324089Y-94646348D01*
X45311826Y-94656711D01*
X45281138Y-94672559D01*
X45247358Y-94669457D01*
X45214822Y-94643813D01*
X45211105Y-94638871D01*
X45206269Y-94628662D01*
X45202506Y-94613236D01*
X45199683Y-94590114D01*
X45197670Y-94556817D01*
X45196333Y-94510863D01*
X45195542Y-94449772D01*
X45195163Y-94371065D01*
X45195067Y-94272260D01*
X45195068Y-94252233D01*
X45195158Y-94158110D01*
X45195498Y-94083595D01*
X45196239Y-94026189D01*
X45197535Y-93983389D01*
X45199537Y-93952696D01*
X45202396Y-93931609D01*
X45206266Y-93917627D01*
X45211298Y-93908250D01*
X45217645Y-93900978D01*
X45250362Y-93882172D01*
X45287939Y-93880725D01*
X45321178Y-93897083D01*
G37*
X45200533Y-95636823D02*
X45222776Y-95668202D01*
X45250485Y-95695911D01*
X45559920Y-95695911D01*
X45651799Y-95695838D01*
X45723840Y-95695495D01*
X45778780Y-95694692D01*
X45819360Y-95693241D01*
X45848317Y-95690952D01*
X45868391Y-95687636D01*
X45882321Y-95683105D01*
X45892845Y-95677169D01*
X45899100Y-95672514D01*
X45923673Y-95641783D01*
X45926341Y-95606496D01*
X45911271Y-95574245D01*
X45902374Y-95563588D01*
X45890557Y-95556464D01*
X45871526Y-95552167D01*
X45840992Y-95549991D01*
X45794662Y-95549228D01*
X45758871Y-95549155D01*
X45624045Y-95549155D01*
X45624045Y-95052444D01*
X45746700Y-95052444D01*
X45802787Y-95051931D01*
X45841333Y-95049876D01*
X45867361Y-95045508D01*
X45885897Y-95038056D01*
X45899100Y-95029047D01*
X45923604Y-94998144D01*
X45926506Y-94963196D01*
X45909089Y-94929738D01*
X45899959Y-94920604D01*
X45887855Y-94914152D01*
X45869001Y-94909897D01*
X45839620Y-94907352D01*
X45795937Y-94906029D01*
X45734175Y-94905443D01*
X45720000Y-94905375D01*
X45603631Y-94904891D01*
X45507727Y-94904641D01*
X45430177Y-94904723D01*
X45368869Y-94905231D01*
X45321690Y-94906262D01*
X45286530Y-94907913D01*
X45261276Y-94910279D01*
X45243817Y-94913457D01*
X45232041Y-94917544D01*
X45223835Y-94922634D01*
X45217645Y-94928266D01*
X45197844Y-94960128D01*
X45200533Y-94993357D01*
X45222776Y-95024735D01*
X45237126Y-95037433D01*
X45252978Y-95045526D01*
X45275554Y-95050042D01*
X45310078Y-95052006D01*
X45361776Y-95052444D01*
X45477289Y-95052444D01*
X45477289Y-95549155D01*
X45358756Y-95549155D01*
X45304148Y-95549662D01*
X45267275Y-95551698D01*
X45243307Y-95556035D01*
X45227415Y-95563447D01*
X45217645Y-95571733D01*
X45197844Y-95603594D01*
X45200533Y-95636823D01*
G36*
X45603631Y-94904891D02*
G01*
X45720000Y-94905375D01*
X45734175Y-94905443D01*
X45795937Y-94906029D01*
X45839620Y-94907352D01*
X45869001Y-94909897D01*
X45887855Y-94914152D01*
X45899959Y-94920604D01*
X45909089Y-94929738D01*
X45926506Y-94963196D01*
X45923604Y-94998144D01*
X45899100Y-95029047D01*
X45885897Y-95038056D01*
X45867361Y-95045508D01*
X45841333Y-95049876D01*
X45802787Y-95051931D01*
X45746700Y-95052444D01*
X45624045Y-95052444D01*
X45624045Y-95549155D01*
X45758871Y-95549155D01*
X45794662Y-95549228D01*
X45840992Y-95549991D01*
X45871526Y-95552167D01*
X45890557Y-95556464D01*
X45902374Y-95563588D01*
X45911271Y-95574245D01*
X45926341Y-95606496D01*
X45923673Y-95641783D01*
X45899100Y-95672514D01*
X45892845Y-95677169D01*
X45882321Y-95683105D01*
X45868391Y-95687636D01*
X45848317Y-95690952D01*
X45819360Y-95693241D01*
X45778780Y-95694692D01*
X45723840Y-95695495D01*
X45651799Y-95695838D01*
X45559920Y-95695911D01*
X45250485Y-95695911D01*
X45222776Y-95668202D01*
X45200533Y-95636823D01*
X45197844Y-95603594D01*
X45217645Y-95571733D01*
X45227415Y-95563447D01*
X45243307Y-95556035D01*
X45267275Y-95551698D01*
X45304148Y-95549662D01*
X45358756Y-95549155D01*
X45477289Y-95549155D01*
X45477289Y-95052444D01*
X45361776Y-95052444D01*
X45310078Y-95052006D01*
X45275554Y-95050042D01*
X45252978Y-95045526D01*
X45237126Y-95037433D01*
X45222776Y-95024735D01*
X45200533Y-94993357D01*
X45197844Y-94960128D01*
X45217645Y-94928266D01*
X45223835Y-94922634D01*
X45232041Y-94917544D01*
X45243817Y-94913457D01*
X45261276Y-94910279D01*
X45286530Y-94907913D01*
X45321690Y-94906262D01*
X45368869Y-94905231D01*
X45430177Y-94904723D01*
X45507727Y-94904641D01*
X45603631Y-94904891D01*
G37*
X45195275Y-90426309D02*
X45199636Y-90555288D01*
X45212861Y-90664991D01*
X45235741Y-90757226D01*
X45269070Y-90833802D01*
X45313638Y-90896527D01*
X45370236Y-90947212D01*
X45439658Y-90987663D01*
X45441351Y-90988459D01*
X45503483Y-91012601D01*
X45558509Y-91021203D01*
X45613887Y-91014231D01*
X45677073Y-90991654D01*
X45686689Y-90987372D01*
X45742966Y-90958172D01*
X45786451Y-90925356D01*
X45823417Y-90883002D01*
X45860135Y-90825190D01*
X45862052Y-90821831D01*
X45886227Y-90771504D01*
X45904282Y-90714621D01*
X45916839Y-90647527D01*
X45924522Y-90566565D01*
X45927953Y-90468082D01*
X45928251Y-90433286D01*
X45928845Y-90267594D01*
X45899100Y-90244197D01*
X45889319Y-90237257D01*
X45877897Y-90231842D01*
X45862095Y-90227765D01*
X45839175Y-90224837D01*
X45806396Y-90222867D01*
X45782089Y-90222225D01*
X45782089Y-90378844D01*
X45782089Y-90472726D01*
X45780483Y-90527664D01*
X45776255Y-90584060D01*
X45770292Y-90630345D01*
X45769790Y-90633139D01*
X45747736Y-90715348D01*
X45714600Y-90779114D01*
X45668847Y-90826452D01*
X45608939Y-90859382D01*
X45593061Y-90865108D01*
X45568333Y-90870721D01*
X45543902Y-90868291D01*
X45511400Y-90856467D01*
X45495434Y-90849340D01*
X45453006Y-90826000D01*
X45423240Y-90797880D01*
X45402511Y-90766940D01*
X45375537Y-90704966D01*
X45355998Y-90625651D01*
X45344746Y-90533253D01*
X45342270Y-90466333D01*
X45341822Y-90378844D01*
X45782089Y-90378844D01*
X45782089Y-90222225D01*
X45761021Y-90221668D01*
X45700311Y-90221050D01*
X45621526Y-90220825D01*
X45559920Y-90220800D01*
X45250485Y-90220800D01*
X45222776Y-90248509D01*
X45211544Y-90260806D01*
X45203853Y-90274103D01*
X45199040Y-90292672D01*
X45196446Y-90320786D01*
X45195410Y-90362717D01*
X45195270Y-90422737D01*
X45195275Y-90426309D01*
G36*
X45621526Y-90220825D02*
G01*
X45700311Y-90221050D01*
X45761021Y-90221668D01*
X45782089Y-90222225D01*
X45806396Y-90222867D01*
X45839175Y-90224837D01*
X45862095Y-90227765D01*
X45877897Y-90231842D01*
X45889319Y-90237257D01*
X45899100Y-90244197D01*
X45928845Y-90267594D01*
X45928251Y-90433286D01*
X45927953Y-90468082D01*
X45924522Y-90566565D01*
X45916839Y-90647527D01*
X45904282Y-90714621D01*
X45886227Y-90771504D01*
X45862052Y-90821831D01*
X45860135Y-90825190D01*
X45823417Y-90883002D01*
X45786451Y-90925356D01*
X45742966Y-90958172D01*
X45686689Y-90987372D01*
X45677073Y-90991654D01*
X45613887Y-91014231D01*
X45558509Y-91021203D01*
X45503483Y-91012601D01*
X45441351Y-90988459D01*
X45439658Y-90987663D01*
X45370236Y-90947212D01*
X45313638Y-90896527D01*
X45269070Y-90833802D01*
X45235741Y-90757226D01*
X45212861Y-90664991D01*
X45199636Y-90555288D01*
X45195275Y-90426309D01*
X45195270Y-90422737D01*
X45195372Y-90378844D01*
X45341822Y-90378844D01*
X45342270Y-90466333D01*
X45344746Y-90533253D01*
X45355998Y-90625651D01*
X45375537Y-90704966D01*
X45402511Y-90766940D01*
X45423240Y-90797880D01*
X45453006Y-90826000D01*
X45495434Y-90849340D01*
X45511400Y-90856467D01*
X45543902Y-90868291D01*
X45568333Y-90870721D01*
X45593061Y-90865108D01*
X45608939Y-90859382D01*
X45668847Y-90826452D01*
X45714600Y-90779114D01*
X45747736Y-90715348D01*
X45769790Y-90633139D01*
X45770292Y-90630345D01*
X45776255Y-90584060D01*
X45780483Y-90527664D01*
X45782089Y-90472726D01*
X45782089Y-90378844D01*
X45341822Y-90378844D01*
X45195372Y-90378844D01*
X45195410Y-90362717D01*
X45196446Y-90320786D01*
X45199040Y-90292672D01*
X45203853Y-90274103D01*
X45211544Y-90260806D01*
X45222776Y-90248509D01*
X45250485Y-90220800D01*
X45559920Y-90220800D01*
X45621526Y-90220825D01*
G37*
X45195066Y-83286629D02*
X45195467Y-83326111D01*
X45198259Y-83441800D01*
X45206550Y-83538689D01*
X45221232Y-83620081D01*
X45243193Y-83689277D01*
X45273322Y-83749580D01*
X45312510Y-83804292D01*
X45329532Y-83823833D01*
X45369363Y-83856250D01*
X45423413Y-83885480D01*
X45483323Y-83908009D01*
X45540739Y-83920321D01*
X45561956Y-83921600D01*
X45620769Y-83913583D01*
X45685013Y-83892101D01*
X45745821Y-83861001D01*
X45794330Y-83824134D01*
X45800182Y-83818146D01*
X45841321Y-83767421D01*
X45873435Y-83711875D01*
X45897365Y-83648304D01*
X45913953Y-83573506D01*
X45924041Y-83484278D01*
X45928469Y-83377418D01*
X45928845Y-83328472D01*
X45928545Y-83266238D01*
X45927292Y-83222472D01*
X45924554Y-83193069D01*
X45919801Y-83173921D01*
X45912501Y-83160923D01*
X45906267Y-83153955D01*
X45898694Y-83147374D01*
X45888924Y-83142212D01*
X45874340Y-83138297D01*
X45852326Y-83135457D01*
X45820264Y-83133520D01*
X45775536Y-83132316D01*
X45715526Y-83131672D01*
X45637617Y-83131417D01*
X45561956Y-83131378D01*
X45461041Y-83131130D01*
X45380427Y-83131183D01*
X45341822Y-83132143D01*
X45341822Y-83278133D01*
X45782089Y-83278133D01*
X45782004Y-83371266D01*
X45780396Y-83427307D01*
X45776256Y-83486001D01*
X45770464Y-83534972D01*
X45770226Y-83536462D01*
X45751090Y-83615608D01*
X45721287Y-83676998D01*
X45678878Y-83723695D01*
X45632961Y-83753365D01*
X45582026Y-83771647D01*
X45534200Y-83770229D01*
X45482933Y-83749012D01*
X45429899Y-83707511D01*
X45390600Y-83650002D01*
X45364331Y-83575250D01*
X45355035Y-83525292D01*
X45348507Y-83468584D01*
X45343782Y-83408481D01*
X45341817Y-83357361D01*
X45341808Y-83354333D01*
X45341822Y-83278133D01*
X45341822Y-83132143D01*
X45317851Y-83132740D01*
X45271055Y-83137002D01*
X45237778Y-83145170D01*
X45215759Y-83158444D01*
X45202739Y-83178026D01*
X45196457Y-83205117D01*
X45194653Y-83240918D01*
X45195066Y-83286629D01*
G36*
X45561956Y-83131378D02*
G01*
X45637617Y-83131417D01*
X45715526Y-83131672D01*
X45775536Y-83132316D01*
X45820264Y-83133520D01*
X45852326Y-83135457D01*
X45874340Y-83138297D01*
X45888924Y-83142212D01*
X45898694Y-83147374D01*
X45906267Y-83153955D01*
X45912501Y-83160923D01*
X45919801Y-83173921D01*
X45924554Y-83193069D01*
X45927292Y-83222472D01*
X45928545Y-83266238D01*
X45928845Y-83328472D01*
X45928469Y-83377418D01*
X45924041Y-83484278D01*
X45913953Y-83573506D01*
X45897365Y-83648304D01*
X45873435Y-83711875D01*
X45841321Y-83767421D01*
X45800182Y-83818146D01*
X45794330Y-83824134D01*
X45745821Y-83861001D01*
X45685013Y-83892101D01*
X45620769Y-83913583D01*
X45561956Y-83921600D01*
X45540739Y-83920321D01*
X45483323Y-83908009D01*
X45423413Y-83885480D01*
X45369363Y-83856250D01*
X45329532Y-83823833D01*
X45312510Y-83804292D01*
X45273322Y-83749580D01*
X45243193Y-83689277D01*
X45221232Y-83620081D01*
X45206550Y-83538689D01*
X45198259Y-83441800D01*
X45196148Y-83354333D01*
X45341808Y-83354333D01*
X45341817Y-83357361D01*
X45343782Y-83408481D01*
X45348507Y-83468584D01*
X45355035Y-83525292D01*
X45364331Y-83575250D01*
X45390600Y-83650002D01*
X45429899Y-83707511D01*
X45482933Y-83749012D01*
X45534200Y-83770229D01*
X45582026Y-83771647D01*
X45632961Y-83753365D01*
X45678878Y-83723695D01*
X45721287Y-83676998D01*
X45751090Y-83615608D01*
X45770226Y-83536462D01*
X45770464Y-83534972D01*
X45776256Y-83486001D01*
X45780396Y-83427307D01*
X45782004Y-83371266D01*
X45782089Y-83278133D01*
X45341822Y-83278133D01*
X45341808Y-83354333D01*
X45196148Y-83354333D01*
X45195467Y-83326111D01*
X45195066Y-83286629D01*
X45194653Y-83240918D01*
X45196457Y-83205117D01*
X45202739Y-83178026D01*
X45215759Y-83158444D01*
X45237778Y-83145170D01*
X45271055Y-83137002D01*
X45317851Y-83132740D01*
X45341822Y-83132143D01*
X45380427Y-83131183D01*
X45461041Y-83131130D01*
X45561956Y-83131378D01*
G37*
X45199448Y-88107886D02*
X45213273Y-88131452D01*
X45235881Y-88162265D01*
X45268338Y-88201922D01*
X45311708Y-88252020D01*
X45367058Y-88314157D01*
X45435451Y-88389928D01*
X45514084Y-88476666D01*
X45677878Y-88657289D01*
X45458029Y-88662933D01*
X45382351Y-88664971D01*
X45325994Y-88666937D01*
X45285706Y-88669266D01*
X45258235Y-88672394D01*
X45240329Y-88676755D01*
X45228737Y-88682784D01*
X45220208Y-88690916D01*
X45216623Y-88695228D01*
X45197670Y-88729759D01*
X45200441Y-88762617D01*
X45216633Y-88788682D01*
X45238199Y-88815333D01*
X45553151Y-88818648D01*
X45645779Y-88819565D01*
X45718544Y-88820032D01*
X45774161Y-88819887D01*
X45815342Y-88818968D01*
X45844803Y-88817113D01*
X45865255Y-88814161D01*
X45879413Y-88809950D01*
X45889991Y-88804318D01*
X45898474Y-88798073D01*
X45914207Y-88784561D01*
X45924636Y-88771117D01*
X45928639Y-88755876D01*
X45925094Y-88736974D01*
X45912879Y-88712545D01*
X45890871Y-88680727D01*
X45857949Y-88639652D01*
X45812991Y-88587458D01*
X45754875Y-88522278D01*
X45688099Y-88448444D01*
X45447458Y-88183155D01*
X45666589Y-88177511D01*
X45742128Y-88175469D01*
X45798354Y-88173498D01*
X45838524Y-88171161D01*
X45865896Y-88168019D01*
X45883728Y-88163636D01*
X45895279Y-88157576D01*
X45903807Y-88149400D01*
X45907282Y-88145216D01*
X45926372Y-88108235D01*
X45923493Y-88073292D01*
X45899100Y-88042864D01*
X45889286Y-88035903D01*
X45877826Y-88030477D01*
X45861968Y-88026397D01*
X45838963Y-88023471D01*
X45806062Y-88021508D01*
X45760516Y-88020317D01*
X45699573Y-88019708D01*
X45620486Y-88019489D01*
X45561956Y-88019466D01*
X45470407Y-88019540D01*
X45398687Y-88019887D01*
X45344045Y-88020699D01*
X45303732Y-88022167D01*
X45274998Y-88024481D01*
X45255093Y-88027833D01*
X45241268Y-88032412D01*
X45230772Y-88038411D01*
X45224811Y-88042864D01*
X45210691Y-88054150D01*
X45200029Y-88064699D01*
X45193892Y-88076107D01*
X45193343Y-88089970D01*
X45199448Y-88107886D01*
G36*
X45620486Y-88019489D02*
G01*
X45699573Y-88019708D01*
X45760516Y-88020317D01*
X45806062Y-88021508D01*
X45838963Y-88023471D01*
X45861968Y-88026397D01*
X45877826Y-88030477D01*
X45889286Y-88035903D01*
X45899100Y-88042864D01*
X45923493Y-88073292D01*
X45926372Y-88108235D01*
X45907282Y-88145216D01*
X45903807Y-88149400D01*
X45895279Y-88157576D01*
X45883728Y-88163636D01*
X45865896Y-88168019D01*
X45838524Y-88171161D01*
X45798354Y-88173498D01*
X45742128Y-88175469D01*
X45666589Y-88177511D01*
X45447458Y-88183155D01*
X45688099Y-88448444D01*
X45754875Y-88522278D01*
X45812991Y-88587458D01*
X45857949Y-88639652D01*
X45890871Y-88680727D01*
X45912879Y-88712545D01*
X45925094Y-88736974D01*
X45928639Y-88755876D01*
X45924636Y-88771117D01*
X45914207Y-88784561D01*
X45898474Y-88798073D01*
X45889991Y-88804318D01*
X45879413Y-88809950D01*
X45865255Y-88814161D01*
X45844803Y-88817113D01*
X45815342Y-88818968D01*
X45774161Y-88819887D01*
X45718544Y-88820032D01*
X45645779Y-88819565D01*
X45553151Y-88818648D01*
X45238199Y-88815333D01*
X45216633Y-88788682D01*
X45200441Y-88762617D01*
X45197670Y-88729759D01*
X45216623Y-88695228D01*
X45220208Y-88690916D01*
X45228737Y-88682784D01*
X45240329Y-88676755D01*
X45258235Y-88672394D01*
X45285706Y-88669266D01*
X45325994Y-88666937D01*
X45382351Y-88664971D01*
X45458029Y-88662933D01*
X45677878Y-88657289D01*
X45514084Y-88476666D01*
X45435451Y-88389928D01*
X45367058Y-88314157D01*
X45311708Y-88252020D01*
X45268338Y-88201922D01*
X45235881Y-88162265D01*
X45213273Y-88131452D01*
X45199448Y-88107886D01*
X45193343Y-88089970D01*
X45193892Y-88076107D01*
X45200029Y-88064699D01*
X45210691Y-88054150D01*
X45224811Y-88042864D01*
X45230772Y-88038411D01*
X45241268Y-88032412D01*
X45255093Y-88027833D01*
X45274998Y-88024481D01*
X45303732Y-88022167D01*
X45344045Y-88020699D01*
X45398687Y-88019887D01*
X45470407Y-88019540D01*
X45561956Y-88019466D01*
X45620486Y-88019489D01*
G37*
X45200599Y-87457919D02*
X45212095Y-87526435D01*
X45229967Y-87579057D01*
X45253499Y-87613292D01*
X45266924Y-87622621D01*
X45298148Y-87632107D01*
X45326395Y-87625723D01*
X45353182Y-87605570D01*
X45365713Y-87574255D01*
X45364696Y-87528817D01*
X45357906Y-87493674D01*
X45344971Y-87415581D01*
X45343742Y-87335774D01*
X45354241Y-87246445D01*
X45358690Y-87221771D01*
X45382108Y-87138709D01*
X45416945Y-87073727D01*
X45462604Y-87027539D01*
X45518494Y-87000855D01*
X45547388Y-86995337D01*
X45606012Y-86998949D01*
X45657879Y-87022271D01*
X45701978Y-87063176D01*
X45737299Y-87119541D01*
X45762829Y-87189240D01*
X45777559Y-87270148D01*
X45780478Y-87360140D01*
X45770575Y-87457090D01*
X45769641Y-87462564D01*
X45762459Y-87501125D01*
X45755521Y-87522506D01*
X45745227Y-87531773D01*
X45727976Y-87533994D01*
X45718841Y-87534044D01*
X45680489Y-87534044D01*
X45680489Y-87465569D01*
X45676347Y-87405100D01*
X45663147Y-87363835D01*
X45639730Y-87339825D01*
X45604936Y-87331123D01*
X45600394Y-87331017D01*
X45570654Y-87336108D01*
X45549419Y-87353567D01*
X45535366Y-87386061D01*
X45527173Y-87436257D01*
X45524161Y-87484877D01*
X45522433Y-87555544D01*
X45525070Y-87606802D01*
X45534800Y-87641761D01*
X45554353Y-87663530D01*
X45586456Y-87675220D01*
X45633838Y-87679940D01*
X45696071Y-87680800D01*
X45765535Y-87679391D01*
X45812786Y-87675152D01*
X45838012Y-87668064D01*
X45839988Y-87666689D01*
X45871508Y-87627772D01*
X45896470Y-87570714D01*
X45914340Y-87499131D01*
X45924586Y-87416642D01*
X45926673Y-87326861D01*
X45920068Y-87233408D01*
X45911956Y-87178444D01*
X45887554Y-87092234D01*
X45847662Y-87012108D01*
X45795887Y-86945023D01*
X45785539Y-86934827D01*
X45742035Y-86901698D01*
X45688118Y-86871806D01*
X45631592Y-86848643D01*
X45580259Y-86835702D01*
X45560544Y-86834142D01*
X45519419Y-86840782D01*
X45468252Y-86858432D01*
X45414394Y-86883703D01*
X45365195Y-86913211D01*
X45332334Y-86939281D01*
X45283452Y-87000235D01*
X45244545Y-87079031D01*
X45216494Y-87172843D01*
X45200179Y-87278850D01*
X45196192Y-87376000D01*
X45200599Y-87457919D01*
G36*
X45580259Y-86835702D02*
G01*
X45631592Y-86848643D01*
X45688118Y-86871806D01*
X45742035Y-86901698D01*
X45785539Y-86934827D01*
X45795887Y-86945023D01*
X45847662Y-87012108D01*
X45887554Y-87092234D01*
X45911956Y-87178444D01*
X45920068Y-87233408D01*
X45926673Y-87326861D01*
X45924586Y-87416642D01*
X45914340Y-87499131D01*
X45896470Y-87570714D01*
X45871508Y-87627772D01*
X45839988Y-87666689D01*
X45838012Y-87668064D01*
X45812786Y-87675152D01*
X45765535Y-87679391D01*
X45696071Y-87680800D01*
X45633838Y-87679940D01*
X45586456Y-87675220D01*
X45554353Y-87663530D01*
X45534800Y-87641761D01*
X45525070Y-87606802D01*
X45522433Y-87555544D01*
X45524161Y-87484877D01*
X45527173Y-87436257D01*
X45535366Y-87386061D01*
X45549419Y-87353567D01*
X45570654Y-87336108D01*
X45600394Y-87331017D01*
X45604936Y-87331123D01*
X45639730Y-87339825D01*
X45663147Y-87363835D01*
X45676347Y-87405100D01*
X45680489Y-87465569D01*
X45680489Y-87534044D01*
X45718841Y-87534044D01*
X45727976Y-87533994D01*
X45745227Y-87531773D01*
X45755521Y-87522506D01*
X45762459Y-87501125D01*
X45769641Y-87462564D01*
X45770575Y-87457090D01*
X45780478Y-87360140D01*
X45777559Y-87270148D01*
X45762829Y-87189240D01*
X45737299Y-87119541D01*
X45701978Y-87063176D01*
X45657879Y-87022271D01*
X45606012Y-86998949D01*
X45547388Y-86995337D01*
X45518494Y-87000855D01*
X45462604Y-87027539D01*
X45416945Y-87073727D01*
X45382108Y-87138709D01*
X45358690Y-87221771D01*
X45354241Y-87246445D01*
X45343742Y-87335774D01*
X45344971Y-87415581D01*
X45357906Y-87493674D01*
X45364696Y-87528817D01*
X45365713Y-87574255D01*
X45353182Y-87605570D01*
X45326395Y-87625723D01*
X45298148Y-87632107D01*
X45266924Y-87622621D01*
X45253499Y-87613292D01*
X45229967Y-87579057D01*
X45212095Y-87526435D01*
X45200599Y-87457919D01*
X45196192Y-87376000D01*
X45200179Y-87278850D01*
X45216494Y-87172843D01*
X45244545Y-87079031D01*
X45283452Y-87000235D01*
X45332334Y-86939281D01*
X45365195Y-86913211D01*
X45414394Y-86883703D01*
X45468252Y-86858432D01*
X45519419Y-86840782D01*
X45560544Y-86834142D01*
X45580259Y-86835702D01*
G37*
X45195260Y-89638343D02*
X45196174Y-89714701D01*
X45198311Y-89773217D01*
X45202175Y-89816255D01*
X45208267Y-89846183D01*
X45217090Y-89865368D01*
X45229146Y-89876176D01*
X45244939Y-89880973D01*
X45264970Y-89882127D01*
X45267335Y-89882133D01*
X45289992Y-89881131D01*
X45307503Y-89876396D01*
X45320574Y-89865333D01*
X45329913Y-89845348D01*
X45336227Y-89813846D01*
X45340222Y-89768232D01*
X45342606Y-89705913D01*
X45344086Y-89624293D01*
X45344414Y-89599277D01*
X45347467Y-89357200D01*
X45412378Y-89353814D01*
X45477289Y-89350429D01*
X45477289Y-89518576D01*
X45477531Y-89584266D01*
X45478556Y-89631172D01*
X45480811Y-89663083D01*
X45484742Y-89683791D01*
X45490798Y-89697084D01*
X45499424Y-89706755D01*
X45499493Y-89706817D01*
X45533112Y-89724356D01*
X45569448Y-89723722D01*
X45600423Y-89705314D01*
X45603607Y-89701671D01*
X45611812Y-89688741D01*
X45617521Y-89671024D01*
X45621162Y-89644570D01*
X45623167Y-89605432D01*
X45623964Y-89549662D01*
X45624045Y-89513994D01*
X45624045Y-89351555D01*
X45782089Y-89351555D01*
X45782089Y-89598161D01*
X45782231Y-89679580D01*
X45782814Y-89741410D01*
X45784068Y-89786637D01*
X45786227Y-89818248D01*
X45789523Y-89839231D01*
X45794189Y-89852573D01*
X45800457Y-89861261D01*
X45802733Y-89863450D01*
X45834280Y-89879614D01*
X45870168Y-89880797D01*
X45901285Y-89867536D01*
X45911271Y-89857043D01*
X45916769Y-89846129D01*
X45921022Y-89829217D01*
X45924180Y-89803633D01*
X45926392Y-89766701D01*
X45927806Y-89715746D01*
X45928572Y-89648094D01*
X45928838Y-89561069D01*
X45928845Y-89541394D01*
X45928787Y-89452911D01*
X45928467Y-89384227D01*
X45927667Y-89332564D01*
X45926167Y-89295145D01*
X45923749Y-89269190D01*
X45920194Y-89251922D01*
X45915282Y-89240562D01*
X45908795Y-89232332D01*
X45904138Y-89227817D01*
X45895889Y-89221021D01*
X45885669Y-89215712D01*
X45870800Y-89211706D01*
X45848602Y-89208821D01*
X45816393Y-89206874D01*
X45771496Y-89205681D01*
X45711228Y-89205061D01*
X45632911Y-89204829D01*
X45566994Y-89204800D01*
X45474628Y-89204871D01*
X45402117Y-89205208D01*
X45346737Y-89205998D01*
X45305765Y-89207426D01*
X45276478Y-89209679D01*
X45256153Y-89212943D01*
X45242066Y-89217404D01*
X45231495Y-89223248D01*
X45224811Y-89228197D01*
X45195067Y-89251594D01*
X45195067Y-89541774D01*
X45195260Y-89638343D01*
G36*
X45632911Y-89204829D02*
G01*
X45711228Y-89205061D01*
X45771496Y-89205681D01*
X45816393Y-89206874D01*
X45848602Y-89208821D01*
X45870800Y-89211706D01*
X45885669Y-89215712D01*
X45895889Y-89221021D01*
X45904138Y-89227817D01*
X45908795Y-89232332D01*
X45915282Y-89240562D01*
X45920194Y-89251922D01*
X45923749Y-89269190D01*
X45926167Y-89295145D01*
X45927667Y-89332564D01*
X45928467Y-89384227D01*
X45928787Y-89452911D01*
X45928845Y-89541394D01*
X45928838Y-89561069D01*
X45928572Y-89648094D01*
X45927806Y-89715746D01*
X45926392Y-89766701D01*
X45924180Y-89803633D01*
X45921022Y-89829217D01*
X45916769Y-89846129D01*
X45911271Y-89857043D01*
X45901285Y-89867536D01*
X45870168Y-89880797D01*
X45834280Y-89879614D01*
X45802733Y-89863450D01*
X45800457Y-89861261D01*
X45794189Y-89852573D01*
X45789523Y-89839231D01*
X45786227Y-89818248D01*
X45784068Y-89786637D01*
X45782814Y-89741410D01*
X45782231Y-89679580D01*
X45782089Y-89598161D01*
X45782089Y-89351555D01*
X45624045Y-89351555D01*
X45624045Y-89513994D01*
X45623964Y-89549662D01*
X45623167Y-89605432D01*
X45621162Y-89644570D01*
X45617521Y-89671024D01*
X45611812Y-89688741D01*
X45603607Y-89701671D01*
X45600423Y-89705314D01*
X45569448Y-89723722D01*
X45533112Y-89724356D01*
X45499493Y-89706817D01*
X45499424Y-89706755D01*
X45490798Y-89697084D01*
X45484742Y-89683791D01*
X45480811Y-89663083D01*
X45478556Y-89631172D01*
X45477531Y-89584266D01*
X45477289Y-89518576D01*
X45477289Y-89350429D01*
X45412378Y-89353814D01*
X45347467Y-89357200D01*
X45344414Y-89599277D01*
X45344086Y-89624293D01*
X45342606Y-89705913D01*
X45340222Y-89768232D01*
X45336227Y-89813846D01*
X45329913Y-89845348D01*
X45320574Y-89865333D01*
X45307503Y-89876396D01*
X45289992Y-89881131D01*
X45267335Y-89882133D01*
X45264970Y-89882127D01*
X45244939Y-89880973D01*
X45229146Y-89876176D01*
X45217090Y-89865368D01*
X45208267Y-89846183D01*
X45202175Y-89816255D01*
X45198311Y-89773217D01*
X45196174Y-89714701D01*
X45195260Y-89638343D01*
X45195067Y-89541774D01*
X45195067Y-89251594D01*
X45224811Y-89228197D01*
X45231495Y-89223248D01*
X45242066Y-89217404D01*
X45256153Y-89212943D01*
X45276478Y-89209679D01*
X45305765Y-89207426D01*
X45346737Y-89205998D01*
X45402117Y-89205208D01*
X45474628Y-89204871D01*
X45566994Y-89204800D01*
X45632911Y-89204829D01*
G37*
X45195146Y-84695206D02*
X45195518Y-84764614D01*
X45196385Y-84817003D01*
X45197946Y-84855153D01*
X45200403Y-84881841D01*
X45203957Y-84899847D01*
X45208810Y-84911951D01*
X45215161Y-84920931D01*
X45218084Y-84924182D01*
X45249142Y-84943957D01*
X45284828Y-84947518D01*
X45316510Y-84934509D01*
X45322913Y-84928494D01*
X45329121Y-84918765D01*
X45333910Y-84903099D01*
X45337514Y-84878592D01*
X45340164Y-84842339D01*
X45342095Y-84791435D01*
X45343539Y-84722974D01*
X45344418Y-84660383D01*
X45347467Y-84412666D01*
X45412378Y-84409281D01*
X45477289Y-84405895D01*
X45477289Y-84574042D01*
X45477919Y-84647041D01*
X45480553Y-84700483D01*
X45486309Y-84737372D01*
X45496304Y-84760712D01*
X45511656Y-84773506D01*
X45533482Y-84778758D01*
X45553738Y-84779555D01*
X45578592Y-84777077D01*
X45596906Y-84767723D01*
X45609637Y-84748617D01*
X45617741Y-84716882D01*
X45622176Y-84669641D01*
X45623899Y-84604017D01*
X45624045Y-84568199D01*
X45624045Y-84407022D01*
X45782089Y-84407022D01*
X45782089Y-84655378D01*
X45782202Y-84736787D01*
X45782712Y-84798658D01*
X45783870Y-84844032D01*
X45785930Y-84875946D01*
X45789146Y-84897441D01*
X45793772Y-84911557D01*
X45800059Y-84921332D01*
X45804667Y-84926311D01*
X45831560Y-84943390D01*
X45855467Y-84948889D01*
X45884667Y-84941037D01*
X45906267Y-84926311D01*
X45913066Y-84918454D01*
X45918346Y-84908312D01*
X45922298Y-84893156D01*
X45925113Y-84870259D01*
X45926982Y-84836891D01*
X45928098Y-84790325D01*
X45928651Y-84727833D01*
X45928833Y-84646686D01*
X45928845Y-84604578D01*
X45928765Y-84514402D01*
X45928398Y-84444076D01*
X45927552Y-84390871D01*
X45926036Y-84352060D01*
X45923659Y-84324913D01*
X45920229Y-84306702D01*
X45915554Y-84294700D01*
X45909444Y-84286178D01*
X45906267Y-84282844D01*
X45898670Y-84276245D01*
X45888870Y-84271073D01*
X45874239Y-84267154D01*
X45852152Y-84264316D01*
X45819982Y-84262385D01*
X45775103Y-84261188D01*
X45714889Y-84260552D01*
X45636713Y-84260303D01*
X45563923Y-84260266D01*
X45470707Y-84260300D01*
X45397431Y-84260535D01*
X45341458Y-84261170D01*
X45300151Y-84262406D01*
X45270872Y-84264444D01*
X45250984Y-84267483D01*
X45237850Y-84271723D01*
X45228832Y-84277365D01*
X45221293Y-84284609D01*
X45219612Y-84286394D01*
X45212172Y-84295055D01*
X45206409Y-84305118D01*
X45202112Y-84319375D01*
X45199064Y-84340617D01*
X45197051Y-84371636D01*
X45195860Y-84415223D01*
X45195275Y-84474169D01*
X45195083Y-84551266D01*
X45195067Y-84605999D01*
X45195146Y-84695206D01*
G36*
X45636713Y-84260303D02*
G01*
X45714889Y-84260552D01*
X45775103Y-84261188D01*
X45819982Y-84262385D01*
X45852152Y-84264316D01*
X45874239Y-84267154D01*
X45888870Y-84271073D01*
X45898670Y-84276245D01*
X45906267Y-84282844D01*
X45909444Y-84286178D01*
X45915554Y-84294700D01*
X45920229Y-84306702D01*
X45923659Y-84324913D01*
X45926036Y-84352060D01*
X45927552Y-84390871D01*
X45928398Y-84444076D01*
X45928765Y-84514402D01*
X45928845Y-84604578D01*
X45928833Y-84646686D01*
X45928651Y-84727833D01*
X45928098Y-84790325D01*
X45926982Y-84836891D01*
X45925113Y-84870259D01*
X45922298Y-84893156D01*
X45918346Y-84908312D01*
X45913066Y-84918454D01*
X45906267Y-84926311D01*
X45884667Y-84941037D01*
X45855467Y-84948889D01*
X45831560Y-84943390D01*
X45804667Y-84926311D01*
X45800059Y-84921332D01*
X45793772Y-84911557D01*
X45789146Y-84897441D01*
X45785930Y-84875946D01*
X45783870Y-84844032D01*
X45782712Y-84798658D01*
X45782202Y-84736787D01*
X45782089Y-84655378D01*
X45782089Y-84407022D01*
X45624045Y-84407022D01*
X45624045Y-84568199D01*
X45623899Y-84604017D01*
X45622176Y-84669641D01*
X45617741Y-84716882D01*
X45609637Y-84748617D01*
X45596906Y-84767723D01*
X45578592Y-84777077D01*
X45553738Y-84779555D01*
X45533482Y-84778758D01*
X45511656Y-84773506D01*
X45496304Y-84760712D01*
X45486309Y-84737372D01*
X45480553Y-84700483D01*
X45477919Y-84647041D01*
X45477289Y-84574042D01*
X45477289Y-84405895D01*
X45412378Y-84409281D01*
X45347467Y-84412666D01*
X45344418Y-84660383D01*
X45343539Y-84722974D01*
X45342095Y-84791435D01*
X45340164Y-84842339D01*
X45337514Y-84878592D01*
X45333910Y-84903099D01*
X45329121Y-84918765D01*
X45322913Y-84928494D01*
X45316510Y-84934509D01*
X45284828Y-84947518D01*
X45249142Y-84943957D01*
X45218084Y-84924182D01*
X45215161Y-84920931D01*
X45208810Y-84911951D01*
X45203957Y-84899847D01*
X45200403Y-84881841D01*
X45197946Y-84855153D01*
X45196385Y-84817003D01*
X45195518Y-84764614D01*
X45195146Y-84695206D01*
X45195067Y-84605999D01*
X45195083Y-84551266D01*
X45195275Y-84474169D01*
X45195860Y-84415223D01*
X45197051Y-84371636D01*
X45199064Y-84340617D01*
X45202112Y-84319375D01*
X45206409Y-84305118D01*
X45212172Y-84295055D01*
X45219612Y-84286394D01*
X45221293Y-84284609D01*
X45228832Y-84277365D01*
X45237850Y-84271723D01*
X45250984Y-84267483D01*
X45270872Y-84264444D01*
X45300151Y-84262406D01*
X45341458Y-84261170D01*
X45397431Y-84260535D01*
X45470707Y-84260300D01*
X45563923Y-84260266D01*
X45636713Y-84260303D01*
G37*
X45197034Y-93152665D02*
X45204035Y-93172255D01*
X45204377Y-93173010D01*
X45224678Y-93199613D01*
X45245561Y-93214270D01*
X45255352Y-93217138D01*
X45268361Y-93216996D01*
X45286895Y-93212961D01*
X45313257Y-93204146D01*
X45349752Y-93189669D01*
X45398687Y-93168645D01*
X45462365Y-93140188D01*
X45543093Y-93103415D01*
X45587216Y-93083175D01*
X45665985Y-93046625D01*
X45738423Y-93012315D01*
X45801880Y-92981552D01*
X45853708Y-92955648D01*
X45891259Y-92935910D01*
X45911884Y-92923650D01*
X45914733Y-92921224D01*
X45927302Y-92890183D01*
X45925619Y-92855121D01*
X45910332Y-92827000D01*
X45909089Y-92825854D01*
X45892154Y-92814668D01*
X45859170Y-92795904D01*
X45814380Y-92771875D01*
X45762032Y-92744897D01*
X45742742Y-92735201D01*
X45596150Y-92662014D01*
X45755393Y-92582240D01*
X45810415Y-92553767D01*
X45858132Y-92527350D01*
X45894893Y-92505148D01*
X45917044Y-92489319D01*
X45921741Y-92483954D01*
X45928102Y-92442257D01*
X45914733Y-92407849D01*
X45900446Y-92397728D01*
X45868692Y-92380214D01*
X45822597Y-92356735D01*
X45765285Y-92328720D01*
X45699880Y-92297599D01*
X45629507Y-92264799D01*
X45557291Y-92231750D01*
X45486355Y-92199881D01*
X45419825Y-92170619D01*
X45360826Y-92145395D01*
X45312481Y-92125636D01*
X45277915Y-92112772D01*
X45260253Y-92108231D01*
X45259613Y-92108277D01*
X45237388Y-92119326D01*
X45214753Y-92141410D01*
X45213768Y-92142710D01*
X45198425Y-92169853D01*
X45198574Y-92194958D01*
X45201466Y-92204368D01*
X45207718Y-92215834D01*
X45220014Y-92228010D01*
X45240908Y-92242357D01*
X45272949Y-92260336D01*
X45318688Y-92283407D01*
X45380677Y-92313030D01*
X45437898Y-92339745D01*
X45504226Y-92370480D01*
X45563874Y-92398021D01*
X45613725Y-92420938D01*
X45650664Y-92437798D01*
X45671573Y-92447173D01*
X45674845Y-92448540D01*
X45669497Y-92454689D01*
X45647109Y-92468822D01*
X45610946Y-92489057D01*
X45564277Y-92513515D01*
X45545022Y-92523248D01*
X45480004Y-92556217D01*
X45432654Y-92581643D01*
X45400219Y-92601612D01*
X45379946Y-92618210D01*
X45369082Y-92633524D01*
X45364875Y-92649640D01*
X45364400Y-92660143D01*
X45366042Y-92678670D01*
X45372831Y-92694904D01*
X45387566Y-92711035D01*
X45413044Y-92729251D01*
X45452061Y-92751739D01*
X45507414Y-92780689D01*
X45538903Y-92796662D01*
X45589087Y-92822570D01*
X45630704Y-92845167D01*
X45660242Y-92862458D01*
X45674189Y-92872450D01*
X45674770Y-92873809D01*
X45663793Y-92880261D01*
X45635290Y-92894708D01*
X45592244Y-92915703D01*
X45537638Y-92941797D01*
X45474454Y-92971546D01*
X45443071Y-92986180D01*
X45362078Y-93024250D01*
X45299756Y-93054905D01*
X45254071Y-93079737D01*
X45222989Y-93100337D01*
X45204478Y-93118298D01*
X45196504Y-93135210D01*
X45197034Y-93152665D01*
G36*
X45277915Y-92112772D02*
G01*
X45312481Y-92125636D01*
X45360826Y-92145395D01*
X45419825Y-92170619D01*
X45486355Y-92199881D01*
X45557291Y-92231750D01*
X45629507Y-92264799D01*
X45699880Y-92297599D01*
X45765285Y-92328720D01*
X45822597Y-92356735D01*
X45868692Y-92380214D01*
X45900446Y-92397728D01*
X45914733Y-92407849D01*
X45928102Y-92442257D01*
X45921741Y-92483954D01*
X45917044Y-92489319D01*
X45894893Y-92505148D01*
X45858132Y-92527350D01*
X45810415Y-92553767D01*
X45755393Y-92582240D01*
X45596150Y-92662014D01*
X45742742Y-92735201D01*
X45762032Y-92744897D01*
X45814380Y-92771875D01*
X45859170Y-92795904D01*
X45892154Y-92814668D01*
X45909089Y-92825854D01*
X45910332Y-92827000D01*
X45925619Y-92855121D01*
X45927302Y-92890183D01*
X45914733Y-92921224D01*
X45911884Y-92923650D01*
X45891259Y-92935910D01*
X45853708Y-92955648D01*
X45801880Y-92981552D01*
X45738423Y-93012315D01*
X45665985Y-93046625D01*
X45587216Y-93083175D01*
X45543093Y-93103415D01*
X45462365Y-93140188D01*
X45398687Y-93168645D01*
X45349752Y-93189669D01*
X45313257Y-93204146D01*
X45286895Y-93212961D01*
X45268361Y-93216996D01*
X45255352Y-93217138D01*
X45245561Y-93214270D01*
X45224678Y-93199613D01*
X45204377Y-93173010D01*
X45204035Y-93172255D01*
X45197034Y-93152665D01*
X45196504Y-93135210D01*
X45204478Y-93118298D01*
X45222989Y-93100337D01*
X45254071Y-93079737D01*
X45299756Y-93054905D01*
X45362078Y-93024250D01*
X45443071Y-92986180D01*
X45474454Y-92971546D01*
X45537638Y-92941797D01*
X45592244Y-92915703D01*
X45635290Y-92894708D01*
X45663793Y-92880261D01*
X45674770Y-92873809D01*
X45674189Y-92872450D01*
X45660242Y-92862458D01*
X45630704Y-92845167D01*
X45589087Y-92822570D01*
X45538903Y-92796662D01*
X45507414Y-92780689D01*
X45452061Y-92751739D01*
X45413044Y-92729251D01*
X45387566Y-92711035D01*
X45372831Y-92694904D01*
X45366042Y-92678670D01*
X45364400Y-92660143D01*
X45364875Y-92649640D01*
X45369082Y-92633524D01*
X45379946Y-92618210D01*
X45400219Y-92601612D01*
X45432654Y-92581643D01*
X45480004Y-92556217D01*
X45545022Y-92523248D01*
X45564277Y-92513515D01*
X45610946Y-92489057D01*
X45647109Y-92468822D01*
X45669497Y-92454689D01*
X45674845Y-92448540D01*
X45671573Y-92447173D01*
X45650664Y-92437798D01*
X45613725Y-92420938D01*
X45563874Y-92398021D01*
X45504226Y-92370480D01*
X45437898Y-92339745D01*
X45380677Y-92313030D01*
X45318688Y-92283407D01*
X45272949Y-92260336D01*
X45240908Y-92242357D01*
X45220014Y-92228010D01*
X45207718Y-92215834D01*
X45201466Y-92204368D01*
X45198574Y-92194958D01*
X45198425Y-92169853D01*
X45213768Y-92142710D01*
X45214753Y-92141410D01*
X45237388Y-92119326D01*
X45259613Y-92108277D01*
X45260253Y-92108231D01*
X45277915Y-92112772D01*
G37*
X45196351Y-85716297D02*
X45201581Y-85791112D01*
X45209750Y-85860694D01*
X45220550Y-85920998D01*
X45233673Y-85967980D01*
X45248813Y-85997594D01*
X45253269Y-86002140D01*
X45287850Y-86017946D01*
X45323351Y-86013153D01*
X45353725Y-85988636D01*
X45354596Y-85987466D01*
X45363954Y-85973046D01*
X45368876Y-85957992D01*
X45369473Y-85936995D01*
X45365861Y-85904743D01*
X45358154Y-85855927D01*
X45357505Y-85852000D01*
X45348569Y-85779261D01*
X45344161Y-85700783D01*
X45344119Y-85622073D01*
X45348279Y-85548639D01*
X45356479Y-85485989D01*
X45368557Y-85439630D01*
X45369771Y-85436584D01*
X45388615Y-85402952D01*
X45407685Y-85391136D01*
X45426439Y-85400386D01*
X45444337Y-85429953D01*
X45460837Y-85479089D01*
X45475396Y-85547043D01*
X45482406Y-85592355D01*
X45495889Y-85686544D01*
X45508214Y-85761456D01*
X45520449Y-85820283D01*
X45533661Y-85866215D01*
X45548917Y-85902445D01*
X45567285Y-85932162D01*
X45589831Y-85958558D01*
X45611971Y-85979770D01*
X45642819Y-86004935D01*
X45669345Y-86017319D01*
X45702026Y-86021192D01*
X45713995Y-86021333D01*
X45753712Y-86018424D01*
X45783259Y-86006798D01*
X45809486Y-85986677D01*
X45849576Y-85945784D01*
X45880149Y-85900183D01*
X45902203Y-85846487D01*
X45916735Y-85781308D01*
X45924741Y-85701256D01*
X45927218Y-85602943D01*
X45927177Y-85586711D01*
X45925818Y-85521151D01*
X45922730Y-85456134D01*
X45918356Y-85398748D01*
X45913140Y-85356078D01*
X45912541Y-85352628D01*
X45902491Y-85310204D01*
X45889796Y-85274220D01*
X45878190Y-85253850D01*
X45847572Y-85234893D01*
X45811918Y-85233573D01*
X45780144Y-85249915D01*
X45776551Y-85253571D01*
X45765876Y-85268685D01*
X45761276Y-85287585D01*
X45762059Y-85316838D01*
X45766127Y-85352349D01*
X45769762Y-85392030D01*
X45772828Y-85447655D01*
X45775053Y-85512594D01*
X45776164Y-85580215D01*
X45776237Y-85598000D01*
X45775964Y-85665872D01*
X45774646Y-85715546D01*
X45771827Y-85751390D01*
X45767050Y-85777776D01*
X45759857Y-85799074D01*
X45753867Y-85811874D01*
X45737233Y-85840000D01*
X45722168Y-85857932D01*
X45717897Y-85860553D01*
X45700263Y-85855024D01*
X45683192Y-85828740D01*
X45667458Y-85783522D01*
X45653838Y-85721192D01*
X45650804Y-85702829D01*
X45635738Y-85606910D01*
X45623146Y-85530359D01*
X45612111Y-85470220D01*
X45601720Y-85423540D01*
X45591056Y-85387363D01*
X45579205Y-85358735D01*
X45565251Y-85334702D01*
X45548281Y-85312308D01*
X45527378Y-85288598D01*
X45520049Y-85280620D01*
X45492699Y-85252647D01*
X45471029Y-85237840D01*
X45446232Y-85232048D01*
X45414983Y-85231111D01*
X45353705Y-85241425D01*
X45301640Y-85272248D01*
X45258958Y-85323405D01*
X45225825Y-85394717D01*
X45210964Y-85445600D01*
X45201366Y-85500900D01*
X45195936Y-85567147D01*
X45194367Y-85640294D01*
X45196351Y-85716297D01*
G36*
X45446232Y-85232048D02*
G01*
X45471029Y-85237840D01*
X45492699Y-85252647D01*
X45520049Y-85280620D01*
X45527378Y-85288598D01*
X45548281Y-85312308D01*
X45565251Y-85334702D01*
X45579205Y-85358735D01*
X45591056Y-85387363D01*
X45601720Y-85423540D01*
X45612111Y-85470220D01*
X45623146Y-85530359D01*
X45635738Y-85606910D01*
X45650804Y-85702829D01*
X45653838Y-85721192D01*
X45667458Y-85783522D01*
X45683192Y-85828740D01*
X45700263Y-85855024D01*
X45717897Y-85860553D01*
X45722168Y-85857932D01*
X45737233Y-85840000D01*
X45753867Y-85811874D01*
X45759857Y-85799074D01*
X45767050Y-85777776D01*
X45771827Y-85751390D01*
X45774646Y-85715546D01*
X45775964Y-85665872D01*
X45776237Y-85598000D01*
X45776164Y-85580215D01*
X45775053Y-85512594D01*
X45772828Y-85447655D01*
X45769762Y-85392030D01*
X45766127Y-85352349D01*
X45762059Y-85316838D01*
X45761276Y-85287585D01*
X45765876Y-85268685D01*
X45776551Y-85253571D01*
X45780144Y-85249915D01*
X45811918Y-85233573D01*
X45847572Y-85234893D01*
X45878190Y-85253850D01*
X45889796Y-85274220D01*
X45902491Y-85310204D01*
X45912541Y-85352628D01*
X45913140Y-85356078D01*
X45918356Y-85398748D01*
X45922730Y-85456134D01*
X45925818Y-85521151D01*
X45927177Y-85586711D01*
X45927218Y-85602943D01*
X45924741Y-85701256D01*
X45916735Y-85781308D01*
X45902203Y-85846487D01*
X45880149Y-85900183D01*
X45849576Y-85945784D01*
X45809486Y-85986677D01*
X45783259Y-86006798D01*
X45753712Y-86018424D01*
X45713995Y-86021333D01*
X45702026Y-86021192D01*
X45669345Y-86017319D01*
X45642819Y-86004935D01*
X45611971Y-85979770D01*
X45589831Y-85958558D01*
X45567285Y-85932162D01*
X45548917Y-85902445D01*
X45533661Y-85866215D01*
X45520449Y-85820283D01*
X45508214Y-85761456D01*
X45495889Y-85686544D01*
X45482406Y-85592355D01*
X45475396Y-85547043D01*
X45460837Y-85479089D01*
X45444337Y-85429953D01*
X45426439Y-85400386D01*
X45407685Y-85391136D01*
X45388615Y-85402952D01*
X45369771Y-85436584D01*
X45368557Y-85439630D01*
X45356479Y-85485989D01*
X45348279Y-85548639D01*
X45344119Y-85622073D01*
X45344161Y-85700783D01*
X45348569Y-85779261D01*
X45357505Y-85852000D01*
X45358154Y-85855927D01*
X45365861Y-85904743D01*
X45369473Y-85936995D01*
X45368876Y-85957992D01*
X45363954Y-85973046D01*
X45354596Y-85987466D01*
X45353725Y-85988636D01*
X45323351Y-86013153D01*
X45287850Y-86017946D01*
X45253269Y-86002140D01*
X45248813Y-85997594D01*
X45233673Y-85967980D01*
X45220550Y-85920998D01*
X45209750Y-85860694D01*
X45201581Y-85791112D01*
X45196351Y-85716297D01*
X45194367Y-85640294D01*
X45195936Y-85567147D01*
X45201366Y-85500900D01*
X45210964Y-85445600D01*
X45225825Y-85394717D01*
X45258958Y-85323405D01*
X45301640Y-85272248D01*
X45353705Y-85241425D01*
X45414983Y-85231111D01*
X45446232Y-85232048D01*
G37*
X40875071Y-89736429D02*
X40896245Y-89896570D01*
X40936385Y-90060510D01*
X40995889Y-90230313D01*
X41075154Y-90408043D01*
X41080699Y-90419310D01*
X41108725Y-90477005D01*
X41132802Y-90528552D01*
X41151249Y-90570191D01*
X41162386Y-90598162D01*
X41164933Y-90607733D01*
X41169941Y-90626950D01*
X41174147Y-90631561D01*
X41184580Y-90626458D01*
X41210868Y-90610418D01*
X41250257Y-90585288D01*
X41299991Y-90552914D01*
X41357315Y-90515143D01*
X41419476Y-90473822D01*
X41483718Y-90430798D01*
X41547285Y-90387917D01*
X41607425Y-90347026D01*
X41661380Y-90309971D01*
X41706397Y-90278600D01*
X41739721Y-90254759D01*
X41758597Y-90240294D01*
X41760787Y-90238309D01*
X41756138Y-90228191D01*
X41738962Y-90205850D01*
X41712440Y-90175280D01*
X41697964Y-90159536D01*
X41622682Y-90063047D01*
X41567241Y-89956336D01*
X41532141Y-89840832D01*
X41517880Y-89717962D01*
X41519051Y-89648561D01*
X41536212Y-89527423D01*
X41572094Y-89418205D01*
X41626959Y-89320582D01*
X41701070Y-89234228D01*
X41794688Y-89158815D01*
X41908076Y-89094018D01*
X41994667Y-89056601D01*
X42130366Y-89012748D01*
X42277850Y-88980428D01*
X42433314Y-88959557D01*
X42592956Y-88950051D01*
X42752973Y-88951827D01*
X42909561Y-88964803D01*
X43058918Y-88988894D01*
X43197240Y-89024018D01*
X43320724Y-89070092D01*
X43354978Y-89086373D01*
X43469064Y-89154620D01*
X43565557Y-89235079D01*
X43643670Y-89326570D01*
X43702617Y-89427911D01*
X43741612Y-89537920D01*
X43759868Y-89655415D01*
X43761211Y-89696883D01*
X43750290Y-89818441D01*
X43717474Y-89938878D01*
X43663439Y-90056666D01*
X43588865Y-90170277D01*
X43510539Y-90261685D01*
X43466008Y-90308215D01*
X43763271Y-90489483D01*
X43837433Y-90534580D01*
X43905646Y-90575819D01*
X43965459Y-90611735D01*
X44014420Y-90640866D01*
X44050079Y-90661750D01*
X44069984Y-90672924D01*
X44073079Y-90674375D01*
X44082718Y-90666146D01*
X44099999Y-90640567D01*
X44123283Y-90600873D01*
X44150934Y-90550297D01*
X44181315Y-90492074D01*
X44212790Y-90429437D01*
X44243722Y-90365621D01*
X44272473Y-90303860D01*
X44297408Y-90247388D01*
X44316889Y-90199438D01*
X44325318Y-90175986D01*
X44363133Y-90042221D01*
X44388136Y-89904327D01*
X44401140Y-89756622D01*
X44403468Y-89629833D01*
X44402373Y-89561878D01*
X44400275Y-89496277D01*
X44397434Y-89438847D01*
X44394106Y-89395403D01*
X44392422Y-89381298D01*
X44363587Y-89242284D01*
X44318468Y-89100757D01*
X44259750Y-88963275D01*
X44190120Y-88836394D01*
X44137441Y-88758889D01*
X44029239Y-88631481D01*
X43902671Y-88513178D01*
X43760866Y-88406172D01*
X43606951Y-88312652D01*
X43444053Y-88234810D01*
X43326756Y-88190956D01*
X43143128Y-88140708D01*
X42948581Y-88107209D01*
X42747325Y-88090449D01*
X42543568Y-88090416D01*
X42341521Y-88107101D01*
X42145392Y-88140493D01*
X41959391Y-88190580D01*
X41947803Y-88194397D01*
X41785750Y-88257281D01*
X41637832Y-88334028D01*
X41499865Y-88427242D01*
X41367661Y-88539527D01*
X41322399Y-88583392D01*
X41198457Y-88719534D01*
X41095915Y-88859491D01*
X41013656Y-89005411D01*
X40950564Y-89159442D01*
X40905523Y-89323732D01*
X40888033Y-89419289D01*
X40872466Y-89578023D01*
X40875071Y-89736429D01*
G36*
X42747325Y-88090449D02*
G01*
X42948581Y-88107209D01*
X43143128Y-88140708D01*
X43326756Y-88190956D01*
X43444053Y-88234810D01*
X43606951Y-88312652D01*
X43760866Y-88406172D01*
X43902671Y-88513178D01*
X44029239Y-88631481D01*
X44137441Y-88758889D01*
X44190120Y-88836394D01*
X44259750Y-88963275D01*
X44318468Y-89100757D01*
X44363587Y-89242284D01*
X44392422Y-89381298D01*
X44394106Y-89395403D01*
X44397434Y-89438847D01*
X44400275Y-89496277D01*
X44402373Y-89561878D01*
X44403468Y-89629833D01*
X44401140Y-89756622D01*
X44388136Y-89904327D01*
X44363133Y-90042221D01*
X44325318Y-90175986D01*
X44316889Y-90199438D01*
X44297408Y-90247388D01*
X44272473Y-90303860D01*
X44243722Y-90365621D01*
X44212790Y-90429437D01*
X44181315Y-90492074D01*
X44150934Y-90550297D01*
X44123283Y-90600873D01*
X44099999Y-90640567D01*
X44082718Y-90666146D01*
X44073079Y-90674375D01*
X44069984Y-90672924D01*
X44050079Y-90661750D01*
X44014420Y-90640866D01*
X43965459Y-90611735D01*
X43905646Y-90575819D01*
X43837433Y-90534580D01*
X43763271Y-90489483D01*
X43466008Y-90308215D01*
X43510539Y-90261685D01*
X43588865Y-90170277D01*
X43663439Y-90056666D01*
X43717474Y-89938878D01*
X43750290Y-89818441D01*
X43761211Y-89696883D01*
X43759868Y-89655415D01*
X43741612Y-89537920D01*
X43702617Y-89427911D01*
X43643670Y-89326570D01*
X43565557Y-89235079D01*
X43469064Y-89154620D01*
X43354978Y-89086373D01*
X43320724Y-89070092D01*
X43197240Y-89024018D01*
X43058918Y-88988894D01*
X42909561Y-88964803D01*
X42752973Y-88951827D01*
X42592956Y-88950051D01*
X42433314Y-88959557D01*
X42277850Y-88980428D01*
X42130366Y-89012748D01*
X41994667Y-89056601D01*
X41908076Y-89094018D01*
X41794688Y-89158815D01*
X41701070Y-89234228D01*
X41626959Y-89320582D01*
X41572094Y-89418205D01*
X41536212Y-89527423D01*
X41519051Y-89648561D01*
X41517880Y-89717962D01*
X41532141Y-89840832D01*
X41567241Y-89956336D01*
X41622682Y-90063047D01*
X41697964Y-90159536D01*
X41712440Y-90175280D01*
X41738962Y-90205850D01*
X41756138Y-90228191D01*
X41760787Y-90238309D01*
X41758597Y-90240294D01*
X41739721Y-90254759D01*
X41706397Y-90278600D01*
X41661380Y-90309971D01*
X41607425Y-90347026D01*
X41547285Y-90387917D01*
X41483718Y-90430798D01*
X41419476Y-90473822D01*
X41357315Y-90515143D01*
X41299991Y-90552914D01*
X41250257Y-90585288D01*
X41210868Y-90610418D01*
X41184580Y-90626458D01*
X41174147Y-90631561D01*
X41169941Y-90626950D01*
X41164933Y-90607733D01*
X41162386Y-90598162D01*
X41151249Y-90570191D01*
X41132802Y-90528552D01*
X41108725Y-90477005D01*
X41080699Y-90419310D01*
X41075154Y-90408043D01*
X40995889Y-90230313D01*
X40936385Y-90060510D01*
X40896245Y-89896570D01*
X40875071Y-89736429D01*
X40872466Y-89578023D01*
X40888033Y-89419289D01*
X40905523Y-89323732D01*
X40950564Y-89159442D01*
X41013656Y-89005411D01*
X41095915Y-88859491D01*
X41198457Y-88719534D01*
X41322399Y-88583392D01*
X41367661Y-88539527D01*
X41499865Y-88427242D01*
X41637832Y-88334028D01*
X41785750Y-88257281D01*
X41947803Y-88194397D01*
X41959391Y-88190580D01*
X42145392Y-88140493D01*
X42341521Y-88107101D01*
X42543568Y-88090416D01*
X42747325Y-88090449D01*
G37*
X42398245Y-95594507D02*
X42632662Y-95594526D01*
X42845603Y-95594552D01*
X43038168Y-95594625D01*
X43211459Y-95594782D01*
X43366576Y-95595064D01*
X43504620Y-95595509D01*
X43626692Y-95596156D01*
X43733894Y-95597045D01*
X43827326Y-95598213D01*
X43908090Y-95599701D01*
X43977286Y-95601546D01*
X44036015Y-95603789D01*
X44085379Y-95606469D01*
X44126478Y-95609623D01*
X44160413Y-95613292D01*
X44188286Y-95617513D01*
X44211198Y-95622327D01*
X44230249Y-95627773D01*
X44246540Y-95633888D01*
X44261173Y-95640712D01*
X44275249Y-95648285D01*
X44289868Y-95656645D01*
X44298974Y-95661839D01*
X44359689Y-95696104D01*
X44359689Y-94837955D01*
X44263733Y-94837955D01*
X44220370Y-94837224D01*
X44187205Y-94835272D01*
X44169424Y-94832463D01*
X44167778Y-94831221D01*
X44174662Y-94819799D01*
X44192505Y-94797084D01*
X44211879Y-94774385D01*
X44252614Y-94719800D01*
X44293617Y-94650321D01*
X44331123Y-94573270D01*
X44361364Y-94495965D01*
X44371012Y-94465113D01*
X44385578Y-94396616D01*
X44395539Y-94313764D01*
X44400583Y-94224371D01*
X44400396Y-94136248D01*
X44394666Y-94057207D01*
X44388858Y-94019511D01*
X44350797Y-93881414D01*
X44293073Y-93754113D01*
X44216211Y-93638292D01*
X44120739Y-93534637D01*
X44007179Y-93443833D01*
X43896381Y-93377031D01*
X43779625Y-93322164D01*
X43660276Y-93280163D01*
X43534283Y-93250167D01*
X43397594Y-93231311D01*
X43246158Y-93222732D01*
X43168711Y-93222006D01*
X43111934Y-93224100D01*
X43111934Y-94053217D01*
X43205002Y-94053424D01*
X43292692Y-94056337D01*
X43369772Y-94062000D01*
X43431009Y-94070455D01*
X43443350Y-94073038D01*
X43550633Y-94104840D01*
X43637658Y-94146498D01*
X43704642Y-94198363D01*
X43751805Y-94260781D01*
X43779365Y-94334100D01*
X43787541Y-94418669D01*
X43776551Y-94514835D01*
X43760829Y-94578311D01*
X43742639Y-94627454D01*
X43716791Y-94681583D01*
X43693089Y-94722244D01*
X43646721Y-94792800D01*
X42496530Y-94792800D01*
X42452962Y-94725392D01*
X42412040Y-94646867D01*
X42385389Y-94562681D01*
X42373465Y-94477557D01*
X42376722Y-94396216D01*
X42395615Y-94323380D01*
X42411184Y-94291426D01*
X42454181Y-94233501D01*
X42510953Y-94184544D01*
X42583575Y-94143390D01*
X42674121Y-94108874D01*
X42784666Y-94079833D01*
X42790533Y-94078552D01*
X42852788Y-94068381D01*
X42930594Y-94060739D01*
X43018720Y-94055670D01*
X43111934Y-94053217D01*
X43111934Y-93224100D01*
X42955895Y-93229857D01*
X42760059Y-93251802D01*
X42581332Y-93287786D01*
X42419845Y-93337759D01*
X42275726Y-93401668D01*
X42149106Y-93479462D01*
X42040115Y-93571089D01*
X41948883Y-93676497D01*
X41917932Y-93721662D01*
X41861785Y-93822611D01*
X41822174Y-93925901D01*
X41798014Y-94035989D01*
X41788219Y-94157330D01*
X41789265Y-94249836D01*
X41800231Y-94379490D01*
X41822046Y-94492084D01*
X41855714Y-94590875D01*
X41902236Y-94679121D01*
X41936448Y-94727986D01*
X41958362Y-94757353D01*
X41973333Y-94779043D01*
X41977733Y-94787253D01*
X41966904Y-94788868D01*
X41936251Y-94790159D01*
X41888526Y-94791138D01*
X41826479Y-94791817D01*
X41752862Y-94792210D01*
X41670427Y-94792330D01*
X41581925Y-94792188D01*
X41490107Y-94791797D01*
X41397724Y-94791171D01*
X41307528Y-94790320D01*
X41222271Y-94789260D01*
X41144703Y-94788001D01*
X41077576Y-94786556D01*
X41023641Y-94784938D01*
X40985650Y-94783161D01*
X40978667Y-94782669D01*
X40908251Y-94775092D01*
X40853102Y-94763531D01*
X40805981Y-94745792D01*
X40759647Y-94719682D01*
X40750067Y-94713415D01*
X40713378Y-94688983D01*
X40713378Y-95594311D01*
X42398245Y-95594507D01*
G36*
X43246158Y-93222732D02*
G01*
X43397594Y-93231311D01*
X43534283Y-93250167D01*
X43660276Y-93280163D01*
X43779625Y-93322164D01*
X43896381Y-93377031D01*
X44007179Y-93443833D01*
X44120739Y-93534637D01*
X44216211Y-93638292D01*
X44293073Y-93754113D01*
X44350797Y-93881414D01*
X44388858Y-94019511D01*
X44394666Y-94057207D01*
X44400396Y-94136248D01*
X44400583Y-94224371D01*
X44395539Y-94313764D01*
X44385578Y-94396616D01*
X44371012Y-94465113D01*
X44361364Y-94495965D01*
X44331123Y-94573270D01*
X44293617Y-94650321D01*
X44252614Y-94719800D01*
X44211879Y-94774385D01*
X44192505Y-94797084D01*
X44174662Y-94819799D01*
X44167778Y-94831221D01*
X44169424Y-94832463D01*
X44187205Y-94835272D01*
X44220370Y-94837224D01*
X44263733Y-94837955D01*
X44359689Y-94837955D01*
X44359689Y-95696104D01*
X44298974Y-95661839D01*
X44289868Y-95656645D01*
X44275249Y-95648285D01*
X44261173Y-95640712D01*
X44246540Y-95633888D01*
X44230249Y-95627773D01*
X44211198Y-95622327D01*
X44188286Y-95617513D01*
X44160413Y-95613292D01*
X44126478Y-95609623D01*
X44085379Y-95606469D01*
X44036015Y-95603789D01*
X43977286Y-95601546D01*
X43908090Y-95599701D01*
X43827326Y-95598213D01*
X43733894Y-95597045D01*
X43626692Y-95596156D01*
X43504620Y-95595509D01*
X43366576Y-95595064D01*
X43211459Y-95594782D01*
X43038168Y-95594625D01*
X42845603Y-95594552D01*
X42632662Y-95594526D01*
X42398245Y-95594507D01*
X40713378Y-95594311D01*
X40713378Y-94688983D01*
X40750067Y-94713415D01*
X40759647Y-94719682D01*
X40805981Y-94745792D01*
X40853102Y-94763531D01*
X40908251Y-94775092D01*
X40978667Y-94782669D01*
X40985650Y-94783161D01*
X41023641Y-94784938D01*
X41077576Y-94786556D01*
X41144703Y-94788001D01*
X41222271Y-94789260D01*
X41307528Y-94790320D01*
X41397724Y-94791171D01*
X41490107Y-94791797D01*
X41581925Y-94792188D01*
X41670427Y-94792330D01*
X41752862Y-94792210D01*
X41826479Y-94791817D01*
X41888526Y-94791138D01*
X41936251Y-94790159D01*
X41966904Y-94788868D01*
X41977733Y-94787253D01*
X41973333Y-94779043D01*
X41958362Y-94757353D01*
X41936448Y-94727986D01*
X41902236Y-94679121D01*
X41855714Y-94590875D01*
X41822046Y-94492084D01*
X41819231Y-94477557D01*
X42373465Y-94477557D01*
X42385389Y-94562681D01*
X42412040Y-94646867D01*
X42452962Y-94725392D01*
X42496530Y-94792800D01*
X43646721Y-94792800D01*
X43693089Y-94722244D01*
X43716791Y-94681583D01*
X43742639Y-94627454D01*
X43760829Y-94578311D01*
X43776551Y-94514835D01*
X43787541Y-94418669D01*
X43779365Y-94334100D01*
X43751805Y-94260781D01*
X43704642Y-94198363D01*
X43637658Y-94146498D01*
X43550633Y-94104840D01*
X43443350Y-94073038D01*
X43431009Y-94070455D01*
X43369772Y-94062000D01*
X43292692Y-94056337D01*
X43205002Y-94053424D01*
X43111934Y-94053217D01*
X43018720Y-94055670D01*
X42930594Y-94060739D01*
X42852788Y-94068381D01*
X42790533Y-94078552D01*
X42784666Y-94079833D01*
X42674121Y-94108874D01*
X42583575Y-94143390D01*
X42510953Y-94184544D01*
X42454181Y-94233501D01*
X42411184Y-94291426D01*
X42395615Y-94323380D01*
X42376722Y-94396216D01*
X42373465Y-94477557D01*
X41819231Y-94477557D01*
X41800231Y-94379490D01*
X41789265Y-94249836D01*
X41788219Y-94157330D01*
X41798014Y-94035989D01*
X41822174Y-93925901D01*
X41861785Y-93822611D01*
X41917932Y-93721662D01*
X41948883Y-93676497D01*
X42040115Y-93571089D01*
X42149106Y-93479462D01*
X42275726Y-93401668D01*
X42419845Y-93337759D01*
X42581332Y-93287786D01*
X42760059Y-93251802D01*
X42955895Y-93229857D01*
X43111934Y-93224100D01*
X43168711Y-93222006D01*
X43246158Y-93222732D01*
G37*
X41792552Y-92081574D02*
X41812567Y-92233492D01*
X41846202Y-92368756D01*
X41893725Y-92488239D01*
X41955405Y-92592815D01*
X42018965Y-92670424D01*
X42093099Y-92739265D01*
X42172871Y-92793006D01*
X42265091Y-92835910D01*
X42308161Y-92851384D01*
X42347142Y-92864244D01*
X42383289Y-92875446D01*
X42418434Y-92885120D01*
X42454410Y-92893396D01*
X42493050Y-92900403D01*
X42536185Y-92906272D01*
X42585649Y-92911131D01*
X42643273Y-92915110D01*
X42710891Y-92918340D01*
X42790334Y-92920949D01*
X42883436Y-92923067D01*
X42992027Y-92924824D01*
X43117942Y-92926349D01*
X43263012Y-92927772D01*
X43405778Y-92929025D01*
X43561968Y-92930351D01*
X43697239Y-92931556D01*
X43813246Y-92932766D01*
X43911645Y-92934106D01*
X43994093Y-92935700D01*
X44062246Y-92937675D01*
X44117760Y-92940156D01*
X44162292Y-92943269D01*
X44197498Y-92947138D01*
X44225034Y-92951889D01*
X44246556Y-92957648D01*
X44263722Y-92964539D01*
X44278186Y-92972689D01*
X44291606Y-92982223D01*
X44305638Y-92993266D01*
X44311071Y-92997566D01*
X44333910Y-93013386D01*
X44349463Y-93020422D01*
X44349922Y-93020444D01*
X44352121Y-93009567D01*
X44354147Y-92978582D01*
X44355942Y-92929957D01*
X44357451Y-92866163D01*
X44358616Y-92789669D01*
X44359380Y-92702944D01*
X44359686Y-92608457D01*
X44359689Y-92597550D01*
X44359689Y-92174657D01*
X44263622Y-92171395D01*
X44167556Y-92168133D01*
X44218543Y-92106044D01*
X44286057Y-92008714D01*
X44340749Y-91898813D01*
X44370978Y-91812349D01*
X44385666Y-91743278D01*
X44395659Y-91659925D01*
X44400646Y-91570159D01*
X44400313Y-91481845D01*
X44394351Y-91402851D01*
X44388638Y-91366622D01*
X44350776Y-91226603D01*
X44295932Y-91100178D01*
X44224924Y-90988260D01*
X44138568Y-90891762D01*
X44037679Y-90811600D01*
X43923076Y-90748687D01*
X43796984Y-90704312D01*
X43740401Y-90691978D01*
X43678202Y-90684368D01*
X43603363Y-90680739D01*
X43569467Y-90680245D01*
X43566282Y-90680310D01*
X43566282Y-91440248D01*
X43641333Y-91449541D01*
X43705160Y-91477728D01*
X43760798Y-91526197D01*
X43765211Y-91531254D01*
X43800037Y-91579548D01*
X43822620Y-91631257D01*
X43834540Y-91691989D01*
X43837383Y-91767352D01*
X43836978Y-91785459D01*
X43834325Y-91839278D01*
X43828909Y-91879308D01*
X43818745Y-91914324D01*
X43801850Y-91953103D01*
X43796672Y-91963745D01*
X43760844Y-92024396D01*
X43718212Y-92071215D01*
X43702973Y-92083952D01*
X43646462Y-92128622D01*
X43450586Y-92128622D01*
X43371939Y-92128086D01*
X43313988Y-92126396D01*
X43274875Y-92123428D01*
X43252741Y-92119057D01*
X43246274Y-92114972D01*
X43243111Y-92099047D01*
X43240488Y-92065264D01*
X43238655Y-92018340D01*
X43237857Y-91962993D01*
X43237842Y-91954106D01*
X43243096Y-91833330D01*
X43259263Y-91730660D01*
X43286961Y-91644106D01*
X43326808Y-91571681D01*
X43373758Y-91516751D01*
X43431645Y-91472204D01*
X43494693Y-91447480D01*
X43566282Y-91440248D01*
X43566282Y-90680310D01*
X43475712Y-90682178D01*
X43396812Y-90690522D01*
X43325590Y-90706768D01*
X43254864Y-90732405D01*
X43202493Y-90756401D01*
X43107196Y-90815020D01*
X43019170Y-90893117D01*
X42940017Y-90988315D01*
X42871340Y-91098238D01*
X42814741Y-91220510D01*
X42771821Y-91352755D01*
X42756882Y-91417422D01*
X42734777Y-91553604D01*
X42720194Y-91702049D01*
X42713813Y-91853505D01*
X42715445Y-91980064D01*
X42722224Y-92141950D01*
X42663245Y-92134530D01*
X42564092Y-92115238D01*
X42483372Y-92084104D01*
X42420466Y-92040269D01*
X42374756Y-91982871D01*
X42345622Y-91911048D01*
X42332447Y-91823941D01*
X42334611Y-91720686D01*
X42338612Y-91682711D01*
X42363780Y-91541520D01*
X42404814Y-91404707D01*
X42442815Y-91310178D01*
X42462190Y-91265018D01*
X42477760Y-91226585D01*
X42487405Y-91200234D01*
X42489452Y-91192546D01*
X42480374Y-91182802D01*
X42451405Y-91166083D01*
X42402217Y-91142232D01*
X42332484Y-91111093D01*
X42241879Y-91072507D01*
X42226089Y-91065910D01*
X42153772Y-91035853D01*
X42088425Y-91008874D01*
X42032906Y-90986136D01*
X41990072Y-90968806D01*
X41962781Y-90958048D01*
X41953942Y-90954941D01*
X41949187Y-90964940D01*
X41943910Y-90991217D01*
X41940231Y-91019489D01*
X41935474Y-91049646D01*
X41926028Y-91097433D01*
X41912820Y-91158612D01*
X41896776Y-91228946D01*
X41878820Y-91304194D01*
X41871797Y-91332755D01*
X41846209Y-91437816D01*
X41826147Y-91525480D01*
X41810969Y-91600068D01*
X41800035Y-91665903D01*
X41792704Y-91727307D01*
X41788335Y-91788602D01*
X41786287Y-91854110D01*
X41785889Y-91912128D01*
X41792552Y-92081574D01*
G36*
X43603363Y-90680739D02*
G01*
X43678202Y-90684368D01*
X43740401Y-90691978D01*
X43796984Y-90704312D01*
X43923076Y-90748687D01*
X44037679Y-90811600D01*
X44138568Y-90891762D01*
X44224924Y-90988260D01*
X44295932Y-91100178D01*
X44350776Y-91226603D01*
X44388638Y-91366622D01*
X44394351Y-91402851D01*
X44400313Y-91481845D01*
X44400646Y-91570159D01*
X44395659Y-91659925D01*
X44385666Y-91743278D01*
X44370978Y-91812349D01*
X44340749Y-91898813D01*
X44286057Y-92008714D01*
X44218543Y-92106044D01*
X44167556Y-92168133D01*
X44263622Y-92171395D01*
X44359689Y-92174657D01*
X44359689Y-92597550D01*
X44359686Y-92608457D01*
X44359380Y-92702944D01*
X44358616Y-92789669D01*
X44357451Y-92866163D01*
X44355942Y-92929957D01*
X44354147Y-92978582D01*
X44352121Y-93009567D01*
X44349922Y-93020444D01*
X44349463Y-93020422D01*
X44333910Y-93013386D01*
X44311071Y-92997566D01*
X44305638Y-92993266D01*
X44291606Y-92982223D01*
X44278186Y-92972689D01*
X44263722Y-92964539D01*
X44246556Y-92957648D01*
X44225034Y-92951889D01*
X44197498Y-92947138D01*
X44162292Y-92943269D01*
X44117760Y-92940156D01*
X44062246Y-92937675D01*
X43994093Y-92935700D01*
X43911645Y-92934106D01*
X43813246Y-92932766D01*
X43697239Y-92931556D01*
X43561968Y-92930351D01*
X43405778Y-92929025D01*
X43263012Y-92927772D01*
X43117942Y-92926349D01*
X42992027Y-92924824D01*
X42883436Y-92923067D01*
X42790334Y-92920949D01*
X42710891Y-92918340D01*
X42643273Y-92915110D01*
X42585649Y-92911131D01*
X42536185Y-92906272D01*
X42493050Y-92900403D01*
X42454410Y-92893396D01*
X42418434Y-92885120D01*
X42383289Y-92875446D01*
X42347142Y-92864244D01*
X42308161Y-92851384D01*
X42265091Y-92835910D01*
X42172871Y-92793006D01*
X42093099Y-92739265D01*
X42018965Y-92670424D01*
X41955405Y-92592815D01*
X41893725Y-92488239D01*
X41846202Y-92368756D01*
X41812567Y-92233492D01*
X41792552Y-92081574D01*
X41785889Y-91912128D01*
X41786287Y-91854110D01*
X41788335Y-91788602D01*
X41792704Y-91727307D01*
X41800035Y-91665903D01*
X41810969Y-91600068D01*
X41826147Y-91525480D01*
X41846209Y-91437816D01*
X41871797Y-91332755D01*
X41878820Y-91304194D01*
X41896776Y-91228946D01*
X41912820Y-91158612D01*
X41926028Y-91097433D01*
X41935474Y-91049646D01*
X41940231Y-91019489D01*
X41943910Y-90991217D01*
X41949187Y-90964940D01*
X41953942Y-90954941D01*
X41962781Y-90958048D01*
X41990072Y-90968806D01*
X42032906Y-90986136D01*
X42088425Y-91008874D01*
X42153772Y-91035853D01*
X42226089Y-91065910D01*
X42241879Y-91072507D01*
X42332484Y-91111093D01*
X42402217Y-91142232D01*
X42451405Y-91166083D01*
X42480374Y-91182802D01*
X42489452Y-91192546D01*
X42487405Y-91200234D01*
X42477760Y-91226585D01*
X42462190Y-91265018D01*
X42442815Y-91310178D01*
X42404814Y-91404707D01*
X42363780Y-91541520D01*
X42338612Y-91682711D01*
X42334611Y-91720686D01*
X42332447Y-91823941D01*
X42345622Y-91911048D01*
X42374756Y-91982871D01*
X42420466Y-92040269D01*
X42483372Y-92084104D01*
X42564092Y-92115238D01*
X42663245Y-92134530D01*
X42722224Y-92141950D01*
X42715445Y-91980064D01*
X42715110Y-91954106D01*
X43237842Y-91954106D01*
X43237857Y-91962993D01*
X43238655Y-92018340D01*
X43240488Y-92065264D01*
X43243111Y-92099047D01*
X43246274Y-92114972D01*
X43252741Y-92119057D01*
X43274875Y-92123428D01*
X43313988Y-92126396D01*
X43371939Y-92128086D01*
X43450586Y-92128622D01*
X43646462Y-92128622D01*
X43702973Y-92083952D01*
X43718212Y-92071215D01*
X43760844Y-92024396D01*
X43796672Y-91963745D01*
X43801850Y-91953103D01*
X43818745Y-91914324D01*
X43828909Y-91879308D01*
X43834325Y-91839278D01*
X43836978Y-91785459D01*
X43837383Y-91767352D01*
X43834540Y-91691989D01*
X43822620Y-91631257D01*
X43800037Y-91579548D01*
X43765211Y-91531254D01*
X43760798Y-91526197D01*
X43705160Y-91477728D01*
X43641333Y-91449541D01*
X43566282Y-91440248D01*
X43494693Y-91447480D01*
X43431645Y-91472204D01*
X43373758Y-91516751D01*
X43326808Y-91571681D01*
X43286961Y-91644106D01*
X43259263Y-91730660D01*
X43243096Y-91833330D01*
X43237842Y-91954106D01*
X42715110Y-91954106D01*
X42713813Y-91853505D01*
X42720194Y-91702049D01*
X42734777Y-91553604D01*
X42756882Y-91417422D01*
X42771821Y-91352755D01*
X42814741Y-91220510D01*
X42871340Y-91098238D01*
X42940017Y-90988315D01*
X43019170Y-90893117D01*
X43107196Y-90815020D01*
X43202493Y-90756401D01*
X43254864Y-90732405D01*
X43325590Y-90706768D01*
X43396812Y-90690522D01*
X43475712Y-90682178D01*
X43566282Y-90680310D01*
X43569467Y-90680245D01*
X43603363Y-90680739D01*
G37*
X40415054Y-86461600D02*
X40528993Y-86472465D01*
X40636616Y-86504082D01*
X40735615Y-86554985D01*
X40823684Y-86623707D01*
X40898516Y-86708781D01*
X40956384Y-86805768D01*
X40996005Y-86912036D01*
X41014573Y-87019050D01*
X41013434Y-87124700D01*
X40993930Y-87226875D01*
X40957406Y-87323466D01*
X40905205Y-87412362D01*
X40838673Y-87491454D01*
X40759152Y-87558631D01*
X40667987Y-87611783D01*
X40566523Y-87648801D01*
X40456102Y-87667573D01*
X40406206Y-87669511D01*
X40318267Y-87669511D01*
X40318267Y-87721440D01*
X40321111Y-87757747D01*
X40332911Y-87784645D01*
X40356649Y-87811751D01*
X40395031Y-87850133D01*
X42586602Y-87850133D01*
X42848739Y-87850124D01*
X43089241Y-87850092D01*
X43309048Y-87850028D01*
X43509101Y-87849924D01*
X43690344Y-87849773D01*
X43853716Y-87849566D01*
X44000160Y-87849294D01*
X44130617Y-87848950D01*
X44246029Y-87848526D01*
X44347338Y-87848013D01*
X44435484Y-87847403D01*
X44511410Y-87846688D01*
X44576057Y-87845860D01*
X44630367Y-87844911D01*
X44675280Y-87843833D01*
X44711740Y-87842617D01*
X44740687Y-87841255D01*
X44763063Y-87839739D01*
X44779809Y-87838062D01*
X44791868Y-87836214D01*
X44800180Y-87834187D01*
X44805687Y-87831975D01*
X44807537Y-87830892D01*
X44814549Y-87826729D01*
X44820996Y-87823195D01*
X44826900Y-87819365D01*
X44832286Y-87814318D01*
X44837178Y-87807129D01*
X44841598Y-87796877D01*
X44845572Y-87782636D01*
X44849121Y-87763486D01*
X44852270Y-87738501D01*
X44855042Y-87706760D01*
X44857461Y-87667338D01*
X44859551Y-87619314D01*
X44861335Y-87561763D01*
X44862837Y-87493763D01*
X44864080Y-87414390D01*
X44865089Y-87322721D01*
X44865885Y-87217834D01*
X44866494Y-87098804D01*
X44866939Y-86964710D01*
X44867243Y-86814627D01*
X44867430Y-86647633D01*
X44867524Y-86462804D01*
X44867548Y-86259217D01*
X44867525Y-86035950D01*
X44867480Y-85792078D01*
X44867437Y-85526679D01*
X44867432Y-85488296D01*
X44867389Y-85221318D01*
X44867318Y-84975998D01*
X44867213Y-84751417D01*
X44867066Y-84546655D01*
X44866869Y-84360794D01*
X44866616Y-84192912D01*
X44866300Y-84042092D01*
X44865913Y-83907413D01*
X44865447Y-83787956D01*
X44864897Y-83682801D01*
X44864253Y-83591029D01*
X44863511Y-83511721D01*
X44862661Y-83443957D01*
X44861697Y-83386818D01*
X44860611Y-83339383D01*
X44859397Y-83300734D01*
X44858047Y-83269951D01*
X44856555Y-83246115D01*
X44854911Y-83228306D01*
X44853111Y-83215605D01*
X44851145Y-83207092D01*
X44849477Y-83202734D01*
X44845906Y-83194272D01*
X44843270Y-83186503D01*
X44840634Y-83179398D01*
X44837062Y-83172927D01*
X44831621Y-83167061D01*
X44823375Y-83161771D01*
X44811390Y-83157026D01*
X44794731Y-83152798D01*
X44772463Y-83149057D01*
X44743652Y-83145773D01*
X44707363Y-83142917D01*
X44662661Y-83140460D01*
X44608611Y-83138371D01*
X44544279Y-83136622D01*
X44468730Y-83135183D01*
X44381030Y-83134024D01*
X44280243Y-83133117D01*
X44165434Y-83132431D01*
X44035670Y-83131937D01*
X43890015Y-83131605D01*
X43727535Y-83131407D01*
X43547295Y-83131313D01*
X43348360Y-83131292D01*
X43129796Y-83131315D01*
X42890668Y-83131354D01*
X42630040Y-83131378D01*
X42587889Y-83131378D01*
X42324992Y-83131364D01*
X42083732Y-83131339D01*
X41863165Y-83131329D01*
X41662352Y-83131358D01*
X41480349Y-83131452D01*
X41316216Y-83131638D01*
X41169011Y-83131941D01*
X41037792Y-83132386D01*
X40927867Y-83132966D01*
X40927867Y-83435803D01*
X40985711Y-83475593D01*
X41001479Y-83486764D01*
X41015441Y-83496834D01*
X41028784Y-83505862D01*
X41042693Y-83513903D01*
X41058356Y-83521014D01*
X41076958Y-83527253D01*
X41099686Y-83532675D01*
X41127727Y-83537338D01*
X41162267Y-83541299D01*
X41204492Y-83544615D01*
X41255589Y-83547341D01*
X41316744Y-83549536D01*
X41389144Y-83551255D01*
X41473975Y-83552556D01*
X41572422Y-83553495D01*
X41685674Y-83554130D01*
X41814916Y-83554516D01*
X41961334Y-83554712D01*
X42126116Y-83554773D01*
X42310447Y-83554757D01*
X42515513Y-83554720D01*
X42638133Y-83554711D01*
X42855082Y-83554735D01*
X43050642Y-83554769D01*
X43225999Y-83554757D01*
X43382341Y-83554642D01*
X43520857Y-83554370D01*
X43642734Y-83553882D01*
X43749160Y-83553124D01*
X43841322Y-83552038D01*
X43920409Y-83550569D01*
X43987608Y-83548660D01*
X44044107Y-83546256D01*
X44091093Y-83543299D01*
X44129755Y-83539734D01*
X44161280Y-83535505D01*
X44186855Y-83530554D01*
X44207670Y-83524827D01*
X44224911Y-83518267D01*
X44239765Y-83510817D01*
X44253422Y-83502421D01*
X44267069Y-83493024D01*
X44281893Y-83482568D01*
X44290783Y-83476477D01*
X44348400Y-83437704D01*
X44348400Y-83969268D01*
X44348365Y-84092517D01*
X44348215Y-84195013D01*
X44347878Y-84278580D01*
X44347286Y-84345044D01*
X44346367Y-84396229D01*
X44345051Y-84433959D01*
X44343269Y-84460060D01*
X44340951Y-84476356D01*
X44338026Y-84484672D01*
X44334424Y-84486832D01*
X44330075Y-84484661D01*
X44328645Y-84483465D01*
X44291573Y-84458315D01*
X44238772Y-84432417D01*
X44176770Y-84408808D01*
X44150357Y-84400539D01*
X44132416Y-84395922D01*
X44111355Y-84392021D01*
X44085089Y-84388752D01*
X44051532Y-84386034D01*
X44008599Y-84383785D01*
X43954204Y-84381923D01*
X43886262Y-84380364D01*
X43802688Y-84379028D01*
X43701395Y-84377831D01*
X43580300Y-84376692D01*
X43535600Y-84376315D01*
X43410449Y-84375298D01*
X43306082Y-84374540D01*
X43220707Y-84374097D01*
X43152533Y-84374030D01*
X43099765Y-84374395D01*
X43060614Y-84375252D01*
X43033285Y-84376659D01*
X43015986Y-84378675D01*
X43006926Y-84381357D01*
X43004312Y-84384764D01*
X43006351Y-84388956D01*
X43010667Y-84393429D01*
X43023602Y-84403784D01*
X43052676Y-84425842D01*
X43095759Y-84458043D01*
X43150718Y-84498826D01*
X43215423Y-84546630D01*
X43287742Y-84599895D01*
X43365544Y-84657060D01*
X43446698Y-84716563D01*
X43529072Y-84776845D01*
X43610536Y-84836345D01*
X43688957Y-84893502D01*
X43762204Y-84946755D01*
X43828147Y-84994543D01*
X43884654Y-85035307D01*
X43929593Y-85067484D01*
X43960834Y-85089515D01*
X43967466Y-85094083D01*
X44004369Y-85117004D01*
X44052359Y-85143812D01*
X44101897Y-85169211D01*
X44108577Y-85172432D01*
X44156772Y-85194110D01*
X44194334Y-85206696D01*
X44230160Y-85212426D01*
X44272200Y-85213544D01*
X44348400Y-85212910D01*
X44348400Y-86367349D01*
X44254669Y-86276185D01*
X44204775Y-86229388D01*
X44148295Y-86179101D01*
X44094026Y-86133056D01*
X44068673Y-86112631D01*
X44029128Y-86082193D01*
X43975916Y-86042138D01*
X43910667Y-85993639D01*
X43835011Y-85937865D01*
X43750577Y-85875989D01*
X43658994Y-85809181D01*
X43561892Y-85738613D01*
X43460901Y-85665455D01*
X43357650Y-85590879D01*
X43253768Y-85516056D01*
X43150885Y-85442157D01*
X43050631Y-85370354D01*
X42954636Y-85301816D01*
X42864527Y-85237716D01*
X42781936Y-85179225D01*
X42708492Y-85127514D01*
X42645824Y-85083753D01*
X42595561Y-85049115D01*
X42559334Y-85024770D01*
X42538771Y-85011889D01*
X42534668Y-85010131D01*
X42523342Y-85018090D01*
X42496162Y-85038885D01*
X42454829Y-85071153D01*
X42401044Y-85113530D01*
X42336506Y-85164653D01*
X42262918Y-85223159D01*
X42181978Y-85287686D01*
X42095388Y-85356869D01*
X42004848Y-85429347D01*
X41912060Y-85503754D01*
X41837702Y-85563483D01*
X41837702Y-86574489D01*
X41850659Y-86580398D01*
X41872908Y-86594728D01*
X41874391Y-86595775D01*
X41904544Y-86614562D01*
X41941375Y-86634209D01*
X41949511Y-86638108D01*
X41957940Y-86641644D01*
X41968059Y-86644770D01*
X41981260Y-86647514D01*
X41998938Y-86649908D01*
X42022484Y-86651981D01*
X42053293Y-86653765D01*
X42092757Y-86655288D01*
X42142269Y-86656581D01*
X42203223Y-86657674D01*
X42277011Y-86658597D01*
X42365028Y-86659381D01*
X42468665Y-86660055D01*
X42589316Y-86660650D01*
X42728374Y-86661195D01*
X42887232Y-86661721D01*
X43066089Y-86662255D01*
X43251207Y-86662794D01*
X43415145Y-86663228D01*
X43559303Y-86663491D01*
X43685079Y-86663516D01*
X43793871Y-86663235D01*
X43887077Y-86662581D01*
X43966097Y-86661486D01*
X44032328Y-86659882D01*
X44087170Y-86657703D01*
X44132021Y-86654881D01*
X44168278Y-86651349D01*
X44197341Y-86647039D01*
X44220609Y-86641883D01*
X44239479Y-86635815D01*
X44255351Y-86628767D01*
X44269622Y-86620671D01*
X44283691Y-86611460D01*
X44296158Y-86602960D01*
X44322452Y-86585824D01*
X44340037Y-86575678D01*
X44343257Y-86574489D01*
X44344334Y-86585396D01*
X44345335Y-86616589D01*
X44346235Y-86665777D01*
X44347010Y-86730667D01*
X44347637Y-86808970D01*
X44348091Y-86898393D01*
X44348349Y-86996644D01*
X44348400Y-87065555D01*
X44348180Y-87170548D01*
X44347548Y-87267390D01*
X44346549Y-87353893D01*
X44345227Y-87427868D01*
X44343626Y-87487126D01*
X44341791Y-87529480D01*
X44339765Y-87552740D01*
X44338493Y-87556622D01*
X44323591Y-87548924D01*
X44315560Y-87540926D01*
X44298434Y-87527754D01*
X44268183Y-87510515D01*
X44243622Y-87498593D01*
X44184711Y-87471955D01*
X43007845Y-87468880D01*
X41830978Y-87465805D01*
X41830978Y-87020147D01*
X41831142Y-86922330D01*
X41831611Y-86831936D01*
X41832347Y-86751370D01*
X41833316Y-86683038D01*
X41834480Y-86629344D01*
X41835803Y-86592695D01*
X41837249Y-86575496D01*
X41837702Y-86574489D01*
X41837702Y-85563483D01*
X41818722Y-85578730D01*
X41726537Y-85652910D01*
X41637204Y-85724931D01*
X41552424Y-85793431D01*
X41473898Y-85857045D01*
X41403326Y-85914412D01*
X41342409Y-85964167D01*
X41292847Y-86004948D01*
X41272178Y-86022112D01*
X41171516Y-86108404D01*
X41088259Y-86185003D01*
X41020438Y-86253817D01*
X40966089Y-86316752D01*
X40958722Y-86326133D01*
X40928117Y-86365644D01*
X40927867Y-85233884D01*
X40975844Y-85239173D01*
X41033188Y-85235870D01*
X41101463Y-85214339D01*
X41181212Y-85174365D01*
X41253495Y-85129057D01*
X41276140Y-85112839D01*
X41313696Y-85084786D01*
X41364021Y-85046570D01*
X41424973Y-84999863D01*
X41494411Y-84946339D01*
X41570194Y-84887669D01*
X41650180Y-84825525D01*
X41732228Y-84761579D01*
X41814196Y-84697505D01*
X41893943Y-84634973D01*
X41969327Y-84575657D01*
X42038207Y-84521229D01*
X42098442Y-84473361D01*
X42147889Y-84433725D01*
X42184408Y-84403994D01*
X42205858Y-84385839D01*
X42209156Y-84382780D01*
X42201149Y-84379921D01*
X42170855Y-84377707D01*
X42118556Y-84376143D01*
X42044531Y-84375233D01*
X41949063Y-84374980D01*
X41832434Y-84375387D01*
X41712445Y-84376296D01*
X41580333Y-84377618D01*
X41468594Y-84379143D01*
X41375025Y-84381119D01*
X41297419Y-84383794D01*
X41233574Y-84387418D01*
X41181283Y-84392239D01*
X41138344Y-84398506D01*
X41102551Y-84406468D01*
X41071700Y-84416373D01*
X41043586Y-84428469D01*
X41016005Y-84443007D01*
X40990966Y-84457689D01*
X40927867Y-84495686D01*
X40927867Y-83435803D01*
X40927867Y-83132966D01*
X40921617Y-83132999D01*
X40819544Y-83133805D01*
X40730633Y-83134830D01*
X40653941Y-83136100D01*
X40588527Y-83137640D01*
X40533449Y-83139476D01*
X40487765Y-83141633D01*
X40450534Y-83144137D01*
X40420813Y-83147013D01*
X40397662Y-83150287D01*
X40380139Y-83153985D01*
X40367301Y-83158131D01*
X40358208Y-83162753D01*
X40351918Y-83167874D01*
X40347488Y-83173522D01*
X40343978Y-83179721D01*
X40340445Y-83186496D01*
X40336876Y-83192492D01*
X40334300Y-83197725D01*
X40331972Y-83205901D01*
X40329878Y-83218114D01*
X40328007Y-83235459D01*
X40326347Y-83259031D01*
X40324884Y-83289923D01*
X40323608Y-83329232D01*
X40322504Y-83378050D01*
X40321561Y-83437473D01*
X40320767Y-83508596D01*
X40320109Y-83592512D01*
X40319575Y-83690317D01*
X40319153Y-83803106D01*
X40318829Y-83931971D01*
X40318592Y-84078009D01*
X40318430Y-84242314D01*
X40318330Y-84425980D01*
X40318280Y-84630103D01*
X40318267Y-84841247D01*
X40318267Y-86461600D01*
X40415054Y-86461600D01*
G36*
X43547295Y-83131313D02*
G01*
X43727535Y-83131407D01*
X43890015Y-83131605D01*
X44035670Y-83131937D01*
X44165434Y-83132431D01*
X44280243Y-83133117D01*
X44381030Y-83134024D01*
X44468730Y-83135183D01*
X44544279Y-83136622D01*
X44608611Y-83138371D01*
X44662661Y-83140460D01*
X44707363Y-83142917D01*
X44743652Y-83145773D01*
X44772463Y-83149057D01*
X44794731Y-83152798D01*
X44811390Y-83157026D01*
X44823375Y-83161771D01*
X44831621Y-83167061D01*
X44837062Y-83172927D01*
X44840634Y-83179398D01*
X44843270Y-83186503D01*
X44845906Y-83194272D01*
X44849477Y-83202734D01*
X44851145Y-83207092D01*
X44853111Y-83215605D01*
X44854911Y-83228306D01*
X44856555Y-83246115D01*
X44858047Y-83269951D01*
X44859397Y-83300734D01*
X44860611Y-83339383D01*
X44861697Y-83386818D01*
X44862661Y-83443957D01*
X44863511Y-83511721D01*
X44864253Y-83591029D01*
X44864897Y-83682801D01*
X44865447Y-83787956D01*
X44865913Y-83907413D01*
X44866300Y-84042092D01*
X44866616Y-84192912D01*
X44866869Y-84360794D01*
X44867066Y-84546655D01*
X44867213Y-84751417D01*
X44867318Y-84975998D01*
X44867389Y-85221318D01*
X44867432Y-85488296D01*
X44867437Y-85526679D01*
X44867480Y-85792078D01*
X44867525Y-86035950D01*
X44867548Y-86259217D01*
X44867524Y-86462804D01*
X44867430Y-86647633D01*
X44867243Y-86814627D01*
X44866939Y-86964710D01*
X44866494Y-87098804D01*
X44865885Y-87217834D01*
X44865089Y-87322721D01*
X44864080Y-87414390D01*
X44862837Y-87493763D01*
X44861335Y-87561763D01*
X44859551Y-87619314D01*
X44857461Y-87667338D01*
X44855042Y-87706760D01*
X44852270Y-87738501D01*
X44849121Y-87763486D01*
X44845572Y-87782636D01*
X44841598Y-87796877D01*
X44837178Y-87807129D01*
X44832286Y-87814318D01*
X44826900Y-87819365D01*
X44820996Y-87823195D01*
X44814549Y-87826729D01*
X44807537Y-87830892D01*
X44805687Y-87831975D01*
X44800180Y-87834187D01*
X44791868Y-87836214D01*
X44779809Y-87838062D01*
X44763063Y-87839739D01*
X44740687Y-87841255D01*
X44711740Y-87842617D01*
X44675280Y-87843833D01*
X44630367Y-87844911D01*
X44576057Y-87845860D01*
X44511410Y-87846688D01*
X44435484Y-87847403D01*
X44347338Y-87848013D01*
X44246029Y-87848526D01*
X44130617Y-87848950D01*
X44000160Y-87849294D01*
X43853716Y-87849566D01*
X43690344Y-87849773D01*
X43509101Y-87849924D01*
X43309048Y-87850028D01*
X43089241Y-87850092D01*
X42848739Y-87850124D01*
X42586602Y-87850133D01*
X40395031Y-87850133D01*
X40356649Y-87811751D01*
X40332911Y-87784645D01*
X40321111Y-87757747D01*
X40318267Y-87721440D01*
X40318267Y-87669511D01*
X40406206Y-87669511D01*
X40456102Y-87667573D01*
X40566523Y-87648801D01*
X40667987Y-87611783D01*
X40759152Y-87558631D01*
X40838673Y-87491454D01*
X40905205Y-87412362D01*
X40957406Y-87323466D01*
X40993930Y-87226875D01*
X41013434Y-87124700D01*
X41014561Y-87020147D01*
X41830978Y-87020147D01*
X41830978Y-87465805D01*
X43007845Y-87468880D01*
X44184711Y-87471955D01*
X44243622Y-87498593D01*
X44268183Y-87510515D01*
X44298434Y-87527754D01*
X44315560Y-87540926D01*
X44323591Y-87548924D01*
X44338493Y-87556622D01*
X44339765Y-87552740D01*
X44341791Y-87529480D01*
X44343626Y-87487126D01*
X44345227Y-87427868D01*
X44346549Y-87353893D01*
X44347548Y-87267390D01*
X44348180Y-87170548D01*
X44348400Y-87065555D01*
X44348349Y-86996644D01*
X44348091Y-86898393D01*
X44347637Y-86808970D01*
X44347010Y-86730667D01*
X44346235Y-86665777D01*
X44345335Y-86616589D01*
X44344334Y-86585396D01*
X44343257Y-86574489D01*
X44340037Y-86575678D01*
X44322452Y-86585824D01*
X44296158Y-86602960D01*
X44283691Y-86611460D01*
X44269622Y-86620671D01*
X44255351Y-86628767D01*
X44239479Y-86635815D01*
X44220609Y-86641883D01*
X44197341Y-86647039D01*
X44168278Y-86651349D01*
X44132021Y-86654881D01*
X44087170Y-86657703D01*
X44032328Y-86659882D01*
X43966097Y-86661486D01*
X43887077Y-86662581D01*
X43793871Y-86663235D01*
X43685079Y-86663516D01*
X43559303Y-86663491D01*
X43415145Y-86663228D01*
X43251207Y-86662794D01*
X43066089Y-86662255D01*
X42887232Y-86661721D01*
X42728374Y-86661195D01*
X42589316Y-86660650D01*
X42468665Y-86660055D01*
X42365028Y-86659381D01*
X42277011Y-86658597D01*
X42203223Y-86657674D01*
X42142269Y-86656581D01*
X42092757Y-86655288D01*
X42053293Y-86653765D01*
X42022484Y-86651981D01*
X41998938Y-86649908D01*
X41981260Y-86647514D01*
X41968059Y-86644770D01*
X41957940Y-86641644D01*
X41949511Y-86638108D01*
X41941375Y-86634209D01*
X41904544Y-86614562D01*
X41874391Y-86595775D01*
X41872908Y-86594728D01*
X41850659Y-86580398D01*
X41837702Y-86574489D01*
X41837249Y-86575496D01*
X41835803Y-86592695D01*
X41834480Y-86629344D01*
X41833316Y-86683038D01*
X41832347Y-86751370D01*
X41831611Y-86831936D01*
X41831142Y-86922330D01*
X41830978Y-87020147D01*
X41014561Y-87020147D01*
X41014573Y-87019050D01*
X40996005Y-86912036D01*
X40956384Y-86805768D01*
X40898516Y-86708781D01*
X40823684Y-86623707D01*
X40735615Y-86554985D01*
X40636616Y-86504082D01*
X40528993Y-86472465D01*
X40415054Y-86461600D01*
X40318267Y-86461600D01*
X40318267Y-84841247D01*
X40318280Y-84630103D01*
X40318313Y-84495686D01*
X40927867Y-84495686D01*
X40990966Y-84457689D01*
X41016005Y-84443007D01*
X41043586Y-84428469D01*
X41071700Y-84416373D01*
X41102551Y-84406468D01*
X41138344Y-84398506D01*
X41181283Y-84392239D01*
X41233574Y-84387418D01*
X41297419Y-84383794D01*
X41375025Y-84381119D01*
X41468594Y-84379143D01*
X41580333Y-84377618D01*
X41712445Y-84376296D01*
X41832434Y-84375387D01*
X41949063Y-84374980D01*
X42044531Y-84375233D01*
X42118556Y-84376143D01*
X42170855Y-84377707D01*
X42201149Y-84379921D01*
X42209156Y-84382780D01*
X42205858Y-84385839D01*
X42184408Y-84403994D01*
X42147889Y-84433725D01*
X42098442Y-84473361D01*
X42038207Y-84521229D01*
X41969327Y-84575657D01*
X41893943Y-84634973D01*
X41814196Y-84697505D01*
X41732228Y-84761579D01*
X41650180Y-84825525D01*
X41570194Y-84887669D01*
X41494411Y-84946339D01*
X41424973Y-84999863D01*
X41364021Y-85046570D01*
X41313696Y-85084786D01*
X41276140Y-85112839D01*
X41253495Y-85129057D01*
X41181212Y-85174365D01*
X41101463Y-85214339D01*
X41033188Y-85235870D01*
X40975844Y-85239173D01*
X40927867Y-85233884D01*
X40928117Y-86365644D01*
X40958722Y-86326133D01*
X40966089Y-86316752D01*
X41020438Y-86253817D01*
X41088259Y-86185003D01*
X41171516Y-86108404D01*
X41272178Y-86022112D01*
X41292847Y-86004948D01*
X41342409Y-85964167D01*
X41403326Y-85914412D01*
X41473898Y-85857045D01*
X41552424Y-85793431D01*
X41637204Y-85724931D01*
X41726537Y-85652910D01*
X41818722Y-85578730D01*
X41837702Y-85563483D01*
X41912060Y-85503754D01*
X42004848Y-85429347D01*
X42095388Y-85356869D01*
X42181978Y-85287686D01*
X42262918Y-85223159D01*
X42336506Y-85164653D01*
X42401044Y-85113530D01*
X42454829Y-85071153D01*
X42496162Y-85038885D01*
X42523342Y-85018090D01*
X42534668Y-85010131D01*
X42538771Y-85011889D01*
X42559334Y-85024770D01*
X42595561Y-85049115D01*
X42645824Y-85083753D01*
X42708492Y-85127514D01*
X42781936Y-85179225D01*
X42864527Y-85237716D01*
X42954636Y-85301816D01*
X43050631Y-85370354D01*
X43150885Y-85442157D01*
X43253768Y-85516056D01*
X43357650Y-85590879D01*
X43460901Y-85665455D01*
X43561892Y-85738613D01*
X43658994Y-85809181D01*
X43750577Y-85875989D01*
X43835011Y-85937865D01*
X43910667Y-85993639D01*
X43975916Y-86042138D01*
X44029128Y-86082193D01*
X44068673Y-86112631D01*
X44094026Y-86133056D01*
X44148295Y-86179101D01*
X44204775Y-86229388D01*
X44254669Y-86276185D01*
X44348400Y-86367349D01*
X44348400Y-85212910D01*
X44272200Y-85213544D01*
X44230160Y-85212426D01*
X44194334Y-85206696D01*
X44156772Y-85194110D01*
X44108577Y-85172432D01*
X44101897Y-85169211D01*
X44052359Y-85143812D01*
X44004369Y-85117004D01*
X43967466Y-85094083D01*
X43960834Y-85089515D01*
X43929593Y-85067484D01*
X43884654Y-85035307D01*
X43828147Y-84994543D01*
X43762204Y-84946755D01*
X43688957Y-84893502D01*
X43610536Y-84836345D01*
X43529072Y-84776845D01*
X43446698Y-84716563D01*
X43365544Y-84657060D01*
X43287742Y-84599895D01*
X43215423Y-84546630D01*
X43150718Y-84498826D01*
X43095759Y-84458043D01*
X43052676Y-84425842D01*
X43023602Y-84403784D01*
X43010667Y-84393429D01*
X43006351Y-84388956D01*
X43004312Y-84384764D01*
X43006926Y-84381357D01*
X43015986Y-84378675D01*
X43033285Y-84376659D01*
X43060614Y-84375252D01*
X43099765Y-84374395D01*
X43152533Y-84374030D01*
X43220707Y-84374097D01*
X43306082Y-84374540D01*
X43410449Y-84375298D01*
X43535600Y-84376315D01*
X43580300Y-84376692D01*
X43701395Y-84377831D01*
X43802688Y-84379028D01*
X43886262Y-84380364D01*
X43954204Y-84381923D01*
X44008599Y-84383785D01*
X44051532Y-84386034D01*
X44085089Y-84388752D01*
X44111355Y-84392021D01*
X44132416Y-84395922D01*
X44150357Y-84400539D01*
X44176770Y-84408808D01*
X44238772Y-84432417D01*
X44291573Y-84458315D01*
X44328645Y-84483465D01*
X44330075Y-84484661D01*
X44334424Y-84486832D01*
X44338026Y-84484672D01*
X44340951Y-84476356D01*
X44343269Y-84460060D01*
X44345051Y-84433959D01*
X44346367Y-84396229D01*
X44347286Y-84345044D01*
X44347878Y-84278580D01*
X44348215Y-84195013D01*
X44348365Y-84092517D01*
X44348400Y-83969268D01*
X44348400Y-83437704D01*
X44290783Y-83476477D01*
X44281893Y-83482568D01*
X44267069Y-83493024D01*
X44253422Y-83502421D01*
X44239765Y-83510817D01*
X44224911Y-83518267D01*
X44207670Y-83524827D01*
X44186855Y-83530554D01*
X44161280Y-83535505D01*
X44129755Y-83539734D01*
X44091093Y-83543299D01*
X44044107Y-83546256D01*
X43987608Y-83548660D01*
X43920409Y-83550569D01*
X43841322Y-83552038D01*
X43749160Y-83553124D01*
X43642734Y-83553882D01*
X43520857Y-83554370D01*
X43382341Y-83554642D01*
X43225999Y-83554757D01*
X43050642Y-83554769D01*
X42855082Y-83554735D01*
X42638133Y-83554711D01*
X42515513Y-83554720D01*
X42310447Y-83554757D01*
X42126116Y-83554773D01*
X41961334Y-83554712D01*
X41814916Y-83554516D01*
X41685674Y-83554130D01*
X41572422Y-83553495D01*
X41473975Y-83552556D01*
X41389144Y-83551255D01*
X41316744Y-83549536D01*
X41255589Y-83547341D01*
X41204492Y-83544615D01*
X41162267Y-83541299D01*
X41127727Y-83537338D01*
X41099686Y-83532675D01*
X41076958Y-83527253D01*
X41058356Y-83521014D01*
X41042693Y-83513903D01*
X41028784Y-83505862D01*
X41015441Y-83496834D01*
X41001479Y-83486764D01*
X40985711Y-83475593D01*
X40927867Y-83435803D01*
X40927867Y-84495686D01*
X40318313Y-84495686D01*
X40318330Y-84425980D01*
X40318430Y-84242314D01*
X40318592Y-84078009D01*
X40318829Y-83931971D01*
X40319153Y-83803106D01*
X40319575Y-83690317D01*
X40320109Y-83592512D01*
X40320767Y-83508596D01*
X40321561Y-83437473D01*
X40322504Y-83378050D01*
X40323608Y-83329232D01*
X40324884Y-83289923D01*
X40326347Y-83259031D01*
X40328007Y-83235459D01*
X40329878Y-83218114D01*
X40331972Y-83205901D01*
X40334300Y-83197725D01*
X40336876Y-83192492D01*
X40340445Y-83186496D01*
X40343978Y-83179721D01*
X40347488Y-83173522D01*
X40351918Y-83167874D01*
X40358208Y-83162753D01*
X40367301Y-83158131D01*
X40380139Y-83153985D01*
X40397662Y-83150287D01*
X40420813Y-83147013D01*
X40450534Y-83144137D01*
X40487765Y-83141633D01*
X40533449Y-83139476D01*
X40588527Y-83137640D01*
X40653941Y-83136100D01*
X40730633Y-83134830D01*
X40819544Y-83133805D01*
X40921617Y-83132999D01*
X40927867Y-83132966D01*
X41037792Y-83132386D01*
X41169011Y-83131941D01*
X41316216Y-83131638D01*
X41480349Y-83131452D01*
X41662352Y-83131358D01*
X41863165Y-83131329D01*
X42083732Y-83131339D01*
X42324992Y-83131364D01*
X42587889Y-83131378D01*
X42630040Y-83131378D01*
X42890668Y-83131354D01*
X43129796Y-83131315D01*
X43348360Y-83131292D01*
X43547295Y-83131313D01*
G37*
%TD*%
M02*
