%TF.GenerationSoftware,KiCad,Pcbnew,10.0.3*%
%TF.CreationDate,2026-09-08T12:33:45+03:00*%
%TF.ProjectId,Breadboard Power Supply,42726561-6462-46f6-9172-6420506f7765,rev?*%
%TF.SameCoordinates,Original*%
%TF.FileFunction,Legend,Top*%
%TF.FilePolarity,Positive*%
%FSLAX46Y46*%
G04 Gerber Fmt 4.6, Leading zero omitted, Abs format (unit mm)*
G04 Created by KiCad (PCBNEW 10.0.3) date 2026-09-08 12:33:45*
%MOMM*%
%LPD*%
G01*
G04 APERTURE LIST*
%ADD10C,0.100000*%
%ADD11C,0.150000*%
%ADD12C,0.125000*%
%ADD13C,0.120000*%
%ADD14C,0.152400*%
G04 APERTURE END LIST*
D10*
X26878646Y-98440419D02*
X27497693Y-98440419D01*
X27497693Y-98440419D02*
X27164360Y-98821371D01*
X27164360Y-98821371D02*
X27307217Y-98821371D01*
X27307217Y-98821371D02*
X27402455Y-98868990D01*
X27402455Y-98868990D02*
X27450074Y-98916609D01*
X27450074Y-98916609D02*
X27497693Y-99011847D01*
X27497693Y-99011847D02*
X27497693Y-99249942D01*
X27497693Y-99249942D02*
X27450074Y-99345180D01*
X27450074Y-99345180D02*
X27402455Y-99392800D01*
X27402455Y-99392800D02*
X27307217Y-99440419D01*
X27307217Y-99440419D02*
X27021503Y-99440419D01*
X27021503Y-99440419D02*
X26926265Y-99392800D01*
X26926265Y-99392800D02*
X26878646Y-99345180D01*
X27926265Y-99345180D02*
X27973884Y-99392800D01*
X27973884Y-99392800D02*
X27926265Y-99440419D01*
X27926265Y-99440419D02*
X27878646Y-99392800D01*
X27878646Y-99392800D02*
X27926265Y-99345180D01*
X27926265Y-99345180D02*
X27926265Y-99440419D01*
X28307217Y-98440419D02*
X28926264Y-98440419D01*
X28926264Y-98440419D02*
X28592931Y-98821371D01*
X28592931Y-98821371D02*
X28735788Y-98821371D01*
X28735788Y-98821371D02*
X28831026Y-98868990D01*
X28831026Y-98868990D02*
X28878645Y-98916609D01*
X28878645Y-98916609D02*
X28926264Y-99011847D01*
X28926264Y-99011847D02*
X28926264Y-99249942D01*
X28926264Y-99249942D02*
X28878645Y-99345180D01*
X28878645Y-99345180D02*
X28831026Y-99392800D01*
X28831026Y-99392800D02*
X28735788Y-99440419D01*
X28735788Y-99440419D02*
X28450074Y-99440419D01*
X28450074Y-99440419D02*
X28354836Y-99392800D01*
X28354836Y-99392800D02*
X28307217Y-99345180D01*
X29211979Y-98440419D02*
X29545312Y-99440419D01*
X29545312Y-99440419D02*
X29878645Y-98440419D01*
X27132646Y-55260419D02*
X27751693Y-55260419D01*
X27751693Y-55260419D02*
X27418360Y-55641371D01*
X27418360Y-55641371D02*
X27561217Y-55641371D01*
X27561217Y-55641371D02*
X27656455Y-55688990D01*
X27656455Y-55688990D02*
X27704074Y-55736609D01*
X27704074Y-55736609D02*
X27751693Y-55831847D01*
X27751693Y-55831847D02*
X27751693Y-56069942D01*
X27751693Y-56069942D02*
X27704074Y-56165180D01*
X27704074Y-56165180D02*
X27656455Y-56212800D01*
X27656455Y-56212800D02*
X27561217Y-56260419D01*
X27561217Y-56260419D02*
X27275503Y-56260419D01*
X27275503Y-56260419D02*
X27180265Y-56212800D01*
X27180265Y-56212800D02*
X27132646Y-56165180D01*
X28180265Y-56165180D02*
X28227884Y-56212800D01*
X28227884Y-56212800D02*
X28180265Y-56260419D01*
X28180265Y-56260419D02*
X28132646Y-56212800D01*
X28132646Y-56212800D02*
X28180265Y-56165180D01*
X28180265Y-56165180D02*
X28180265Y-56260419D01*
X28561217Y-55260419D02*
X29180264Y-55260419D01*
X29180264Y-55260419D02*
X28846931Y-55641371D01*
X28846931Y-55641371D02*
X28989788Y-55641371D01*
X28989788Y-55641371D02*
X29085026Y-55688990D01*
X29085026Y-55688990D02*
X29132645Y-55736609D01*
X29132645Y-55736609D02*
X29180264Y-55831847D01*
X29180264Y-55831847D02*
X29180264Y-56069942D01*
X29180264Y-56069942D02*
X29132645Y-56165180D01*
X29132645Y-56165180D02*
X29085026Y-56212800D01*
X29085026Y-56212800D02*
X28989788Y-56260419D01*
X28989788Y-56260419D02*
X28704074Y-56260419D01*
X28704074Y-56260419D02*
X28608836Y-56212800D01*
X28608836Y-56212800D02*
X28561217Y-56165180D01*
X29465979Y-55260419D02*
X29799312Y-56260419D01*
X29799312Y-56260419D02*
X30132645Y-55260419D01*
X33546074Y-55260419D02*
X33069884Y-55260419D01*
X33069884Y-55260419D02*
X33022265Y-55736609D01*
X33022265Y-55736609D02*
X33069884Y-55688990D01*
X33069884Y-55688990D02*
X33165122Y-55641371D01*
X33165122Y-55641371D02*
X33403217Y-55641371D01*
X33403217Y-55641371D02*
X33498455Y-55688990D01*
X33498455Y-55688990D02*
X33546074Y-55736609D01*
X33546074Y-55736609D02*
X33593693Y-55831847D01*
X33593693Y-55831847D02*
X33593693Y-56069942D01*
X33593693Y-56069942D02*
X33546074Y-56165180D01*
X33546074Y-56165180D02*
X33498455Y-56212800D01*
X33498455Y-56212800D02*
X33403217Y-56260419D01*
X33403217Y-56260419D02*
X33165122Y-56260419D01*
X33165122Y-56260419D02*
X33069884Y-56212800D01*
X33069884Y-56212800D02*
X33022265Y-56165180D01*
X33879408Y-55260419D02*
X34212741Y-56260419D01*
X34212741Y-56260419D02*
X34546074Y-55260419D01*
X33546074Y-98440419D02*
X33069884Y-98440419D01*
X33069884Y-98440419D02*
X33022265Y-98916609D01*
X33022265Y-98916609D02*
X33069884Y-98868990D01*
X33069884Y-98868990D02*
X33165122Y-98821371D01*
X33165122Y-98821371D02*
X33403217Y-98821371D01*
X33403217Y-98821371D02*
X33498455Y-98868990D01*
X33498455Y-98868990D02*
X33546074Y-98916609D01*
X33546074Y-98916609D02*
X33593693Y-99011847D01*
X33593693Y-99011847D02*
X33593693Y-99249942D01*
X33593693Y-99249942D02*
X33546074Y-99345180D01*
X33546074Y-99345180D02*
X33498455Y-99392800D01*
X33498455Y-99392800D02*
X33403217Y-99440419D01*
X33403217Y-99440419D02*
X33165122Y-99440419D01*
X33165122Y-99440419D02*
X33069884Y-99392800D01*
X33069884Y-99392800D02*
X33022265Y-99345180D01*
X33879408Y-98440419D02*
X34212741Y-99440419D01*
X34212741Y-99440419D02*
X34546074Y-98440419D01*
X38673693Y-59880038D02*
X38578455Y-59832419D01*
X38578455Y-59832419D02*
X38435598Y-59832419D01*
X38435598Y-59832419D02*
X38292741Y-59880038D01*
X38292741Y-59880038D02*
X38197503Y-59975276D01*
X38197503Y-59975276D02*
X38149884Y-60070514D01*
X38149884Y-60070514D02*
X38102265Y-60260990D01*
X38102265Y-60260990D02*
X38102265Y-60403847D01*
X38102265Y-60403847D02*
X38149884Y-60594323D01*
X38149884Y-60594323D02*
X38197503Y-60689561D01*
X38197503Y-60689561D02*
X38292741Y-60784800D01*
X38292741Y-60784800D02*
X38435598Y-60832419D01*
X38435598Y-60832419D02*
X38530836Y-60832419D01*
X38530836Y-60832419D02*
X38673693Y-60784800D01*
X38673693Y-60784800D02*
X38721312Y-60737180D01*
X38721312Y-60737180D02*
X38721312Y-60403847D01*
X38721312Y-60403847D02*
X38530836Y-60403847D01*
X39149884Y-60832419D02*
X39149884Y-59832419D01*
X39149884Y-59832419D02*
X39721312Y-60832419D01*
X39721312Y-60832419D02*
X39721312Y-59832419D01*
X40197503Y-60832419D02*
X40197503Y-59832419D01*
X40197503Y-59832419D02*
X40435598Y-59832419D01*
X40435598Y-59832419D02*
X40578455Y-59880038D01*
X40578455Y-59880038D02*
X40673693Y-59975276D01*
X40673693Y-59975276D02*
X40721312Y-60070514D01*
X40721312Y-60070514D02*
X40768931Y-60260990D01*
X40768931Y-60260990D02*
X40768931Y-60403847D01*
X40768931Y-60403847D02*
X40721312Y-60594323D01*
X40721312Y-60594323D02*
X40673693Y-60689561D01*
X40673693Y-60689561D02*
X40578455Y-60784800D01*
X40578455Y-60784800D02*
X40435598Y-60832419D01*
X40435598Y-60832419D02*
X40197503Y-60832419D01*
X38340360Y-68722419D02*
X38530836Y-68722419D01*
X38530836Y-68722419D02*
X38626074Y-68770038D01*
X38626074Y-68770038D02*
X38721312Y-68865276D01*
X38721312Y-68865276D02*
X38768931Y-69055752D01*
X38768931Y-69055752D02*
X38768931Y-69389085D01*
X38768931Y-69389085D02*
X38721312Y-69579561D01*
X38721312Y-69579561D02*
X38626074Y-69674800D01*
X38626074Y-69674800D02*
X38530836Y-69722419D01*
X38530836Y-69722419D02*
X38340360Y-69722419D01*
X38340360Y-69722419D02*
X38245122Y-69674800D01*
X38245122Y-69674800D02*
X38149884Y-69579561D01*
X38149884Y-69579561D02*
X38102265Y-69389085D01*
X38102265Y-69389085D02*
X38102265Y-69055752D01*
X38102265Y-69055752D02*
X38149884Y-68865276D01*
X38149884Y-68865276D02*
X38245122Y-68770038D01*
X38245122Y-68770038D02*
X38340360Y-68722419D01*
X39197503Y-69722419D02*
X39197503Y-68722419D01*
X39197503Y-68722419D02*
X39768931Y-69722419D01*
X39768931Y-69722419D02*
X39768931Y-68722419D01*
X38673693Y-93916038D02*
X38578455Y-93868419D01*
X38578455Y-93868419D02*
X38435598Y-93868419D01*
X38435598Y-93868419D02*
X38292741Y-93916038D01*
X38292741Y-93916038D02*
X38197503Y-94011276D01*
X38197503Y-94011276D02*
X38149884Y-94106514D01*
X38149884Y-94106514D02*
X38102265Y-94296990D01*
X38102265Y-94296990D02*
X38102265Y-94439847D01*
X38102265Y-94439847D02*
X38149884Y-94630323D01*
X38149884Y-94630323D02*
X38197503Y-94725561D01*
X38197503Y-94725561D02*
X38292741Y-94820800D01*
X38292741Y-94820800D02*
X38435598Y-94868419D01*
X38435598Y-94868419D02*
X38530836Y-94868419D01*
X38530836Y-94868419D02*
X38673693Y-94820800D01*
X38673693Y-94820800D02*
X38721312Y-94773180D01*
X38721312Y-94773180D02*
X38721312Y-94439847D01*
X38721312Y-94439847D02*
X38530836Y-94439847D01*
X39149884Y-94868419D02*
X39149884Y-93868419D01*
X39149884Y-93868419D02*
X39721312Y-94868419D01*
X39721312Y-94868419D02*
X39721312Y-93868419D01*
X40197503Y-94868419D02*
X40197503Y-93868419D01*
X40197503Y-93868419D02*
X40435598Y-93868419D01*
X40435598Y-93868419D02*
X40578455Y-93916038D01*
X40578455Y-93916038D02*
X40673693Y-94011276D01*
X40673693Y-94011276D02*
X40721312Y-94106514D01*
X40721312Y-94106514D02*
X40768931Y-94296990D01*
X40768931Y-94296990D02*
X40768931Y-94439847D01*
X40768931Y-94439847D02*
X40721312Y-94630323D01*
X40721312Y-94630323D02*
X40673693Y-94725561D01*
X40673693Y-94725561D02*
X40578455Y-94820800D01*
X40578455Y-94820800D02*
X40435598Y-94868419D01*
X40435598Y-94868419D02*
X40197503Y-94868419D01*
X43674360Y-68722419D02*
X43864836Y-68722419D01*
X43864836Y-68722419D02*
X43960074Y-68770038D01*
X43960074Y-68770038D02*
X44055312Y-68865276D01*
X44055312Y-68865276D02*
X44102931Y-69055752D01*
X44102931Y-69055752D02*
X44102931Y-69389085D01*
X44102931Y-69389085D02*
X44055312Y-69579561D01*
X44055312Y-69579561D02*
X43960074Y-69674800D01*
X43960074Y-69674800D02*
X43864836Y-69722419D01*
X43864836Y-69722419D02*
X43674360Y-69722419D01*
X43674360Y-69722419D02*
X43579122Y-69674800D01*
X43579122Y-69674800D02*
X43483884Y-69579561D01*
X43483884Y-69579561D02*
X43436265Y-69389085D01*
X43436265Y-69389085D02*
X43436265Y-69055752D01*
X43436265Y-69055752D02*
X43483884Y-68865276D01*
X43483884Y-68865276D02*
X43579122Y-68770038D01*
X43579122Y-68770038D02*
X43674360Y-68722419D01*
X44864836Y-69198609D02*
X44531503Y-69198609D01*
X44531503Y-69722419D02*
X44531503Y-68722419D01*
X44531503Y-68722419D02*
X45007693Y-68722419D01*
X45721979Y-69198609D02*
X45388646Y-69198609D01*
X45388646Y-69722419D02*
X45388646Y-68722419D01*
X45388646Y-68722419D02*
X45864836Y-68722419D01*
X46531884Y-75945466D02*
X47293789Y-75945466D01*
X46912836Y-76326419D02*
X46912836Y-75564514D01*
X46531884Y-82803466D02*
X47293789Y-82803466D01*
X48196038Y-54036306D02*
X48148419Y-54131544D01*
X48148419Y-54131544D02*
X48148419Y-54274401D01*
X48148419Y-54274401D02*
X48196038Y-54417258D01*
X48196038Y-54417258D02*
X48291276Y-54512496D01*
X48291276Y-54512496D02*
X48386514Y-54560115D01*
X48386514Y-54560115D02*
X48576990Y-54607734D01*
X48576990Y-54607734D02*
X48719847Y-54607734D01*
X48719847Y-54607734D02*
X48910323Y-54560115D01*
X48910323Y-54560115D02*
X49005561Y-54512496D01*
X49005561Y-54512496D02*
X49100800Y-54417258D01*
X49100800Y-54417258D02*
X49148419Y-54274401D01*
X49148419Y-54274401D02*
X49148419Y-54179163D01*
X49148419Y-54179163D02*
X49100800Y-54036306D01*
X49100800Y-54036306D02*
X49053180Y-53988687D01*
X49053180Y-53988687D02*
X48719847Y-53988687D01*
X48719847Y-53988687D02*
X48719847Y-54179163D01*
X49148419Y-53560115D02*
X48148419Y-53560115D01*
X48148419Y-53560115D02*
X49148419Y-52988687D01*
X49148419Y-52988687D02*
X48148419Y-52988687D01*
X49148419Y-52512496D02*
X48148419Y-52512496D01*
X48148419Y-52512496D02*
X48148419Y-52274401D01*
X48148419Y-52274401D02*
X48196038Y-52131544D01*
X48196038Y-52131544D02*
X48291276Y-52036306D01*
X48291276Y-52036306D02*
X48386514Y-51988687D01*
X48386514Y-51988687D02*
X48576990Y-51941068D01*
X48576990Y-51941068D02*
X48719847Y-51941068D01*
X48719847Y-51941068D02*
X48910323Y-51988687D01*
X48910323Y-51988687D02*
X49005561Y-52036306D01*
X49005561Y-52036306D02*
X49100800Y-52131544D01*
X49100800Y-52131544D02*
X49148419Y-52274401D01*
X49148419Y-52274401D02*
X49148419Y-52512496D01*
D11*
X33140667Y-64040104D02*
X33102571Y-64078200D01*
X33102571Y-64078200D02*
X32988286Y-64116295D01*
X32988286Y-64116295D02*
X32912095Y-64116295D01*
X32912095Y-64116295D02*
X32797809Y-64078200D01*
X32797809Y-64078200D02*
X32721619Y-64002009D01*
X32721619Y-64002009D02*
X32683524Y-63925819D01*
X32683524Y-63925819D02*
X32645428Y-63773438D01*
X32645428Y-63773438D02*
X32645428Y-63659152D01*
X32645428Y-63659152D02*
X32683524Y-63506771D01*
X32683524Y-63506771D02*
X32721619Y-63430580D01*
X32721619Y-63430580D02*
X32797809Y-63354390D01*
X32797809Y-63354390D02*
X32912095Y-63316295D01*
X32912095Y-63316295D02*
X32988286Y-63316295D01*
X32988286Y-63316295D02*
X33102571Y-63354390D01*
X33102571Y-63354390D02*
X33140667Y-63392485D01*
X33902571Y-64116295D02*
X33445428Y-64116295D01*
X33674000Y-64116295D02*
X33674000Y-63316295D01*
X33674000Y-63316295D02*
X33597809Y-63430580D01*
X33597809Y-63430580D02*
X33521619Y-63506771D01*
X33521619Y-63506771D02*
X33445428Y-63544866D01*
X32759713Y-60560295D02*
X32302570Y-60560295D01*
X32531142Y-60560295D02*
X32531142Y-59760295D01*
X32531142Y-59760295D02*
X32454951Y-59874580D01*
X32454951Y-59874580D02*
X32378761Y-59950771D01*
X32378761Y-59950771D02*
X32302570Y-59988866D01*
X33254952Y-59760295D02*
X33331142Y-59760295D01*
X33331142Y-59760295D02*
X33407333Y-59798390D01*
X33407333Y-59798390D02*
X33445428Y-59836485D01*
X33445428Y-59836485D02*
X33483523Y-59912676D01*
X33483523Y-59912676D02*
X33521618Y-60065057D01*
X33521618Y-60065057D02*
X33521618Y-60255533D01*
X33521618Y-60255533D02*
X33483523Y-60407914D01*
X33483523Y-60407914D02*
X33445428Y-60484104D01*
X33445428Y-60484104D02*
X33407333Y-60522200D01*
X33407333Y-60522200D02*
X33331142Y-60560295D01*
X33331142Y-60560295D02*
X33254952Y-60560295D01*
X33254952Y-60560295D02*
X33178761Y-60522200D01*
X33178761Y-60522200D02*
X33140666Y-60484104D01*
X33140666Y-60484104D02*
X33102571Y-60407914D01*
X33102571Y-60407914D02*
X33064475Y-60255533D01*
X33064475Y-60255533D02*
X33064475Y-60065057D01*
X33064475Y-60065057D02*
X33102571Y-59912676D01*
X33102571Y-59912676D02*
X33140666Y-59836485D01*
X33140666Y-59836485D02*
X33178761Y-59798390D01*
X33178761Y-59798390D02*
X33254952Y-59760295D01*
X34207333Y-60026961D02*
X34207333Y-60560295D01*
X33864476Y-60026961D02*
X33864476Y-60446009D01*
X33864476Y-60446009D02*
X33902571Y-60522200D01*
X33902571Y-60522200D02*
X33978761Y-60560295D01*
X33978761Y-60560295D02*
X34093047Y-60560295D01*
X34093047Y-60560295D02*
X34169238Y-60522200D01*
X34169238Y-60522200D02*
X34207333Y-60484104D01*
X29330667Y-97060104D02*
X29292571Y-97098200D01*
X29292571Y-97098200D02*
X29178286Y-97136295D01*
X29178286Y-97136295D02*
X29102095Y-97136295D01*
X29102095Y-97136295D02*
X28987809Y-97098200D01*
X28987809Y-97098200D02*
X28911619Y-97022009D01*
X28911619Y-97022009D02*
X28873524Y-96945819D01*
X28873524Y-96945819D02*
X28835428Y-96793438D01*
X28835428Y-96793438D02*
X28835428Y-96679152D01*
X28835428Y-96679152D02*
X28873524Y-96526771D01*
X28873524Y-96526771D02*
X28911619Y-96450580D01*
X28911619Y-96450580D02*
X28987809Y-96374390D01*
X28987809Y-96374390D02*
X29102095Y-96336295D01*
X29102095Y-96336295D02*
X29178286Y-96336295D01*
X29178286Y-96336295D02*
X29292571Y-96374390D01*
X29292571Y-96374390D02*
X29330667Y-96412485D01*
X29597333Y-96336295D02*
X30092571Y-96336295D01*
X30092571Y-96336295D02*
X29825905Y-96641057D01*
X29825905Y-96641057D02*
X29940190Y-96641057D01*
X29940190Y-96641057D02*
X30016381Y-96679152D01*
X30016381Y-96679152D02*
X30054476Y-96717247D01*
X30054476Y-96717247D02*
X30092571Y-96793438D01*
X30092571Y-96793438D02*
X30092571Y-96983914D01*
X30092571Y-96983914D02*
X30054476Y-97060104D01*
X30054476Y-97060104D02*
X30016381Y-97098200D01*
X30016381Y-97098200D02*
X29940190Y-97136295D01*
X29940190Y-97136295D02*
X29711619Y-97136295D01*
X29711619Y-97136295D02*
X29635428Y-97098200D01*
X29635428Y-97098200D02*
X29597333Y-97060104D01*
X27298666Y-97136295D02*
X26841523Y-97136295D01*
X27070095Y-97136295D02*
X27070095Y-96336295D01*
X27070095Y-96336295D02*
X26993904Y-96450580D01*
X26993904Y-96450580D02*
X26917714Y-96526771D01*
X26917714Y-96526771D02*
X26841523Y-96564866D01*
X27984381Y-96602961D02*
X27984381Y-97136295D01*
X27641524Y-96602961D02*
X27641524Y-97022009D01*
X27641524Y-97022009D02*
X27679619Y-97098200D01*
X27679619Y-97098200D02*
X27755809Y-97136295D01*
X27755809Y-97136295D02*
X27870095Y-97136295D01*
X27870095Y-97136295D02*
X27946286Y-97098200D01*
X27946286Y-97098200D02*
X27984381Y-97060104D01*
X33426476Y-91510295D02*
X33426476Y-92157914D01*
X33426476Y-92157914D02*
X33464571Y-92234104D01*
X33464571Y-92234104D02*
X33502666Y-92272200D01*
X33502666Y-92272200D02*
X33578857Y-92310295D01*
X33578857Y-92310295D02*
X33731238Y-92310295D01*
X33731238Y-92310295D02*
X33807428Y-92272200D01*
X33807428Y-92272200D02*
X33845523Y-92234104D01*
X33845523Y-92234104D02*
X33883619Y-92157914D01*
X33883619Y-92157914D02*
X33883619Y-91510295D01*
X34226475Y-91586485D02*
X34264571Y-91548390D01*
X34264571Y-91548390D02*
X34340761Y-91510295D01*
X34340761Y-91510295D02*
X34531237Y-91510295D01*
X34531237Y-91510295D02*
X34607428Y-91548390D01*
X34607428Y-91548390D02*
X34645523Y-91586485D01*
X34645523Y-91586485D02*
X34683618Y-91662676D01*
X34683618Y-91662676D02*
X34683618Y-91738866D01*
X34683618Y-91738866D02*
X34645523Y-91853152D01*
X34645523Y-91853152D02*
X34188380Y-92310295D01*
X34188380Y-92310295D02*
X34683618Y-92310295D01*
X24174951Y-92056295D02*
X23793999Y-92056295D01*
X23793999Y-92056295D02*
X23793999Y-91256295D01*
X24441618Y-92056295D02*
X24441618Y-91256295D01*
X24441618Y-91256295D02*
X24708284Y-91827723D01*
X24708284Y-91827723D02*
X24974951Y-91256295D01*
X24974951Y-91256295D02*
X24974951Y-92056295D01*
X25279713Y-91256295D02*
X25774951Y-91256295D01*
X25774951Y-91256295D02*
X25508285Y-91561057D01*
X25508285Y-91561057D02*
X25622570Y-91561057D01*
X25622570Y-91561057D02*
X25698761Y-91599152D01*
X25698761Y-91599152D02*
X25736856Y-91637247D01*
X25736856Y-91637247D02*
X25774951Y-91713438D01*
X25774951Y-91713438D02*
X25774951Y-91903914D01*
X25774951Y-91903914D02*
X25736856Y-91980104D01*
X25736856Y-91980104D02*
X25698761Y-92018200D01*
X25698761Y-92018200D02*
X25622570Y-92056295D01*
X25622570Y-92056295D02*
X25393999Y-92056295D01*
X25393999Y-92056295D02*
X25317808Y-92018200D01*
X25317808Y-92018200D02*
X25279713Y-91980104D01*
X26536856Y-92056295D02*
X26079713Y-92056295D01*
X26308285Y-92056295D02*
X26308285Y-91256295D01*
X26308285Y-91256295D02*
X26232094Y-91370580D01*
X26232094Y-91370580D02*
X26155904Y-91446771D01*
X26155904Y-91446771D02*
X26079713Y-91484866D01*
X26803523Y-91256295D02*
X27336857Y-91256295D01*
X27336857Y-91256295D02*
X26993999Y-92056295D01*
X27451143Y-92132485D02*
X28060666Y-92132485D01*
X28136857Y-91256295D02*
X28594000Y-91256295D01*
X28365428Y-92056295D02*
X28365428Y-91256295D01*
X29013048Y-91256295D02*
X29165429Y-91256295D01*
X29165429Y-91256295D02*
X29241619Y-91294390D01*
X29241619Y-91294390D02*
X29317810Y-91370580D01*
X29317810Y-91370580D02*
X29355905Y-91522961D01*
X29355905Y-91522961D02*
X29355905Y-91789628D01*
X29355905Y-91789628D02*
X29317810Y-91942009D01*
X29317810Y-91942009D02*
X29241619Y-92018200D01*
X29241619Y-92018200D02*
X29165429Y-92056295D01*
X29165429Y-92056295D02*
X29013048Y-92056295D01*
X29013048Y-92056295D02*
X28936857Y-92018200D01*
X28936857Y-92018200D02*
X28860667Y-91942009D01*
X28860667Y-91942009D02*
X28822571Y-91789628D01*
X28822571Y-91789628D02*
X28822571Y-91522961D01*
X28822571Y-91522961D02*
X28860667Y-91370580D01*
X28860667Y-91370580D02*
X28936857Y-91294390D01*
X28936857Y-91294390D02*
X29013048Y-91256295D01*
X29698762Y-91751533D02*
X30308286Y-91751533D01*
X30651142Y-91332485D02*
X30689238Y-91294390D01*
X30689238Y-91294390D02*
X30765428Y-91256295D01*
X30765428Y-91256295D02*
X30955904Y-91256295D01*
X30955904Y-91256295D02*
X31032095Y-91294390D01*
X31032095Y-91294390D02*
X31070190Y-91332485D01*
X31070190Y-91332485D02*
X31108285Y-91408676D01*
X31108285Y-91408676D02*
X31108285Y-91484866D01*
X31108285Y-91484866D02*
X31070190Y-91599152D01*
X31070190Y-91599152D02*
X30613047Y-92056295D01*
X30613047Y-92056295D02*
X31108285Y-92056295D01*
X31413047Y-91332485D02*
X31451143Y-91294390D01*
X31451143Y-91294390D02*
X31527333Y-91256295D01*
X31527333Y-91256295D02*
X31717809Y-91256295D01*
X31717809Y-91256295D02*
X31794000Y-91294390D01*
X31794000Y-91294390D02*
X31832095Y-91332485D01*
X31832095Y-91332485D02*
X31870190Y-91408676D01*
X31870190Y-91408676D02*
X31870190Y-91484866D01*
X31870190Y-91484866D02*
X31832095Y-91599152D01*
X31832095Y-91599152D02*
X31374952Y-92056295D01*
X31374952Y-92056295D02*
X31870190Y-92056295D01*
X32365429Y-91256295D02*
X32441619Y-91256295D01*
X32441619Y-91256295D02*
X32517810Y-91294390D01*
X32517810Y-91294390D02*
X32555905Y-91332485D01*
X32555905Y-91332485D02*
X32594000Y-91408676D01*
X32594000Y-91408676D02*
X32632095Y-91561057D01*
X32632095Y-91561057D02*
X32632095Y-91751533D01*
X32632095Y-91751533D02*
X32594000Y-91903914D01*
X32594000Y-91903914D02*
X32555905Y-91980104D01*
X32555905Y-91980104D02*
X32517810Y-92018200D01*
X32517810Y-92018200D02*
X32441619Y-92056295D01*
X32441619Y-92056295D02*
X32365429Y-92056295D01*
X32365429Y-92056295D02*
X32289238Y-92018200D01*
X32289238Y-92018200D02*
X32251143Y-91980104D01*
X32251143Y-91980104D02*
X32213048Y-91903914D01*
X32213048Y-91903914D02*
X32174952Y-91751533D01*
X32174952Y-91751533D02*
X32174952Y-91561057D01*
X32174952Y-91561057D02*
X32213048Y-91408676D01*
X32213048Y-91408676D02*
X32251143Y-91332485D01*
X32251143Y-91332485D02*
X32289238Y-91294390D01*
X32289238Y-91294390D02*
X32365429Y-91256295D01*
X33934476Y-71190295D02*
X33934476Y-71837914D01*
X33934476Y-71837914D02*
X33972571Y-71914104D01*
X33972571Y-71914104D02*
X34010666Y-71952200D01*
X34010666Y-71952200D02*
X34086857Y-71990295D01*
X34086857Y-71990295D02*
X34239238Y-71990295D01*
X34239238Y-71990295D02*
X34315428Y-71952200D01*
X34315428Y-71952200D02*
X34353523Y-71914104D01*
X34353523Y-71914104D02*
X34391619Y-71837914D01*
X34391619Y-71837914D02*
X34391619Y-71190295D01*
X35191618Y-71990295D02*
X34734475Y-71990295D01*
X34963047Y-71990295D02*
X34963047Y-71190295D01*
X34963047Y-71190295D02*
X34886856Y-71304580D01*
X34886856Y-71304580D02*
X34810666Y-71380771D01*
X34810666Y-71380771D02*
X34734475Y-71418866D01*
X25305237Y-65726295D02*
X24924285Y-65726295D01*
X24924285Y-65726295D02*
X24924285Y-64926295D01*
X25571904Y-65726295D02*
X25571904Y-64926295D01*
X25571904Y-64926295D02*
X25838570Y-65497723D01*
X25838570Y-65497723D02*
X26105237Y-64926295D01*
X26105237Y-64926295D02*
X26105237Y-65726295D01*
X26409999Y-64926295D02*
X26943333Y-64926295D01*
X26943333Y-64926295D02*
X26600475Y-65726295D01*
X27362380Y-65269152D02*
X27286190Y-65231057D01*
X27286190Y-65231057D02*
X27248095Y-65192961D01*
X27248095Y-65192961D02*
X27209999Y-65116771D01*
X27209999Y-65116771D02*
X27209999Y-65078676D01*
X27209999Y-65078676D02*
X27248095Y-65002485D01*
X27248095Y-65002485D02*
X27286190Y-64964390D01*
X27286190Y-64964390D02*
X27362380Y-64926295D01*
X27362380Y-64926295D02*
X27514761Y-64926295D01*
X27514761Y-64926295D02*
X27590952Y-64964390D01*
X27590952Y-64964390D02*
X27629047Y-65002485D01*
X27629047Y-65002485D02*
X27667142Y-65078676D01*
X27667142Y-65078676D02*
X27667142Y-65116771D01*
X27667142Y-65116771D02*
X27629047Y-65192961D01*
X27629047Y-65192961D02*
X27590952Y-65231057D01*
X27590952Y-65231057D02*
X27514761Y-65269152D01*
X27514761Y-65269152D02*
X27362380Y-65269152D01*
X27362380Y-65269152D02*
X27286190Y-65307247D01*
X27286190Y-65307247D02*
X27248095Y-65345342D01*
X27248095Y-65345342D02*
X27209999Y-65421533D01*
X27209999Y-65421533D02*
X27209999Y-65573914D01*
X27209999Y-65573914D02*
X27248095Y-65650104D01*
X27248095Y-65650104D02*
X27286190Y-65688200D01*
X27286190Y-65688200D02*
X27362380Y-65726295D01*
X27362380Y-65726295D02*
X27514761Y-65726295D01*
X27514761Y-65726295D02*
X27590952Y-65688200D01*
X27590952Y-65688200D02*
X27629047Y-65650104D01*
X27629047Y-65650104D02*
X27667142Y-65573914D01*
X27667142Y-65573914D02*
X27667142Y-65421533D01*
X27667142Y-65421533D02*
X27629047Y-65345342D01*
X27629047Y-65345342D02*
X27590952Y-65307247D01*
X27590952Y-65307247D02*
X27514761Y-65269152D01*
X28162381Y-64926295D02*
X28238571Y-64926295D01*
X28238571Y-64926295D02*
X28314762Y-64964390D01*
X28314762Y-64964390D02*
X28352857Y-65002485D01*
X28352857Y-65002485D02*
X28390952Y-65078676D01*
X28390952Y-65078676D02*
X28429047Y-65231057D01*
X28429047Y-65231057D02*
X28429047Y-65421533D01*
X28429047Y-65421533D02*
X28390952Y-65573914D01*
X28390952Y-65573914D02*
X28352857Y-65650104D01*
X28352857Y-65650104D02*
X28314762Y-65688200D01*
X28314762Y-65688200D02*
X28238571Y-65726295D01*
X28238571Y-65726295D02*
X28162381Y-65726295D01*
X28162381Y-65726295D02*
X28086190Y-65688200D01*
X28086190Y-65688200D02*
X28048095Y-65650104D01*
X28048095Y-65650104D02*
X28010000Y-65573914D01*
X28010000Y-65573914D02*
X27971904Y-65421533D01*
X27971904Y-65421533D02*
X27971904Y-65231057D01*
X27971904Y-65231057D02*
X28010000Y-65078676D01*
X28010000Y-65078676D02*
X28048095Y-65002485D01*
X28048095Y-65002485D02*
X28086190Y-64964390D01*
X28086190Y-64964390D02*
X28162381Y-64926295D01*
X29152857Y-64926295D02*
X28771905Y-64926295D01*
X28771905Y-64926295D02*
X28733809Y-65307247D01*
X28733809Y-65307247D02*
X28771905Y-65269152D01*
X28771905Y-65269152D02*
X28848095Y-65231057D01*
X28848095Y-65231057D02*
X29038571Y-65231057D01*
X29038571Y-65231057D02*
X29114762Y-65269152D01*
X29114762Y-65269152D02*
X29152857Y-65307247D01*
X29152857Y-65307247D02*
X29190952Y-65383438D01*
X29190952Y-65383438D02*
X29190952Y-65573914D01*
X29190952Y-65573914D02*
X29152857Y-65650104D01*
X29152857Y-65650104D02*
X29114762Y-65688200D01*
X29114762Y-65688200D02*
X29038571Y-65726295D01*
X29038571Y-65726295D02*
X28848095Y-65726295D01*
X28848095Y-65726295D02*
X28771905Y-65688200D01*
X28771905Y-65688200D02*
X28733809Y-65650104D01*
X29343334Y-65802485D02*
X29952857Y-65802485D01*
X30029048Y-64926295D02*
X30486191Y-64926295D01*
X30257619Y-65726295D02*
X30257619Y-64926295D01*
X30905239Y-64926295D02*
X31057620Y-64926295D01*
X31057620Y-64926295D02*
X31133810Y-64964390D01*
X31133810Y-64964390D02*
X31210001Y-65040580D01*
X31210001Y-65040580D02*
X31248096Y-65192961D01*
X31248096Y-65192961D02*
X31248096Y-65459628D01*
X31248096Y-65459628D02*
X31210001Y-65612009D01*
X31210001Y-65612009D02*
X31133810Y-65688200D01*
X31133810Y-65688200D02*
X31057620Y-65726295D01*
X31057620Y-65726295D02*
X30905239Y-65726295D01*
X30905239Y-65726295D02*
X30829048Y-65688200D01*
X30829048Y-65688200D02*
X30752858Y-65612009D01*
X30752858Y-65612009D02*
X30714762Y-65459628D01*
X30714762Y-65459628D02*
X30714762Y-65192961D01*
X30714762Y-65192961D02*
X30752858Y-65040580D01*
X30752858Y-65040580D02*
X30829048Y-64964390D01*
X30829048Y-64964390D02*
X30905239Y-64926295D01*
X31552857Y-65002485D02*
X31590953Y-64964390D01*
X31590953Y-64964390D02*
X31667143Y-64926295D01*
X31667143Y-64926295D02*
X31857619Y-64926295D01*
X31857619Y-64926295D02*
X31933810Y-64964390D01*
X31933810Y-64964390D02*
X31971905Y-65002485D01*
X31971905Y-65002485D02*
X32010000Y-65078676D01*
X32010000Y-65078676D02*
X32010000Y-65154866D01*
X32010000Y-65154866D02*
X31971905Y-65269152D01*
X31971905Y-65269152D02*
X31514762Y-65726295D01*
X31514762Y-65726295D02*
X32010000Y-65726295D01*
X32314762Y-65002485D02*
X32352858Y-64964390D01*
X32352858Y-64964390D02*
X32429048Y-64926295D01*
X32429048Y-64926295D02*
X32619524Y-64926295D01*
X32619524Y-64926295D02*
X32695715Y-64964390D01*
X32695715Y-64964390D02*
X32733810Y-65002485D01*
X32733810Y-65002485D02*
X32771905Y-65078676D01*
X32771905Y-65078676D02*
X32771905Y-65154866D01*
X32771905Y-65154866D02*
X32733810Y-65269152D01*
X32733810Y-65269152D02*
X32276667Y-65726295D01*
X32276667Y-65726295D02*
X32771905Y-65726295D01*
X33267144Y-64926295D02*
X33343334Y-64926295D01*
X33343334Y-64926295D02*
X33419525Y-64964390D01*
X33419525Y-64964390D02*
X33457620Y-65002485D01*
X33457620Y-65002485D02*
X33495715Y-65078676D01*
X33495715Y-65078676D02*
X33533810Y-65231057D01*
X33533810Y-65231057D02*
X33533810Y-65421533D01*
X33533810Y-65421533D02*
X33495715Y-65573914D01*
X33495715Y-65573914D02*
X33457620Y-65650104D01*
X33457620Y-65650104D02*
X33419525Y-65688200D01*
X33419525Y-65688200D02*
X33343334Y-65726295D01*
X33343334Y-65726295D02*
X33267144Y-65726295D01*
X33267144Y-65726295D02*
X33190953Y-65688200D01*
X33190953Y-65688200D02*
X33152858Y-65650104D01*
X33152858Y-65650104D02*
X33114763Y-65573914D01*
X33114763Y-65573914D02*
X33076667Y-65421533D01*
X33076667Y-65421533D02*
X33076667Y-65231057D01*
X33076667Y-65231057D02*
X33114763Y-65078676D01*
X33114763Y-65078676D02*
X33152858Y-65002485D01*
X33152858Y-65002485D02*
X33190953Y-64964390D01*
X33190953Y-64964390D02*
X33267144Y-64926295D01*
X25387333Y-101924295D02*
X25387333Y-102495723D01*
X25387333Y-102495723D02*
X25349238Y-102610009D01*
X25349238Y-102610009D02*
X25273047Y-102686200D01*
X25273047Y-102686200D02*
X25158762Y-102724295D01*
X25158762Y-102724295D02*
X25082571Y-102724295D01*
X26111143Y-102190961D02*
X26111143Y-102724295D01*
X25920667Y-101886200D02*
X25730190Y-102457628D01*
X25730190Y-102457628D02*
X26225429Y-102457628D01*
X48501333Y-56458295D02*
X48501333Y-57029723D01*
X48501333Y-57029723D02*
X48463238Y-57144009D01*
X48463238Y-57144009D02*
X48387047Y-57220200D01*
X48387047Y-57220200D02*
X48272762Y-57258295D01*
X48272762Y-57258295D02*
X48196571Y-57258295D01*
X49301333Y-57258295D02*
X48844190Y-57258295D01*
X49072762Y-57258295D02*
X49072762Y-56458295D01*
X49072762Y-56458295D02*
X48996571Y-56572580D01*
X48996571Y-56572580D02*
X48920381Y-56648771D01*
X48920381Y-56648771D02*
X48844190Y-56686866D01*
X45840667Y-73514295D02*
X45574000Y-73133342D01*
X45383524Y-73514295D02*
X45383524Y-72714295D01*
X45383524Y-72714295D02*
X45688286Y-72714295D01*
X45688286Y-72714295D02*
X45764476Y-72752390D01*
X45764476Y-72752390D02*
X45802571Y-72790485D01*
X45802571Y-72790485D02*
X45840667Y-72866676D01*
X45840667Y-72866676D02*
X45840667Y-72980961D01*
X45840667Y-72980961D02*
X45802571Y-73057152D01*
X45802571Y-73057152D02*
X45764476Y-73095247D01*
X45764476Y-73095247D02*
X45688286Y-73133342D01*
X45688286Y-73133342D02*
X45383524Y-73133342D01*
X46145428Y-72790485D02*
X46183524Y-72752390D01*
X46183524Y-72752390D02*
X46259714Y-72714295D01*
X46259714Y-72714295D02*
X46450190Y-72714295D01*
X46450190Y-72714295D02*
X46526381Y-72752390D01*
X46526381Y-72752390D02*
X46564476Y-72790485D01*
X46564476Y-72790485D02*
X46602571Y-72866676D01*
X46602571Y-72866676D02*
X46602571Y-72942866D01*
X46602571Y-72942866D02*
X46564476Y-73057152D01*
X46564476Y-73057152D02*
X46107333Y-73514295D01*
X46107333Y-73514295D02*
X46602571Y-73514295D01*
X41135428Y-72714295D02*
X41630666Y-72714295D01*
X41630666Y-72714295D02*
X41364000Y-73019057D01*
X41364000Y-73019057D02*
X41478285Y-73019057D01*
X41478285Y-73019057D02*
X41554476Y-73057152D01*
X41554476Y-73057152D02*
X41592571Y-73095247D01*
X41592571Y-73095247D02*
X41630666Y-73171438D01*
X41630666Y-73171438D02*
X41630666Y-73361914D01*
X41630666Y-73361914D02*
X41592571Y-73438104D01*
X41592571Y-73438104D02*
X41554476Y-73476200D01*
X41554476Y-73476200D02*
X41478285Y-73514295D01*
X41478285Y-73514295D02*
X41249714Y-73514295D01*
X41249714Y-73514295D02*
X41173523Y-73476200D01*
X41173523Y-73476200D02*
X41135428Y-73438104D01*
X41897333Y-72714295D02*
X42392571Y-72714295D01*
X42392571Y-72714295D02*
X42125905Y-73019057D01*
X42125905Y-73019057D02*
X42240190Y-73019057D01*
X42240190Y-73019057D02*
X42316381Y-73057152D01*
X42316381Y-73057152D02*
X42354476Y-73095247D01*
X42354476Y-73095247D02*
X42392571Y-73171438D01*
X42392571Y-73171438D02*
X42392571Y-73361914D01*
X42392571Y-73361914D02*
X42354476Y-73438104D01*
X42354476Y-73438104D02*
X42316381Y-73476200D01*
X42316381Y-73476200D02*
X42240190Y-73514295D01*
X42240190Y-73514295D02*
X42011619Y-73514295D01*
X42011619Y-73514295D02*
X41935428Y-73476200D01*
X41935428Y-73476200D02*
X41897333Y-73438104D01*
X42887810Y-72714295D02*
X42964000Y-72714295D01*
X42964000Y-72714295D02*
X43040191Y-72752390D01*
X43040191Y-72752390D02*
X43078286Y-72790485D01*
X43078286Y-72790485D02*
X43116381Y-72866676D01*
X43116381Y-72866676D02*
X43154476Y-73019057D01*
X43154476Y-73019057D02*
X43154476Y-73209533D01*
X43154476Y-73209533D02*
X43116381Y-73361914D01*
X43116381Y-73361914D02*
X43078286Y-73438104D01*
X43078286Y-73438104D02*
X43040191Y-73476200D01*
X43040191Y-73476200D02*
X42964000Y-73514295D01*
X42964000Y-73514295D02*
X42887810Y-73514295D01*
X42887810Y-73514295D02*
X42811619Y-73476200D01*
X42811619Y-73476200D02*
X42773524Y-73438104D01*
X42773524Y-73438104D02*
X42735429Y-73361914D01*
X42735429Y-73361914D02*
X42697333Y-73209533D01*
X42697333Y-73209533D02*
X42697333Y-73019057D01*
X42697333Y-73019057D02*
X42735429Y-72866676D01*
X42735429Y-72866676D02*
X42773524Y-72790485D01*
X42773524Y-72790485D02*
X42811619Y-72752390D01*
X42811619Y-72752390D02*
X42887810Y-72714295D01*
X48501333Y-102178295D02*
X48501333Y-102749723D01*
X48501333Y-102749723D02*
X48463238Y-102864009D01*
X48463238Y-102864009D02*
X48387047Y-102940200D01*
X48387047Y-102940200D02*
X48272762Y-102978295D01*
X48272762Y-102978295D02*
X48196571Y-102978295D01*
X48844190Y-102254485D02*
X48882286Y-102216390D01*
X48882286Y-102216390D02*
X48958476Y-102178295D01*
X48958476Y-102178295D02*
X49148952Y-102178295D01*
X49148952Y-102178295D02*
X49225143Y-102216390D01*
X49225143Y-102216390D02*
X49263238Y-102254485D01*
X49263238Y-102254485D02*
X49301333Y-102330676D01*
X49301333Y-102330676D02*
X49301333Y-102406866D01*
X49301333Y-102406866D02*
X49263238Y-102521152D01*
X49263238Y-102521152D02*
X48806095Y-102978295D01*
X48806095Y-102978295D02*
X49301333Y-102978295D01*
D12*
X44113524Y-75039595D02*
X44113524Y-74239595D01*
X44113524Y-74239595D02*
X44304000Y-74239595D01*
X44304000Y-74239595D02*
X44418286Y-74277690D01*
X44418286Y-74277690D02*
X44494476Y-74353880D01*
X44494476Y-74353880D02*
X44532571Y-74430071D01*
X44532571Y-74430071D02*
X44570667Y-74582452D01*
X44570667Y-74582452D02*
X44570667Y-74696738D01*
X44570667Y-74696738D02*
X44532571Y-74849119D01*
X44532571Y-74849119D02*
X44494476Y-74925309D01*
X44494476Y-74925309D02*
X44418286Y-75001500D01*
X44418286Y-75001500D02*
X44304000Y-75039595D01*
X44304000Y-75039595D02*
X44113524Y-75039595D01*
X45332571Y-75039595D02*
X44875428Y-75039595D01*
X45104000Y-75039595D02*
X45104000Y-74239595D01*
X45104000Y-74239595D02*
X45027809Y-74353880D01*
X45027809Y-74353880D02*
X44951619Y-74430071D01*
X44951619Y-74430071D02*
X44875428Y-74468166D01*
D11*
X43935714Y-83420295D02*
X43554762Y-83420295D01*
X43554762Y-83420295D02*
X43554762Y-82620295D01*
X44202381Y-83001247D02*
X44469047Y-83001247D01*
X44583333Y-83420295D02*
X44202381Y-83420295D01*
X44202381Y-83420295D02*
X44202381Y-82620295D01*
X44202381Y-82620295D02*
X44583333Y-82620295D01*
X44926191Y-83420295D02*
X44926191Y-82620295D01*
X44926191Y-82620295D02*
X45116667Y-82620295D01*
X45116667Y-82620295D02*
X45230953Y-82658390D01*
X45230953Y-82658390D02*
X45307143Y-82734580D01*
X45307143Y-82734580D02*
X45345238Y-82810771D01*
X45345238Y-82810771D02*
X45383334Y-82963152D01*
X45383334Y-82963152D02*
X45383334Y-83077438D01*
X45383334Y-83077438D02*
X45345238Y-83229819D01*
X45345238Y-83229819D02*
X45307143Y-83306009D01*
X45307143Y-83306009D02*
X45230953Y-83382200D01*
X45230953Y-83382200D02*
X45116667Y-83420295D01*
X45116667Y-83420295D02*
X44926191Y-83420295D01*
X45961333Y-93796295D02*
X45961333Y-94367723D01*
X45961333Y-94367723D02*
X45923238Y-94482009D01*
X45923238Y-94482009D02*
X45847047Y-94558200D01*
X45847047Y-94558200D02*
X45732762Y-94596295D01*
X45732762Y-94596295D02*
X45656571Y-94596295D01*
X46266095Y-93796295D02*
X46799429Y-93796295D01*
X46799429Y-93796295D02*
X46456571Y-94596295D01*
X44653332Y-63062200D02*
X44767618Y-63100295D01*
X44767618Y-63100295D02*
X44958094Y-63100295D01*
X44958094Y-63100295D02*
X45034285Y-63062200D01*
X45034285Y-63062200D02*
X45072380Y-63024104D01*
X45072380Y-63024104D02*
X45110475Y-62947914D01*
X45110475Y-62947914D02*
X45110475Y-62871723D01*
X45110475Y-62871723D02*
X45072380Y-62795533D01*
X45072380Y-62795533D02*
X45034285Y-62757438D01*
X45034285Y-62757438D02*
X44958094Y-62719342D01*
X44958094Y-62719342D02*
X44805713Y-62681247D01*
X44805713Y-62681247D02*
X44729523Y-62643152D01*
X44729523Y-62643152D02*
X44691428Y-62605057D01*
X44691428Y-62605057D02*
X44653332Y-62528866D01*
X44653332Y-62528866D02*
X44653332Y-62452676D01*
X44653332Y-62452676D02*
X44691428Y-62376485D01*
X44691428Y-62376485D02*
X44729523Y-62338390D01*
X44729523Y-62338390D02*
X44805713Y-62300295D01*
X44805713Y-62300295D02*
X44996190Y-62300295D01*
X44996190Y-62300295D02*
X45110475Y-62338390D01*
X45377142Y-62300295D02*
X45567618Y-63100295D01*
X45567618Y-63100295D02*
X45719999Y-62528866D01*
X45719999Y-62528866D02*
X45872380Y-63100295D01*
X45872380Y-63100295D02*
X46062857Y-62300295D01*
X46786666Y-63100295D02*
X46329523Y-63100295D01*
X46558095Y-63100295D02*
X46558095Y-62300295D01*
X46558095Y-62300295D02*
X46481904Y-62414580D01*
X46481904Y-62414580D02*
X46405714Y-62490771D01*
X46405714Y-62490771D02*
X46329523Y-62528866D01*
X39052761Y-62681247D02*
X39319427Y-62681247D01*
X39433713Y-63100295D02*
X39052761Y-63100295D01*
X39052761Y-63100295D02*
X39052761Y-62300295D01*
X39052761Y-62300295D02*
X39433713Y-62300295D01*
X40195618Y-62338390D02*
X40119428Y-62300295D01*
X40119428Y-62300295D02*
X40005142Y-62300295D01*
X40005142Y-62300295D02*
X39890856Y-62338390D01*
X39890856Y-62338390D02*
X39814666Y-62414580D01*
X39814666Y-62414580D02*
X39776571Y-62490771D01*
X39776571Y-62490771D02*
X39738475Y-62643152D01*
X39738475Y-62643152D02*
X39738475Y-62757438D01*
X39738475Y-62757438D02*
X39776571Y-62909819D01*
X39776571Y-62909819D02*
X39814666Y-62986009D01*
X39814666Y-62986009D02*
X39890856Y-63062200D01*
X39890856Y-63062200D02*
X40005142Y-63100295D01*
X40005142Y-63100295D02*
X40081333Y-63100295D01*
X40081333Y-63100295D02*
X40195618Y-63062200D01*
X40195618Y-63062200D02*
X40233714Y-63024104D01*
X40233714Y-63024104D02*
X40233714Y-62757438D01*
X40233714Y-62757438D02*
X40081333Y-62757438D01*
X40995618Y-63100295D02*
X40538475Y-63100295D01*
X40767047Y-63100295D02*
X40767047Y-62300295D01*
X40767047Y-62300295D02*
X40690856Y-62414580D01*
X40690856Y-62414580D02*
X40614666Y-62490771D01*
X40614666Y-62490771D02*
X40538475Y-62528866D01*
X41300380Y-62376485D02*
X41338476Y-62338390D01*
X41338476Y-62338390D02*
X41414666Y-62300295D01*
X41414666Y-62300295D02*
X41605142Y-62300295D01*
X41605142Y-62300295D02*
X41681333Y-62338390D01*
X41681333Y-62338390D02*
X41719428Y-62376485D01*
X41719428Y-62376485D02*
X41757523Y-62452676D01*
X41757523Y-62452676D02*
X41757523Y-62528866D01*
X41757523Y-62528866D02*
X41719428Y-62643152D01*
X41719428Y-62643152D02*
X41262285Y-63100295D01*
X41262285Y-63100295D02*
X41757523Y-63100295D01*
X42519428Y-63100295D02*
X42062285Y-63100295D01*
X42290857Y-63100295D02*
X42290857Y-62300295D01*
X42290857Y-62300295D02*
X42214666Y-62414580D01*
X42214666Y-62414580D02*
X42138476Y-62490771D01*
X42138476Y-62490771D02*
X42062285Y-62528866D01*
X42976571Y-62643152D02*
X42900381Y-62605057D01*
X42900381Y-62605057D02*
X42862286Y-62566961D01*
X42862286Y-62566961D02*
X42824190Y-62490771D01*
X42824190Y-62490771D02*
X42824190Y-62452676D01*
X42824190Y-62452676D02*
X42862286Y-62376485D01*
X42862286Y-62376485D02*
X42900381Y-62338390D01*
X42900381Y-62338390D02*
X42976571Y-62300295D01*
X42976571Y-62300295D02*
X43128952Y-62300295D01*
X43128952Y-62300295D02*
X43205143Y-62338390D01*
X43205143Y-62338390D02*
X43243238Y-62376485D01*
X43243238Y-62376485D02*
X43281333Y-62452676D01*
X43281333Y-62452676D02*
X43281333Y-62490771D01*
X43281333Y-62490771D02*
X43243238Y-62566961D01*
X43243238Y-62566961D02*
X43205143Y-62605057D01*
X43205143Y-62605057D02*
X43128952Y-62643152D01*
X43128952Y-62643152D02*
X42976571Y-62643152D01*
X42976571Y-62643152D02*
X42900381Y-62681247D01*
X42900381Y-62681247D02*
X42862286Y-62719342D01*
X42862286Y-62719342D02*
X42824190Y-62795533D01*
X42824190Y-62795533D02*
X42824190Y-62947914D01*
X42824190Y-62947914D02*
X42862286Y-63024104D01*
X42862286Y-63024104D02*
X42900381Y-63062200D01*
X42900381Y-63062200D02*
X42976571Y-63100295D01*
X42976571Y-63100295D02*
X43128952Y-63100295D01*
X43128952Y-63100295D02*
X43205143Y-63062200D01*
X43205143Y-63062200D02*
X43243238Y-63024104D01*
X43243238Y-63024104D02*
X43281333Y-62947914D01*
X43281333Y-62947914D02*
X43281333Y-62795533D01*
X43281333Y-62795533D02*
X43243238Y-62719342D01*
X43243238Y-62719342D02*
X43205143Y-62681247D01*
X43205143Y-62681247D02*
X43128952Y-62643152D01*
X25895333Y-52140295D02*
X25895333Y-52711723D01*
X25895333Y-52711723D02*
X25857238Y-52826009D01*
X25857238Y-52826009D02*
X25781047Y-52902200D01*
X25781047Y-52902200D02*
X25666762Y-52940295D01*
X25666762Y-52940295D02*
X25590571Y-52940295D01*
X26200095Y-52140295D02*
X26695333Y-52140295D01*
X26695333Y-52140295D02*
X26428667Y-52445057D01*
X26428667Y-52445057D02*
X26542952Y-52445057D01*
X26542952Y-52445057D02*
X26619143Y-52483152D01*
X26619143Y-52483152D02*
X26657238Y-52521247D01*
X26657238Y-52521247D02*
X26695333Y-52597438D01*
X26695333Y-52597438D02*
X26695333Y-52787914D01*
X26695333Y-52787914D02*
X26657238Y-52864104D01*
X26657238Y-52864104D02*
X26619143Y-52902200D01*
X26619143Y-52902200D02*
X26542952Y-52940295D01*
X26542952Y-52940295D02*
X26314381Y-52940295D01*
X26314381Y-52940295D02*
X26238190Y-52902200D01*
X26238190Y-52902200D02*
X26200095Y-52864104D01*
X38728667Y-89516295D02*
X38462000Y-89135342D01*
X38271524Y-89516295D02*
X38271524Y-88716295D01*
X38271524Y-88716295D02*
X38576286Y-88716295D01*
X38576286Y-88716295D02*
X38652476Y-88754390D01*
X38652476Y-88754390D02*
X38690571Y-88792485D01*
X38690571Y-88792485D02*
X38728667Y-88868676D01*
X38728667Y-88868676D02*
X38728667Y-88982961D01*
X38728667Y-88982961D02*
X38690571Y-89059152D01*
X38690571Y-89059152D02*
X38652476Y-89097247D01*
X38652476Y-89097247D02*
X38576286Y-89135342D01*
X38576286Y-89135342D02*
X38271524Y-89135342D01*
X39490571Y-89516295D02*
X39033428Y-89516295D01*
X39262000Y-89516295D02*
X39262000Y-88716295D01*
X39262000Y-88716295D02*
X39185809Y-88830580D01*
X39185809Y-88830580D02*
X39109619Y-88906771D01*
X39109619Y-88906771D02*
X39033428Y-88944866D01*
X41643428Y-88828295D02*
X42138666Y-88828295D01*
X42138666Y-88828295D02*
X41872000Y-89133057D01*
X41872000Y-89133057D02*
X41986285Y-89133057D01*
X41986285Y-89133057D02*
X42062476Y-89171152D01*
X42062476Y-89171152D02*
X42100571Y-89209247D01*
X42100571Y-89209247D02*
X42138666Y-89285438D01*
X42138666Y-89285438D02*
X42138666Y-89475914D01*
X42138666Y-89475914D02*
X42100571Y-89552104D01*
X42100571Y-89552104D02*
X42062476Y-89590200D01*
X42062476Y-89590200D02*
X41986285Y-89628295D01*
X41986285Y-89628295D02*
X41757714Y-89628295D01*
X41757714Y-89628295D02*
X41681523Y-89590200D01*
X41681523Y-89590200D02*
X41643428Y-89552104D01*
X42405333Y-88828295D02*
X42900571Y-88828295D01*
X42900571Y-88828295D02*
X42633905Y-89133057D01*
X42633905Y-89133057D02*
X42748190Y-89133057D01*
X42748190Y-89133057D02*
X42824381Y-89171152D01*
X42824381Y-89171152D02*
X42862476Y-89209247D01*
X42862476Y-89209247D02*
X42900571Y-89285438D01*
X42900571Y-89285438D02*
X42900571Y-89475914D01*
X42900571Y-89475914D02*
X42862476Y-89552104D01*
X42862476Y-89552104D02*
X42824381Y-89590200D01*
X42824381Y-89590200D02*
X42748190Y-89628295D01*
X42748190Y-89628295D02*
X42519619Y-89628295D01*
X42519619Y-89628295D02*
X42443428Y-89590200D01*
X42443428Y-89590200D02*
X42405333Y-89552104D01*
X43395810Y-88828295D02*
X43472000Y-88828295D01*
X43472000Y-88828295D02*
X43548191Y-88866390D01*
X43548191Y-88866390D02*
X43586286Y-88904485D01*
X43586286Y-88904485D02*
X43624381Y-88980676D01*
X43624381Y-88980676D02*
X43662476Y-89133057D01*
X43662476Y-89133057D02*
X43662476Y-89323533D01*
X43662476Y-89323533D02*
X43624381Y-89475914D01*
X43624381Y-89475914D02*
X43586286Y-89552104D01*
X43586286Y-89552104D02*
X43548191Y-89590200D01*
X43548191Y-89590200D02*
X43472000Y-89628295D01*
X43472000Y-89628295D02*
X43395810Y-89628295D01*
X43395810Y-89628295D02*
X43319619Y-89590200D01*
X43319619Y-89590200D02*
X43281524Y-89552104D01*
X43281524Y-89552104D02*
X43243429Y-89475914D01*
X43243429Y-89475914D02*
X43205333Y-89323533D01*
X43205333Y-89323533D02*
X43205333Y-89133057D01*
X43205333Y-89133057D02*
X43243429Y-88980676D01*
X43243429Y-88980676D02*
X43281524Y-88904485D01*
X43281524Y-88904485D02*
X43319619Y-88866390D01*
X43319619Y-88866390D02*
X43395810Y-88828295D01*
X25641333Y-83722095D02*
X25641333Y-84293523D01*
X25641333Y-84293523D02*
X25603238Y-84407809D01*
X25603238Y-84407809D02*
X25527047Y-84484000D01*
X25527047Y-84484000D02*
X25412762Y-84522095D01*
X25412762Y-84522095D02*
X25336571Y-84522095D01*
X26365143Y-83722095D02*
X26212762Y-83722095D01*
X26212762Y-83722095D02*
X26136571Y-83760190D01*
X26136571Y-83760190D02*
X26098476Y-83798285D01*
X26098476Y-83798285D02*
X26022286Y-83912571D01*
X26022286Y-83912571D02*
X25984190Y-84064952D01*
X25984190Y-84064952D02*
X25984190Y-84369714D01*
X25984190Y-84369714D02*
X26022286Y-84445904D01*
X26022286Y-84445904D02*
X26060381Y-84484000D01*
X26060381Y-84484000D02*
X26136571Y-84522095D01*
X26136571Y-84522095D02*
X26288952Y-84522095D01*
X26288952Y-84522095D02*
X26365143Y-84484000D01*
X26365143Y-84484000D02*
X26403238Y-84445904D01*
X26403238Y-84445904D02*
X26441333Y-84369714D01*
X26441333Y-84369714D02*
X26441333Y-84179238D01*
X26441333Y-84179238D02*
X26403238Y-84103047D01*
X26403238Y-84103047D02*
X26365143Y-84064952D01*
X26365143Y-84064952D02*
X26288952Y-84026857D01*
X26288952Y-84026857D02*
X26136571Y-84026857D01*
X26136571Y-84026857D02*
X26060381Y-84064952D01*
X26060381Y-84064952D02*
X26022286Y-84103047D01*
X26022286Y-84103047D02*
X25984190Y-84179238D01*
X24498951Y-72841247D02*
X24613237Y-72879342D01*
X24613237Y-72879342D02*
X24651332Y-72917438D01*
X24651332Y-72917438D02*
X24689428Y-72993628D01*
X24689428Y-72993628D02*
X24689428Y-73107914D01*
X24689428Y-73107914D02*
X24651332Y-73184104D01*
X24651332Y-73184104D02*
X24613237Y-73222200D01*
X24613237Y-73222200D02*
X24537047Y-73260295D01*
X24537047Y-73260295D02*
X24232285Y-73260295D01*
X24232285Y-73260295D02*
X24232285Y-72460295D01*
X24232285Y-72460295D02*
X24498951Y-72460295D01*
X24498951Y-72460295D02*
X24575142Y-72498390D01*
X24575142Y-72498390D02*
X24613237Y-72536485D01*
X24613237Y-72536485D02*
X24651332Y-72612676D01*
X24651332Y-72612676D02*
X24651332Y-72688866D01*
X24651332Y-72688866D02*
X24613237Y-72765057D01*
X24613237Y-72765057D02*
X24575142Y-72803152D01*
X24575142Y-72803152D02*
X24498951Y-72841247D01*
X24498951Y-72841247D02*
X24232285Y-72841247D01*
X25375142Y-73260295D02*
X25375142Y-72841247D01*
X25375142Y-72841247D02*
X25337047Y-72765057D01*
X25337047Y-72765057D02*
X25260856Y-72726961D01*
X25260856Y-72726961D02*
X25108475Y-72726961D01*
X25108475Y-72726961D02*
X25032285Y-72765057D01*
X25375142Y-73222200D02*
X25298951Y-73260295D01*
X25298951Y-73260295D02*
X25108475Y-73260295D01*
X25108475Y-73260295D02*
X25032285Y-73222200D01*
X25032285Y-73222200D02*
X24994189Y-73146009D01*
X24994189Y-73146009D02*
X24994189Y-73069819D01*
X24994189Y-73069819D02*
X25032285Y-72993628D01*
X25032285Y-72993628D02*
X25108475Y-72955533D01*
X25108475Y-72955533D02*
X25298951Y-72955533D01*
X25298951Y-72955533D02*
X25375142Y-72917438D01*
X25756095Y-73260295D02*
X25756095Y-72726961D01*
X25756095Y-72879342D02*
X25794190Y-72803152D01*
X25794190Y-72803152D02*
X25832285Y-72765057D01*
X25832285Y-72765057D02*
X25908476Y-72726961D01*
X25908476Y-72726961D02*
X25984666Y-72726961D01*
X26251333Y-73260295D02*
X26251333Y-72726961D01*
X26251333Y-72879342D02*
X26289428Y-72803152D01*
X26289428Y-72803152D02*
X26327523Y-72765057D01*
X26327523Y-72765057D02*
X26403714Y-72726961D01*
X26403714Y-72726961D02*
X26479904Y-72726961D01*
X27051333Y-73222200D02*
X26975142Y-73260295D01*
X26975142Y-73260295D02*
X26822761Y-73260295D01*
X26822761Y-73260295D02*
X26746571Y-73222200D01*
X26746571Y-73222200D02*
X26708475Y-73146009D01*
X26708475Y-73146009D02*
X26708475Y-72841247D01*
X26708475Y-72841247D02*
X26746571Y-72765057D01*
X26746571Y-72765057D02*
X26822761Y-72726961D01*
X26822761Y-72726961D02*
X26975142Y-72726961D01*
X26975142Y-72726961D02*
X27051333Y-72765057D01*
X27051333Y-72765057D02*
X27089428Y-72841247D01*
X27089428Y-72841247D02*
X27089428Y-72917438D01*
X27089428Y-72917438D02*
X26708475Y-72993628D01*
X27546570Y-73260295D02*
X27470380Y-73222200D01*
X27470380Y-73222200D02*
X27432285Y-73146009D01*
X27432285Y-73146009D02*
X27432285Y-72460295D01*
X27660857Y-73336485D02*
X28270380Y-73336485D01*
X28689428Y-72460295D02*
X28689428Y-73031723D01*
X28689428Y-73031723D02*
X28651333Y-73146009D01*
X28651333Y-73146009D02*
X28575142Y-73222200D01*
X28575142Y-73222200D02*
X28460857Y-73260295D01*
X28460857Y-73260295D02*
X28384666Y-73260295D01*
X29413238Y-73260295D02*
X29413238Y-72841247D01*
X29413238Y-72841247D02*
X29375143Y-72765057D01*
X29375143Y-72765057D02*
X29298952Y-72726961D01*
X29298952Y-72726961D02*
X29146571Y-72726961D01*
X29146571Y-72726961D02*
X29070381Y-72765057D01*
X29413238Y-73222200D02*
X29337047Y-73260295D01*
X29337047Y-73260295D02*
X29146571Y-73260295D01*
X29146571Y-73260295D02*
X29070381Y-73222200D01*
X29070381Y-73222200D02*
X29032285Y-73146009D01*
X29032285Y-73146009D02*
X29032285Y-73069819D01*
X29032285Y-73069819D02*
X29070381Y-72993628D01*
X29070381Y-72993628D02*
X29146571Y-72955533D01*
X29146571Y-72955533D02*
X29337047Y-72955533D01*
X29337047Y-72955533D02*
X29413238Y-72917438D01*
X30137048Y-73222200D02*
X30060857Y-73260295D01*
X30060857Y-73260295D02*
X29908476Y-73260295D01*
X29908476Y-73260295D02*
X29832286Y-73222200D01*
X29832286Y-73222200D02*
X29794191Y-73184104D01*
X29794191Y-73184104D02*
X29756095Y-73107914D01*
X29756095Y-73107914D02*
X29756095Y-72879342D01*
X29756095Y-72879342D02*
X29794191Y-72803152D01*
X29794191Y-72803152D02*
X29832286Y-72765057D01*
X29832286Y-72765057D02*
X29908476Y-72726961D01*
X29908476Y-72726961D02*
X30060857Y-72726961D01*
X30060857Y-72726961D02*
X30137048Y-72765057D01*
X30479905Y-73260295D02*
X30479905Y-72460295D01*
X30556095Y-72955533D02*
X30784667Y-73260295D01*
X30784667Y-72726961D02*
X30479905Y-73031723D01*
X30937048Y-73336485D02*
X31546571Y-73336485D01*
X31698952Y-73222200D02*
X31813238Y-73260295D01*
X31813238Y-73260295D02*
X32003714Y-73260295D01*
X32003714Y-73260295D02*
X32079905Y-73222200D01*
X32079905Y-73222200D02*
X32118000Y-73184104D01*
X32118000Y-73184104D02*
X32156095Y-73107914D01*
X32156095Y-73107914D02*
X32156095Y-73031723D01*
X32156095Y-73031723D02*
X32118000Y-72955533D01*
X32118000Y-72955533D02*
X32079905Y-72917438D01*
X32079905Y-72917438D02*
X32003714Y-72879342D01*
X32003714Y-72879342D02*
X31851333Y-72841247D01*
X31851333Y-72841247D02*
X31775143Y-72803152D01*
X31775143Y-72803152D02*
X31737048Y-72765057D01*
X31737048Y-72765057D02*
X31698952Y-72688866D01*
X31698952Y-72688866D02*
X31698952Y-72612676D01*
X31698952Y-72612676D02*
X31737048Y-72536485D01*
X31737048Y-72536485D02*
X31775143Y-72498390D01*
X31775143Y-72498390D02*
X31851333Y-72460295D01*
X31851333Y-72460295D02*
X32041810Y-72460295D01*
X32041810Y-72460295D02*
X32156095Y-72498390D01*
X32422762Y-72726961D02*
X32575143Y-73260295D01*
X32575143Y-73260295D02*
X32727524Y-72879342D01*
X32727524Y-72879342D02*
X32879905Y-73260295D01*
X32879905Y-73260295D02*
X33032286Y-72726961D01*
X33337048Y-73260295D02*
X33337048Y-72726961D01*
X33337048Y-72460295D02*
X33298952Y-72498390D01*
X33298952Y-72498390D02*
X33337048Y-72536485D01*
X33337048Y-72536485D02*
X33375143Y-72498390D01*
X33375143Y-72498390D02*
X33337048Y-72460295D01*
X33337048Y-72460295D02*
X33337048Y-72536485D01*
X33603714Y-72726961D02*
X33908476Y-72726961D01*
X33718000Y-72460295D02*
X33718000Y-73146009D01*
X33718000Y-73146009D02*
X33756095Y-73222200D01*
X33756095Y-73222200D02*
X33832285Y-73260295D01*
X33832285Y-73260295D02*
X33908476Y-73260295D01*
X34518000Y-73222200D02*
X34441809Y-73260295D01*
X34441809Y-73260295D02*
X34289428Y-73260295D01*
X34289428Y-73260295D02*
X34213238Y-73222200D01*
X34213238Y-73222200D02*
X34175143Y-73184104D01*
X34175143Y-73184104D02*
X34137047Y-73107914D01*
X34137047Y-73107914D02*
X34137047Y-72879342D01*
X34137047Y-72879342D02*
X34175143Y-72803152D01*
X34175143Y-72803152D02*
X34213238Y-72765057D01*
X34213238Y-72765057D02*
X34289428Y-72726961D01*
X34289428Y-72726961D02*
X34441809Y-72726961D01*
X34441809Y-72726961D02*
X34518000Y-72765057D01*
X34860857Y-73260295D02*
X34860857Y-72460295D01*
X35203714Y-73260295D02*
X35203714Y-72841247D01*
X35203714Y-72841247D02*
X35165619Y-72765057D01*
X35165619Y-72765057D02*
X35089428Y-72726961D01*
X35089428Y-72726961D02*
X34975142Y-72726961D01*
X34975142Y-72726961D02*
X34898952Y-72765057D01*
X34898952Y-72765057D02*
X34860857Y-72803152D01*
X27044667Y-64040104D02*
X27006571Y-64078200D01*
X27006571Y-64078200D02*
X26892286Y-64116295D01*
X26892286Y-64116295D02*
X26816095Y-64116295D01*
X26816095Y-64116295D02*
X26701809Y-64078200D01*
X26701809Y-64078200D02*
X26625619Y-64002009D01*
X26625619Y-64002009D02*
X26587524Y-63925819D01*
X26587524Y-63925819D02*
X26549428Y-63773438D01*
X26549428Y-63773438D02*
X26549428Y-63659152D01*
X26549428Y-63659152D02*
X26587524Y-63506771D01*
X26587524Y-63506771D02*
X26625619Y-63430580D01*
X26625619Y-63430580D02*
X26701809Y-63354390D01*
X26701809Y-63354390D02*
X26816095Y-63316295D01*
X26816095Y-63316295D02*
X26892286Y-63316295D01*
X26892286Y-63316295D02*
X27006571Y-63354390D01*
X27006571Y-63354390D02*
X27044667Y-63392485D01*
X27349428Y-63392485D02*
X27387524Y-63354390D01*
X27387524Y-63354390D02*
X27463714Y-63316295D01*
X27463714Y-63316295D02*
X27654190Y-63316295D01*
X27654190Y-63316295D02*
X27730381Y-63354390D01*
X27730381Y-63354390D02*
X27768476Y-63392485D01*
X27768476Y-63392485D02*
X27806571Y-63468676D01*
X27806571Y-63468676D02*
X27806571Y-63544866D01*
X27806571Y-63544866D02*
X27768476Y-63659152D01*
X27768476Y-63659152D02*
X27311333Y-64116295D01*
X27311333Y-64116295D02*
X27806571Y-64116295D01*
X26206571Y-59760295D02*
X26282761Y-59760295D01*
X26282761Y-59760295D02*
X26358952Y-59798390D01*
X26358952Y-59798390D02*
X26397047Y-59836485D01*
X26397047Y-59836485D02*
X26435142Y-59912676D01*
X26435142Y-59912676D02*
X26473237Y-60065057D01*
X26473237Y-60065057D02*
X26473237Y-60255533D01*
X26473237Y-60255533D02*
X26435142Y-60407914D01*
X26435142Y-60407914D02*
X26397047Y-60484104D01*
X26397047Y-60484104D02*
X26358952Y-60522200D01*
X26358952Y-60522200D02*
X26282761Y-60560295D01*
X26282761Y-60560295D02*
X26206571Y-60560295D01*
X26206571Y-60560295D02*
X26130380Y-60522200D01*
X26130380Y-60522200D02*
X26092285Y-60484104D01*
X26092285Y-60484104D02*
X26054190Y-60407914D01*
X26054190Y-60407914D02*
X26016094Y-60255533D01*
X26016094Y-60255533D02*
X26016094Y-60065057D01*
X26016094Y-60065057D02*
X26054190Y-59912676D01*
X26054190Y-59912676D02*
X26092285Y-59836485D01*
X26092285Y-59836485D02*
X26130380Y-59798390D01*
X26130380Y-59798390D02*
X26206571Y-59760295D01*
X26816095Y-60484104D02*
X26854190Y-60522200D01*
X26854190Y-60522200D02*
X26816095Y-60560295D01*
X26816095Y-60560295D02*
X26777999Y-60522200D01*
X26777999Y-60522200D02*
X26816095Y-60484104D01*
X26816095Y-60484104D02*
X26816095Y-60560295D01*
X27616094Y-60560295D02*
X27158951Y-60560295D01*
X27387523Y-60560295D02*
X27387523Y-59760295D01*
X27387523Y-59760295D02*
X27311332Y-59874580D01*
X27311332Y-59874580D02*
X27235142Y-59950771D01*
X27235142Y-59950771D02*
X27158951Y-59988866D01*
X28301809Y-60026961D02*
X28301809Y-60560295D01*
X27958952Y-60026961D02*
X27958952Y-60446009D01*
X27958952Y-60446009D02*
X27997047Y-60522200D01*
X27997047Y-60522200D02*
X28073237Y-60560295D01*
X28073237Y-60560295D02*
X28187523Y-60560295D01*
X28187523Y-60560295D02*
X28263714Y-60522200D01*
X28263714Y-60522200D02*
X28301809Y-60484104D01*
X38982667Y-85452295D02*
X38716000Y-85071342D01*
X38525524Y-85452295D02*
X38525524Y-84652295D01*
X38525524Y-84652295D02*
X38830286Y-84652295D01*
X38830286Y-84652295D02*
X38906476Y-84690390D01*
X38906476Y-84690390D02*
X38944571Y-84728485D01*
X38944571Y-84728485D02*
X38982667Y-84804676D01*
X38982667Y-84804676D02*
X38982667Y-84918961D01*
X38982667Y-84918961D02*
X38944571Y-84995152D01*
X38944571Y-84995152D02*
X38906476Y-85033247D01*
X38906476Y-85033247D02*
X38830286Y-85071342D01*
X38830286Y-85071342D02*
X38525524Y-85071342D01*
X39249333Y-84652295D02*
X39744571Y-84652295D01*
X39744571Y-84652295D02*
X39477905Y-84957057D01*
X39477905Y-84957057D02*
X39592190Y-84957057D01*
X39592190Y-84957057D02*
X39668381Y-84995152D01*
X39668381Y-84995152D02*
X39706476Y-85033247D01*
X39706476Y-85033247D02*
X39744571Y-85109438D01*
X39744571Y-85109438D02*
X39744571Y-85299914D01*
X39744571Y-85299914D02*
X39706476Y-85376104D01*
X39706476Y-85376104D02*
X39668381Y-85414200D01*
X39668381Y-85414200D02*
X39592190Y-85452295D01*
X39592190Y-85452295D02*
X39363619Y-85452295D01*
X39363619Y-85452295D02*
X39287428Y-85414200D01*
X39287428Y-85414200D02*
X39249333Y-85376104D01*
X42100571Y-84652295D02*
X41719619Y-84652295D01*
X41719619Y-84652295D02*
X41681523Y-85033247D01*
X41681523Y-85033247D02*
X41719619Y-84995152D01*
X41719619Y-84995152D02*
X41795809Y-84957057D01*
X41795809Y-84957057D02*
X41986285Y-84957057D01*
X41986285Y-84957057D02*
X42062476Y-84995152D01*
X42062476Y-84995152D02*
X42100571Y-85033247D01*
X42100571Y-85033247D02*
X42138666Y-85109438D01*
X42138666Y-85109438D02*
X42138666Y-85299914D01*
X42138666Y-85299914D02*
X42100571Y-85376104D01*
X42100571Y-85376104D02*
X42062476Y-85414200D01*
X42062476Y-85414200D02*
X41986285Y-85452295D01*
X41986285Y-85452295D02*
X41795809Y-85452295D01*
X41795809Y-85452295D02*
X41719619Y-85414200D01*
X41719619Y-85414200D02*
X41681523Y-85376104D01*
X42824381Y-84652295D02*
X42672000Y-84652295D01*
X42672000Y-84652295D02*
X42595809Y-84690390D01*
X42595809Y-84690390D02*
X42557714Y-84728485D01*
X42557714Y-84728485D02*
X42481524Y-84842771D01*
X42481524Y-84842771D02*
X42443428Y-84995152D01*
X42443428Y-84995152D02*
X42443428Y-85299914D01*
X42443428Y-85299914D02*
X42481524Y-85376104D01*
X42481524Y-85376104D02*
X42519619Y-85414200D01*
X42519619Y-85414200D02*
X42595809Y-85452295D01*
X42595809Y-85452295D02*
X42748190Y-85452295D01*
X42748190Y-85452295D02*
X42824381Y-85414200D01*
X42824381Y-85414200D02*
X42862476Y-85376104D01*
X42862476Y-85376104D02*
X42900571Y-85299914D01*
X42900571Y-85299914D02*
X42900571Y-85109438D01*
X42900571Y-85109438D02*
X42862476Y-85033247D01*
X42862476Y-85033247D02*
X42824381Y-84995152D01*
X42824381Y-84995152D02*
X42748190Y-84957057D01*
X42748190Y-84957057D02*
X42595809Y-84957057D01*
X42595809Y-84957057D02*
X42519619Y-84995152D01*
X42519619Y-84995152D02*
X42481524Y-85033247D01*
X42481524Y-85033247D02*
X42443428Y-85109438D01*
X43395810Y-84652295D02*
X43472000Y-84652295D01*
X43472000Y-84652295D02*
X43548191Y-84690390D01*
X43548191Y-84690390D02*
X43586286Y-84728485D01*
X43586286Y-84728485D02*
X43624381Y-84804676D01*
X43624381Y-84804676D02*
X43662476Y-84957057D01*
X43662476Y-84957057D02*
X43662476Y-85147533D01*
X43662476Y-85147533D02*
X43624381Y-85299914D01*
X43624381Y-85299914D02*
X43586286Y-85376104D01*
X43586286Y-85376104D02*
X43548191Y-85414200D01*
X43548191Y-85414200D02*
X43472000Y-85452295D01*
X43472000Y-85452295D02*
X43395810Y-85452295D01*
X43395810Y-85452295D02*
X43319619Y-85414200D01*
X43319619Y-85414200D02*
X43281524Y-85376104D01*
X43281524Y-85376104D02*
X43243429Y-85299914D01*
X43243429Y-85299914D02*
X43205333Y-85147533D01*
X43205333Y-85147533D02*
X43205333Y-84957057D01*
X43205333Y-84957057D02*
X43243429Y-84804676D01*
X43243429Y-84804676D02*
X43281524Y-84728485D01*
X43281524Y-84728485D02*
X43319619Y-84690390D01*
X43319619Y-84690390D02*
X43395810Y-84652295D01*
X45961333Y-60014295D02*
X45961333Y-60585723D01*
X45961333Y-60585723D02*
X45923238Y-60700009D01*
X45923238Y-60700009D02*
X45847047Y-60776200D01*
X45847047Y-60776200D02*
X45732762Y-60814295D01*
X45732762Y-60814295D02*
X45656571Y-60814295D01*
X46723238Y-60014295D02*
X46342286Y-60014295D01*
X46342286Y-60014295D02*
X46304190Y-60395247D01*
X46304190Y-60395247D02*
X46342286Y-60357152D01*
X46342286Y-60357152D02*
X46418476Y-60319057D01*
X46418476Y-60319057D02*
X46608952Y-60319057D01*
X46608952Y-60319057D02*
X46685143Y-60357152D01*
X46685143Y-60357152D02*
X46723238Y-60395247D01*
X46723238Y-60395247D02*
X46761333Y-60471438D01*
X46761333Y-60471438D02*
X46761333Y-60661914D01*
X46761333Y-60661914D02*
X46723238Y-60738104D01*
X46723238Y-60738104D02*
X46685143Y-60776200D01*
X46685143Y-60776200D02*
X46608952Y-60814295D01*
X46608952Y-60814295D02*
X46418476Y-60814295D01*
X46418476Y-60814295D02*
X46342286Y-60776200D01*
X46342286Y-60776200D02*
X46304190Y-60738104D01*
%TO.C,C1*%
D13*
X32503600Y-61132200D02*
X34033600Y-61132200D01*
X34033600Y-62972200D02*
X32503600Y-62972200D01*
%TO.C,C3*%
X26560000Y-93949000D02*
X28090000Y-93949000D01*
X28090000Y-95789000D02*
X26560000Y-95789000D01*
%TO.C,U2*%
X24277800Y-86224200D02*
X34497800Y-86224200D01*
X24277800Y-87604200D02*
X34497800Y-87604200D01*
X24277800Y-90844200D02*
X24277800Y-86224200D01*
X27537800Y-86224200D02*
X27537800Y-87604200D01*
X31237800Y-86224200D02*
X31237800Y-87604200D01*
X34497800Y-86224200D02*
X34497800Y-90844200D01*
X34497800Y-90844200D02*
X24277800Y-90844200D01*
%TO.C,U1*%
X24862000Y-66204000D02*
X35082000Y-66204000D01*
X24862000Y-70824000D02*
X24862000Y-66204000D01*
X28122000Y-70824000D02*
X28122000Y-69444000D01*
X31822000Y-70824000D02*
X31822000Y-69444000D01*
X35082000Y-66204000D02*
X35082000Y-70824000D01*
X35082000Y-69444000D02*
X24862000Y-69444000D01*
X35082000Y-70824000D02*
X24862000Y-70824000D01*
%TO.C,J4*%
X26915600Y-102919000D02*
X26915600Y-101539000D01*
X28295600Y-102919000D02*
X26915600Y-102919000D01*
X29565600Y-100159000D02*
X34755600Y-100159000D01*
X29565600Y-102919000D02*
X29565600Y-100159000D01*
X29565600Y-102919000D02*
X34755600Y-102919000D01*
X34755600Y-102919000D02*
X34755600Y-100159000D01*
%TO.C,J1*%
X50182000Y-51960000D02*
X51562000Y-51960000D01*
X50182000Y-53340000D02*
X50182000Y-51960000D01*
X50182000Y-54610000D02*
X50182000Y-57260000D01*
X50182000Y-54610000D02*
X52942000Y-54610000D01*
X50182000Y-57260000D02*
X52942000Y-57260000D01*
X52942000Y-54610000D02*
X52942000Y-57260000D01*
%TO.C,R2*%
X39294000Y-71374000D02*
X40244000Y-71374000D01*
X45034000Y-71374000D02*
X44084000Y-71374000D01*
X40244000Y-70454000D02*
X44084000Y-70454000D01*
X44084000Y-72294000D01*
X40244000Y-72294000D01*
X40244000Y-70454000D01*
%TO.C,J2*%
X50182000Y-97756200D02*
X51562000Y-97756200D01*
X50182000Y-99136200D02*
X50182000Y-97756200D01*
X50182000Y-100406200D02*
X50182000Y-103056200D01*
X50182000Y-100406200D02*
X52942000Y-100406200D01*
X50182000Y-103056200D02*
X52942000Y-103056200D01*
X52942000Y-100406200D02*
X52942000Y-103056200D01*
%TO.C,D1*%
X42811400Y-81300000D02*
X45901400Y-81300000D01*
X42811570Y-81300000D02*
G75*
G02*
X44356400Y-75750000I1544830J2560000D01*
G01*
X44356400Y-75750000D02*
G75*
G02*
X45901230Y-81300000I0J-2990000D01*
G01*
X46856400Y-78740000D02*
G75*
G02*
X41856400Y-78740000I-2500000J0D01*
G01*
X41856400Y-78740000D02*
G75*
G02*
X46856400Y-78740000I2500000J0D01*
G01*
%TO.C,J7*%
X37236400Y-95499000D02*
X37236400Y-103119000D01*
X37236400Y-103119000D02*
X47396400Y-103119000D01*
X47396400Y-95499000D02*
X37236400Y-95499000D01*
X47396400Y-101849000D02*
X37236400Y-101849000D01*
X47396400Y-103119000D02*
X47396400Y-95499000D01*
%TO.C,SW1*%
D14*
X35714300Y-64020700D02*
X35714300Y-68262500D01*
X35714300Y-68262500D02*
X47576100Y-68262500D01*
X47576100Y-64020700D02*
X35714300Y-64020700D01*
X47576100Y-68262500D02*
X47576100Y-64020700D01*
%TO.C,J3*%
D13*
X27296600Y-54572800D02*
X27296600Y-53192800D01*
X28676600Y-54572800D02*
X27296600Y-54572800D01*
X29946600Y-51812800D02*
X35136600Y-51812800D01*
X29946600Y-54572800D02*
X29946600Y-51812800D01*
X29946600Y-54572800D02*
X35136600Y-54572800D01*
X35136600Y-54572800D02*
X35136600Y-51812800D01*
%TO.C,R1*%
X39802000Y-91186000D02*
X40752000Y-91186000D01*
X45542000Y-91186000D02*
X44592000Y-91186000D01*
X40752000Y-90266000D02*
X44592000Y-90266000D01*
X44592000Y-92106000D01*
X40752000Y-92106000D01*
X40752000Y-90266000D01*
%TO.C,J6*%
X24178600Y-73809800D02*
X38878600Y-73809800D01*
X24178600Y-83009800D02*
X24178600Y-73809800D01*
X32978600Y-83009800D02*
X24178600Y-83009800D01*
X38028600Y-73609800D02*
X39078600Y-73609800D01*
X38878600Y-73809800D02*
X38878600Y-76409800D01*
X38878600Y-80309800D02*
X38878600Y-83009800D01*
X38878600Y-83009800D02*
X36978600Y-83009800D01*
X39078600Y-74659800D02*
X39078600Y-73609800D01*
%TO.C,C2*%
X26667000Y-61056000D02*
X28197000Y-61056000D01*
X28197000Y-62896000D02*
X26667000Y-62896000D01*
%TO.C,R3*%
X39936400Y-87071200D02*
X40886400Y-87071200D01*
X45676400Y-87071200D02*
X44726400Y-87071200D01*
X40886400Y-86151200D02*
X44726400Y-86151200D01*
X44726400Y-87991200D01*
X40886400Y-87991200D01*
X40886400Y-86151200D01*
%TO.C,J5*%
X37236400Y-51612800D02*
X37236400Y-59232800D01*
X37236400Y-59232800D02*
X47396400Y-59232800D01*
X47396400Y-51612800D02*
X37236400Y-51612800D01*
X47396400Y-57962800D02*
X37236400Y-57962800D01*
X47396400Y-59232800D02*
X47396400Y-51612800D01*
%TD*%
M02*
